<?xml version="1.0" encoding="utf-8"?>
<!-- Generator: Adobe Illustrator 26.1.0, SVG Export Plug-In . SVG Version: 6.00 Build 0)  -->
<svg version="1.1" id="Layer_1_1_" xmlns="http://www.w3.org/2000/svg" xmlns:xlink="http://www.w3.org/1999/xlink" x="0px" y="0px"
	 viewBox="0 0 16 16" style="enable-background:new 0 0 16 16;" xml:space="preserve">
<style type="text/css">
	.st0{fill:#1C75BC;}
</style>
<path class="st0" d="M8,0C5.2,0,3,2.2,3,5v1H2v10h12V6h-1V5C13,2.2,10.8,0,8,0z M9,11.7V14H7v-2.3c-0.6-0.3-1-1-1-1.7
	c0-1.1,0.9-2,2-2s2,0.9,2,2C10,10.7,9.6,11.4,9,11.7z M12,6H4V5c0-2.2,1.8-4,4-4s4,1.8,4,4V6z"/>
</svg>
