<?xml version="1.0" encoding="utf-8"?>
<!-- Generator: Adobe Illustrator 26.1.0, SVG Export Plug-In . SVG Version: 6.00 Build 0)  -->
<svg version="1.1" id="Capa_1" xmlns="http://www.w3.org/2000/svg" xmlns:xlink="http://www.w3.org/1999/xlink" x="0px" y="0px"
	 viewBox="0 0 64 64" style="enable-background:new 0 0 64 64;" xml:space="preserve">
<style type="text/css">
	.st0{fill:#1C75BC;}
</style>
<g id="Layer_27">
	<path class="st0" d="M50.9,50.5H12c-0.8,0-1.5,0.7-1.5,1.5s0.7,1.5,1.5,1.5h38.9c0.8,0,1.5-0.7,1.5-1.5S51.8,50.5,50.9,50.5z"/>
	<path class="st0" d="M51.7,12.4L51.7,12.4c-2.8-2.8-7.9-2.4-11.3,1L20.2,33.5c-0.2,0.2-0.3,0.4-0.4,0.7l-3,11.2
		c-0.2,0.8,0.3,1.6,1.1,1.8c0.2,0.1,0.5,0.1,0.7,0l11.1-3c0.3-0.1,0.5-0.2,0.7-0.4l17.4-17.4l2.8-2.8C53.8,20.7,54.8,15.4,51.7,12.4
		z M28.7,41.4l-8.3,2.2l2.2-8.2l16-16l6,6L28.7,41.4z M50.5,17.6c-0.1,2.2-2.2,4.2-3.7,5.6l-6-6l1.8-1.8
		C45.7,12.2,51,13.1,50.5,17.6z"/>
</g>
</svg>
