<?xml version="1.0" encoding="UTF-8" standalone="no"?>
<svg
   xmlns:dc="http://purl.org/dc/elements/1.1/"
   xmlns:cc="http://creativecommons.org/ns#"
   xmlns:rdf="http://www.w3.org/1999/02/22-rdf-syntax-ns#"
   xmlns:svg="http://www.w3.org/2000/svg"
   xmlns="http://www.w3.org/2000/svg"
   xmlns:sodipodi="http://sodipodi.sourceforge.net/DTD/sodipodi-0.dtd"
   xmlns:inkscape="http://www.inkscape.org/namespaces/inkscape"
   version="1.1"
   id="svg2"
   xml:space="preserve"
   width="604.22668"
   height="584.09332"
   viewBox="0 0 604.22668 584.09332"
   sodipodi:docname="5180199.eps"><metadata
     id="metadata8"><rdf:RDF><cc:Work
         rdf:about=""><dc:format>image/svg+xml</dc:format><dc:type
           rdf:resource="http://purl.org/dc/dcmitype/StillImage" /></cc:Work></rdf:RDF></metadata><defs
     id="defs6" /><sodipodi:namedview
     pagecolor="#ffffff"
     bordercolor="#666666"
     borderopacity="1"
     objecttolerance="10"
     gridtolerance="10"
     guidetolerance="10"
     inkscape:pageopacity="0"
     inkscape:pageshadow="2"
     inkscape:window-width="640"
     inkscape:window-height="480"
     id="namedview4" /><g
     id="g10"
     inkscape:groupmode="layer"
     inkscape:label="ink_ext_XXXXXX"
     transform="matrix(1.3333333,0,0,-1.3333333,0,584.09333)"><g
       id="g12"
       transform="scale(0.1)"><path
         d="m 2052.66,590.988 h 2225.79 v 3133.73 H 2052.66 Z"
         style="fill:#e7e8e5;fill-opacity:1;fill-rule:nonzero;stroke:none"
         id="path14" /><path
         d="m 4053.93,3910.3 c -49.81,-51.57 -48.36,-133.75 3.22,-183.55 51.57,-49.79 133.76,-48.35 183.55,3.23 49.79,51.58 48.35,133.76 -3.23,183.55 -51.57,49.8 -133.75,48.35 -183.54,-3.23 z m -64.51,161.19 c 22.89,13.82 47.23,24.3 72.35,31.44 l 14.9,71.61 121,2.12 17.41,-71.03 c 25.35,-6.25 50.07,-15.87 73.41,-28.88 l 61.15,40.07 87.05,-84.05 -37.9,-62.51 c 13.83,-22.88 24.32,-47.24 31.44,-72.36 l 71.61,-14.9 2.13,-120.99 -71.05,-17.42 c -6.24,-25.35 -15.86,-50.05 -28.88,-73.4 l 40.08,-61.16 -84.04,-87.05 -62.52,37.9 c -22.88,-13.82 -47.24,-24.31 -72.35,-31.43 l -14.92,-71.62 -120.97,-2.12 -17.42,71.04 c -25.36,6.25 -50.06,15.88 -73.41,28.88 l -61.15,-40.08 -87.06,84.05 37.9,62.51 c -13.81,22.88 -24.3,47.24 -31.44,72.36 l -71.6,14.91 -2.12,120.98 71.03,17.42 c 6.25,25.35 15.88,50.06 28.88,73.4 l -40.08,61.16 84.05,87.05 62.52,-37.9"
         style="fill:#dadbd8;fill-opacity:1;fill-rule:nonzero;stroke:none"
         id="path16" /><path
         d="m 4053.93,3910.3 c 0,0 6.78,9.58 24.17,21.22 17.05,11.36 46.87,24.01 84.68,20.02 18.62,-2.09 38.99,-8.16 57.56,-20.44 18.37,-12.28 35.72,-29.76 46.55,-52.45 5.7,-11.14 9.66,-23.52 11.8,-36.44 2.34,-12.89 2.67,-26.46 0.73,-39.96 -3.29,-27.12 -16.11,-53.84 -36.03,-74.84 -20.28,-20.66 -46.54,-34.43 -73.55,-38.67 -13.41,-2.42 -26.99,-2.56 -39.97,-0.68 -12.98,1.69 -25.49,5.21 -36.83,10.53 -23.05,10.03 -41.14,26.75 -54.06,44.68 -12.92,18.12 -19.7,38.28 -22.45,56.8 -5.31,37.65 6.28,67.89 17.04,85.34 11.03,17.78 20.36,24.89 20.36,24.89 0.69,-0.59 -7.85,-8.51 -17.85,-26.33 -9.77,-17.51 -20.11,-47.05 -14.34,-83.1 2.96,-17.75 9.74,-36.9 22.28,-54.03 12.53,-16.93 29.89,-32.67 51.82,-41.99 10.78,-4.96 22.65,-8.21 34.96,-9.74 12.3,-1.72 25.14,-1.52 37.82,0.82 25.52,4.1 50.23,17.14 69.42,36.64 18.81,19.87 30.96,45.01 34.16,70.66 1.89,12.75 1.63,25.59 -0.52,37.81 -1.95,12.25 -5.61,24 -10.96,34.6 -10.07,21.58 -26.42,38.37 -43.78,50.31 -17.54,11.93 -36.93,18.02 -54.77,20.37 -36.22,4.5 -65.39,-6.87 -82.55,-17.26 -17.46,-10.63 -25.08,-19.44 -25.69,-18.76"
         style="fill:#dadbd8;fill-opacity:1;fill-rule:nonzero;stroke:none"
         id="path18" /><path
         d="m 3989.42,4071.49 c 0,-0.11 -1.35,0.61 -4.03,2.13 -2.95,1.7 -6.88,3.97 -11.99,6.92 -10.93,6.46 -26.67,15.76 -47.12,27.83 l 1.47,0.2 c -21.39,-22.42 -49.52,-51.89 -83.54,-87.54 l 0.22,2.34 c 12.22,-18.48 25.8,-39.01 40.33,-60.98 l 0.73,-1.1 -0.65,-1.17 c -11.88,-21.52 -21.86,-46.03 -28.41,-72.92 l -0.35,-1.43 -1.44,-0.36 c -22.13,-5.5 -46.08,-11.44 -71,-17.62 l 2.02,2.61 c 0.77,-38.09 1.57,-78.52 2.41,-120.97 l -2.33,2.81 c 22.17,-4.57 46.59,-9.6 71.62,-14.76 l 1.83,-0.38 0.51,-1.79 c 6.66,-23.35 17.04,-48.19 31.23,-71.53 l 1.01,-1.66 -1.01,-1.67 c -11.72,-19.4 -24.64,-40.79 -37.8,-62.57 l -0.54,4.11 c 27.37,-26.37 56.9,-54.8 87.16,-83.95 l -4.31,0.41 c 19.03,12.5 39.94,26.23 61.11,40.14 l 1.79,1.17 1.88,-1.04 c 21.33,-11.89 46.26,-22.05 72.53,-28.47 l 2.12,-0.52 0.52,-2.12 c 5.47,-22.25 11.44,-46.52 17.46,-71.03 l -3.6,2.78 c 38.31,0.69 79.36,1.43 120.98,2.17 l -3.55,-2.94 c 4.71,22.62 9.78,47.02 14.89,71.61 l 0.45,2.21 2.17,0.61 c 23.83,6.74 48.51,17.15 71.38,31.01 l 0.07,0.04 1.95,1.15 1.9,-1.15 c 20.99,-12.73 41.85,-25.38 62.51,-37.91 l -4.6,-0.6 c 28.41,29.41 56.45,58.43 84.08,87.03 l -0.44,-4.57 c -13.48,20.59 -26.83,40.98 -40.05,61.16 l -1.21,1.86 1.08,1.92 c 12.84,23.02 22.39,47.51 28.56,72.5 l 0.53,2.11 2.12,0.52 c 24.02,5.88 47.69,11.65 71.05,17.36 l -2.7,-3.5 c -0.68,41.3 -1.35,81.65 -2,120.98 l 2.72,-3.29 c -24.28,5.09 -48.14,10.09 -71.59,15 l -1.98,0.41 -0.54,1.94 c -7.25,25.65 -17.83,49.75 -30.98,71.6 l -1.02,1.68 1.02,1.66 c 13.02,21.41 25.66,42.18 37.99,62.45 l 0.5,-3.84 c -30.56,29.64 -59.41,57.61 -86.88,84.23 l 3.54,-0.33 c -21.54,-14.04 -41.75,-27.22 -61.24,-39.92 l -1.37,-0.89 -1.4,0.78 c -24.37,13.63 -48.8,22.85 -72.7,28.84 l -1.44,0.36 -0.34,1.43 c -6.24,25.84 -11.87,49.11 -17.18,71.1 l 2.18,-1.68 c -46.88,-0.62 -86.81,-1.14 -121,-1.58 l 1.6,1.32 c -6.14,-28.56 -11.17,-51.99 -15.36,-71.52 l -0.16,-0.71 -0.69,-0.2 c -25.61,-7.14 -43.61,-15.5 -55.32,-21.28 -5.6,-2.92 -9.88,-5.15 -13.02,-6.79 -2.95,-1.62 -4.34,-2.32 -4.34,-2.21 0,0.09 1.38,1.04 4.04,2.74 2.76,1.7 6.95,4.26 12.75,7.36 11.57,6.15 29.52,14.92 55.24,22.49 l -0.84,-0.9 c 3.93,19.56 8.67,43.06 14.43,71.7 l 0.26,1.3 1.35,0.03 c 34.18,0.75 74.11,1.63 120.98,2.65 l 1.75,0.04 0.43,-1.72 c 5.45,-21.94 11.23,-45.18 17.64,-70.97 l -1.79,1.79 c 24.33,-5.94 49.25,-15.17 74.14,-28.92 l -2.77,-0.1 c 19.44,12.81 39.58,26.07 61.05,40.23 l 1.89,1.25 1.65,-1.59 c 27.57,-26.51 56.54,-54.37 87.23,-83.87 l 1.78,-1.71 -1.29,-2.13 c -12.27,-20.31 -24.84,-41.11 -37.8,-62.56 l 0.01,3.33 c 13.52,-22.3 24.41,-46.91 31.89,-73.12 l -2.52,2.35 c 23.45,-4.85 47.31,-9.78 71.62,-14.81 l 2.68,-0.55 0.04,-2.75 c 0.74,-39.33 1.48,-79.67 2.25,-120.98 l 0.06,-2.83 -2.75,-0.67 c -23.36,-5.75 -47.02,-11.57 -71.03,-17.47 l 2.64,2.63 c -6.29,-25.6 -16.05,-50.71 -29.19,-74.32 l -0.14,3.78 c 13.23,-20.18 26.6,-40.56 40.1,-61.13 l 1.62,-2.46 -2.04,-2.12 c -27.62,-28.62 -55.64,-57.66 -84.03,-87.08 l -2.06,-2.14 -2.54,1.54 c -20.67,12.53 -41.53,25.18 -62.51,37.9 h 3.84 l -0.07,-0.04 c -23.45,-14.21 -48.76,-24.89 -73.19,-31.79 l 2.62,2.81 c -5.12,-24.57 -10.21,-48.98 -14.91,-71.6 l -0.61,-2.89 -2.96,-0.06 c -41.62,-0.7 -82.67,-1.41 -120.98,-2.06 l -2.91,-0.05 -0.7,2.83 c -5.99,24.51 -11.93,48.79 -17.37,71.04 l 2.64,-2.63 c -26.91,6.61 -52.44,17.06 -74.26,29.29 l 3.65,0.13 c -21.2,-13.88 -42.13,-27.56 -61.19,-40.03 l -2.33,-1.51 -1.98,1.92 c -30.18,29.21 -59.64,57.73 -86.95,84.15 l -1.91,1.85 1.38,2.26 c 13.22,21.75 26.21,43.1 37.99,62.45 v -3.32 c -14.43,23.9 -24.95,49.31 -31.65,73.18 l 2.33,-2.16 c -25.02,5.25 -49.42,10.38 -71.58,15.04 l -2.29,0.48 -0.04,2.33 c -0.66,42.46 -1.27,82.89 -1.85,121 l -0.03,2.12 2.05,0.5 c 24.95,6.04 48.94,11.85 71.09,17.21 l -1.79,-1.78 c 6.83,27.3 17.13,52.12 29.35,73.87 l 0.07,-2.25 c -14.34,22.09 -27.76,42.73 -39.83,61.31 l -0.82,1.27 1.04,1.07 c 34.44,35.26 62.91,64.41 84.56,86.58 l 0.67,0.69 0.8,-0.5 c 19.98,-12.43 35.36,-22.01 46.05,-28.66 5.04,-3.2 8.94,-5.67 11.84,-7.52 2.66,-1.72 4.01,-2.64 4.01,-2.74"
         style="fill:#dadbd8;fill-opacity:1;fill-rule:nonzero;stroke:none"
         id="path20" /><path
         d="m 3500.09,4219.89 c -29.81,-30.87 -28.95,-80.07 1.93,-109.88 30.88,-29.81 80.07,-28.94 109.88,1.94 29.8,30.87 28.94,80.07 -1.93,109.87 -30.88,29.81 -80.07,28.95 -109.88,-1.93 z m -38.61,96.48 c 13.7,8.27 28.28,14.55 43.32,18.82 l 8.91,42.87 72.42,1.27 10.43,-42.52 c 15.18,-3.74 29.97,-9.5 43.95,-17.29 l 36.6,23.99 52.11,-50.31 -22.69,-37.42 c 8.29,-13.7 14.55,-28.28 18.82,-43.32 l 42.86,-8.92 1.28,-72.42 -42.53,-10.43 c -3.74,-15.17 -9.49,-29.96 -17.28,-43.94 l 23.98,-36.61 -50.3,-52.11 -37.42,22.7 c -13.7,-8.28 -28.28,-14.55 -43.32,-18.83 l -8.92,-42.86 -72.42,-1.27 -10.43,42.52 c -15.18,3.74 -29.96,9.5 -43.94,17.29 l -36.61,-23.99 -52.11,50.31 22.69,37.42 c -8.27,13.7 -14.55,28.27 -18.82,43.31 l -42.86,8.92 -1.28,72.43 42.53,10.42 c 3.74,15.18 9.5,29.97 17.28,43.94 l -23.98,36.61 50.3,52.11 37.43,-22.69"
         style="fill:#f3f2f1;fill-opacity:1;fill-rule:nonzero;stroke:none"
         id="path22" /><path
         d="m 3500.09,4219.89 c 0,0 4.07,5.73 14.47,12.7 10.22,6.8 28.06,14.37 50.69,11.98 11.15,-1.25 23.34,-4.89 34.46,-12.24 10.99,-7.35 21.37,-17.81 27.86,-31.39 3.42,-6.67 5.79,-14.08 7.07,-21.81 1.4,-7.72 1.6,-15.84 0.44,-23.92 -1.97,-16.24 -9.64,-32.23 -21.57,-44.8 -12.14,-12.37 -27.86,-20.61 -44.03,-23.15 -8.03,-1.45 -16.16,-1.53 -23.92,-0.41 -7.78,1.02 -15.27,3.12 -22.05,6.3 -13.8,6.01 -24.62,16.02 -32.36,26.75 -7.74,10.85 -11.79,22.91 -13.43,34 -3.19,22.54 3.76,40.64 10.19,51.09 6.6,10.64 12.18,14.9 12.18,14.9 0.42,-0.35 -4.69,-5.1 -10.68,-15.76 -5.84,-10.49 -12.04,-28.17 -8.59,-49.75 1.78,-10.63 5.83,-22.09 13.34,-32.34 7.51,-10.14 17.89,-19.56 31.03,-25.14 6.45,-2.97 13.55,-4.92 20.92,-5.83 7.36,-1.02 15.05,-0.91 22.64,0.49 15.27,2.46 30.07,10.26 41.55,21.94 11.26,11.89 18.54,26.94 20.45,42.29 1.14,7.64 0.98,15.32 -0.31,22.64 -1.17,7.33 -3.36,14.36 -6.55,20.71 -6.04,12.92 -15.82,22.97 -26.21,30.11 -10.51,7.14 -22.11,10.79 -32.79,12.19 -21.69,2.7 -39.15,-4.1 -49.41,-10.32 -10.46,-6.36 -15.02,-11.64 -15.39,-11.23"
         style="fill:#f3f2f1;fill-opacity:1;fill-rule:nonzero;stroke:none"
         id="path24" /><path
         d="m 3461.48,4316.38 c 0,-0.07 -0.81,0.35 -2.42,1.27 -1.75,1.01 -4.11,2.38 -7.16,4.14 -6.55,3.87 -15.97,9.44 -28.22,16.66 l 0.89,0.12 c -12.81,-13.42 -29.65,-31.06 -50.01,-52.41 l 0.13,1.41 c 7.31,-11.06 15.45,-23.36 24.14,-36.51 l 0.44,-0.65 -0.39,-0.7 c -7.11,-12.89 -13.09,-27.55 -17,-43.65 l -0.22,-0.86 -0.86,-0.22 c -13.25,-3.28 -27.59,-6.84 -42.5,-10.54 l 1.21,1.56 c 0.45,-22.8 0.93,-47 1.44,-72.41 l -1.4,1.68 c 13.28,-2.73 27.9,-5.75 42.88,-8.84 l 1.1,-0.22 0.3,-1.08 c 3.98,-13.97 10.2,-28.84 18.69,-42.82 l 0.61,-0.99 -0.61,-1 c -7.01,-11.61 -14.75,-24.41 -22.63,-37.45 l -0.32,2.46 c 16.39,-15.79 34.06,-32.8 52.18,-50.25 l -2.58,0.24 c 11.4,7.48 23.91,15.7 36.58,24.03 l 1.07,0.7 1.12,-0.62 c 12.77,-7.12 27.71,-13.2 43.43,-17.04 l 1.26,-0.31 0.31,-1.28 c 3.27,-13.31 6.85,-27.84 10.46,-42.51 l -2.16,1.66 c 22.93,0.41 47.5,0.85 72.42,1.3 l -2.13,-1.76 c 2.82,13.54 5.85,28.15 8.92,42.86 l 0.27,1.33 1.29,0.36 c 14.27,4.04 29.05,10.27 42.74,18.57 l 0.04,0.02 1.16,0.69 1.14,-0.69 c 12.57,-7.62 25.05,-15.19 37.42,-22.7 l -2.75,-0.35 c 17,17.6 33.79,34.98 50.32,52.1 l -0.26,-2.74 c -8.07,12.32 -16.06,24.53 -23.97,36.61 l -0.73,1.11 0.64,1.16 c 7.7,13.77 13.41,28.43 17.11,43.39 l 0.32,1.27 1.27,0.31 c 14.37,3.51 28.54,6.97 42.52,10.39 l -1.62,-2.1 c -0.4,24.72 -0.8,48.88 -1.2,72.42 l 1.63,-1.96 c -14.53,3.04 -28.81,6.03 -42.84,8.97 l -1.19,0.25 -0.32,1.16 c -4.35,15.35 -10.68,29.78 -18.56,42.86 l -0.6,1.01 0.6,0.99 c 7.81,12.82 15.37,25.24 22.76,37.38 l 0.29,-2.3 c -18.29,17.74 -35.57,34.48 -52,50.42 l 2.12,-0.2 c -12.9,-8.4 -24.99,-16.29 -36.66,-23.89 l -0.82,-0.54 -0.84,0.47 c -14.59,8.17 -29.21,13.68 -43.52,17.27 l -0.86,0.21 -0.21,0.86 c -3.73,15.47 -7.1,29.4 -10.29,42.56 l 1.31,-1.01 c -28.05,-0.37 -51.96,-0.68 -72.43,-0.95 l 0.96,0.8 c -3.67,-17.1 -6.68,-31.13 -9.19,-42.81 l -0.1,-0.43 -0.41,-0.12 c -15.33,-4.27 -26.11,-9.28 -33.12,-12.73 -3.35,-1.75 -5.91,-3.09 -7.79,-4.08 -1.76,-0.96 -2.6,-1.38 -2.6,-1.31 0,0.05 0.83,0.62 2.42,1.64 1.66,1.02 4.16,2.54 7.63,4.39 6.93,3.69 17.68,8.94 33.06,13.47 l -0.5,-0.54 c 2.37,11.71 5.19,25.78 8.64,42.93 l 0.16,0.77 0.8,0.02 c 20.47,0.44 44.37,0.97 72.42,1.59 l 1.05,0.02 0.26,-1.03 c 3.26,-13.13 6.72,-27.05 10.56,-42.48 l -1.07,1.07 c 14.57,-3.55 29.48,-9.08 44.37,-17.32 l -1.65,-0.05 c 11.63,7.66 23.69,15.61 36.54,24.08 l 1.14,0.75 0.98,-0.96 c 16.52,-15.87 33.85,-32.54 52.22,-50.2 l 1.06,-1.03 -0.77,-1.27 c -7.34,-12.15 -14.86,-24.6 -22.62,-37.45 v 1.99 c 8.09,-13.34 14.61,-28.07 19.1,-43.76 l -1.52,1.41 c 14.04,-2.91 28.32,-5.86 42.87,-8.87 l 1.6,-0.33 0.03,-1.64 c 0.44,-23.55 0.89,-47.7 1.35,-72.42 l 0.03,-1.7 -1.65,-0.41 c -13.97,-3.43 -28.13,-6.91 -42.51,-10.45 l 1.57,1.58 c -3.76,-15.33 -9.6,-30.36 -17.47,-44.49 l -0.08,2.26 c 7.92,-12.08 15.93,-24.27 24.01,-36.59 l 0.97,-1.47 -1.23,-1.27 c -16.53,-17.13 -33.3,-34.52 -50.29,-52.13 l -1.24,-1.28 -1.51,0.93 c -12.38,7.49 -24.87,15.06 -37.42,22.68 h 2.3 l -0.05,-0.03 c -14.04,-8.5 -29.19,-14.9 -43.81,-19.03 l 1.57,1.69 c -3.07,-14.72 -6.11,-29.33 -8.93,-42.86 l -0.36,-1.74 -1.77,-0.03 c -24.91,-0.42 -49.49,-0.84 -72.43,-1.24 l -1.74,-0.03 -0.41,1.7 c -3.59,14.68 -7.15,29.21 -10.4,42.53 l 1.57,-1.58 c -16.1,3.96 -31.38,10.21 -44.45,17.53 l 2.19,0.08 c -12.69,-8.3 -25.22,-16.5 -36.62,-23.96 l -1.4,-0.9 -1.18,1.15 c -18.08,17.48 -35.71,34.55 -52.05,50.37 l -1.15,1.11 0.82,1.35 c 7.92,13.02 15.7,25.8 22.75,37.38 v -1.99 c -8.64,14.32 -14.94,29.53 -18.95,43.81 l 1.4,-1.29 c -14.98,3.14 -29.59,6.21 -42.85,9 l -1.38,0.29 -0.02,1.39 c -0.39,25.42 -0.76,49.62 -1.1,72.43 l -0.02,1.27 1.23,0.3 c 14.93,3.62 29.29,7.1 42.55,10.3 l -1.07,-1.07 c 4.09,16.35 10.25,31.21 17.56,44.23 l 0.05,-1.35 c -8.58,13.22 -16.61,25.58 -23.84,36.7 l -0.49,0.76 0.62,0.65 c 20.62,21.1 37.66,38.55 50.62,51.81 l 0.4,0.42 0.47,-0.3 c 11.97,-7.44 21.18,-13.17 27.57,-17.15 3.02,-1.92 5.35,-3.4 7.09,-4.5 1.59,-1.03 2.4,-1.59 2.4,-1.64"
         style="fill:#f3f2f1;fill-opacity:1;fill-rule:nonzero;stroke:none"
         id="path26" /><path
         d="m 212.336,1989.83 h 1309.14 V 4156.85 H 212.336 Z"
         style="fill:#dadbd8;fill-opacity:1;fill-rule:nonzero;stroke:none"
         id="path28" /><path
         d="m 168.797,1989.83 h 1309.14 V 4156.85 H 168.797 Z"
         style="fill:#e7e8e5;fill-opacity:1;fill-rule:nonzero;stroke:none"
         id="path30" /><path
         d="m 224.543,2033.78 h 1197.65 V 4112.9 H 224.543 Z"
         style="fill:#fafaf9;fill-opacity:1;fill-rule:nonzero;stroke:none"
         id="path32" /><path
         d="M 1189,2303.94 H 452.547 v 1538.8 H 1189 v -1538.8"
         style="fill:#e7e8e5;fill-opacity:1;fill-rule:nonzero;stroke:none"
         id="path34" /><path
         d="m 452.547,2848.47 c -1.707,143.74 127.543,284.07 269.887,304.14 67.875,9.57 139.996,-3.9 203.418,22.11 113.198,46.42 149.218,196.83 263.148,241.44 l 5.2,-1112.22 H 452.547 v 544.53"
         style="fill:#dadbd8;fill-opacity:1;fill-rule:nonzero;stroke:none"
         id="path36" /><path
         d="m 3366.92,369.531 c -32.75,-33.929 -31.79,-87.972 2.13,-120.722 33.92,-32.758 87.97,-31.797 120.73,2.121 32.74,33.922 31.79,87.968 -2.13,120.73 -33.92,32.738 -87.97,31.789 -120.73,-2.129 z m -42.42,106 c 15.05,9.11 31.07,15.989 47.59,20.688 l 9.81,47.101 79.57,1.391 11.45,-46.711 c 16.68,-4.121 32.93,-10.441 48.28,-19 l 40.23,26.359 57.25,-55.277 -24.93,-41.121 c 9.1,-15.051 15.99,-31.07 20.68,-47.602 l 47.09,-9.789 1.4,-79.582 -46.72,-11.457 c -4.11,-16.672 -10.44,-32.922 -18.99,-48.269 l 26.36,-40.223 -55.28,-57.258 -41.12,24.93 c -15.05,-9.102 -31.07,-15.981 -47.59,-20.68 l -9.8,-47.1013 -79.57,-1.3984 -11.46,46.7307 c -16.68,4.109 -32.92,10.437 -48.28,19 l -40.22,-26.371 -57.26,55.281 24.93,41.129 c -9.09,15.039 -15.99,31.058 -20.68,47.578 l -47.09,9.801 -1.4,79.582 46.72,11.449 c 4.11,16.668 10.44,32.918 18.99,48.289 l -26.35,40.211 55.27,57.258 41.12,-24.938"
         style="fill:#f3f2f1;fill-opacity:1;fill-rule:nonzero;stroke:none"
         id="path38" /><path
         d="m 4473.81,2.60938 c 0,0 4.72,0.1914 14.31,0.28906 9.69,0.0625 24.13,0.15234 43.55,0.27344 V 2.03906 C 4306.67,0.878906 3390.33,0.0117188 2294.87,0.0117188 1661.1,0.300781 1087.44,0.570313 672.086,0.769531 464.512,1.12109 296.527,1.39063 180.316,1.58984 122.328,1.80078 77.2852,1.96875 46.6172,2.08984 31.4063,2.19141 19.7852,2.28125 11.8477,2.33984 4.01563,2.42969 0,2.60938 0,2.60938 c 0,0 4.01563,0.17968 11.8477,0.26953 7.9375,0.0625 19.5586,0.13281 34.7695,0.25 30.668,0.12109 75.7108,0.28125 133.6988,0.49218 116.211,0.19922 284.196,0.48047 491.77,0.82813 415.354,0.19922 989.014,0.46094 1622.784,0.76172 1095.46,0 2011.8,-0.8711 2236.8,-2.03906 V 2.03906 c -19.42,0.13282 -33.86,0.21094 -43.55,0.28125 -9.59,0.08985 -14.31,0.28907 -14.31,0.28907"
         style="fill:#17282f;fill-opacity:1;fill-rule:nonzero;stroke:none"
         id="path40" /><path
         d="m 1858.39,725.539 h 2241.34 v 3162.52 H 1858.39 Z"
         style="fill:#ffffff;fill-opacity:1;fill-rule:nonzero;stroke:none"
         id="path42" /><path
         d="m 4099.73,725.539 c -0.02,21.031 -0.98,1294.221 -2.38,3162.511 l 2.38,-2.36 c -677.79,-0.07 -1439.05,-0.15 -2241.08,-0.24 h -0.26 l 2.6,2.6 c -0.18,-1185.11 -0.35,-2280.99 -0.49,-3162.511 l -2.11,2.109 c 1361.37,-1.277 2223.99,-2.097 2241.34,-2.109 -17.34,-0.008 -879.97,-0.828 -2241.34,-2.098 h -2.11 v 2.098 c -0.14,881.521 -0.31,1977.401 -0.49,3162.511 v 2.61 h 2.6 0.26 c 802.03,-0.08 1563.29,-0.16 2241.08,-0.23 h 2.36 v -2.38 c -1.4,-1868.29 -2.35,-3141.491 -2.36,-3162.511"
         style="fill:#17282f;fill-opacity:1;fill-rule:nonzero;stroke:none"
         id="path44" /><path
         d="m 2899.31,1568.96 h -823.06 c -36.93,0 -66.87,29.94 -66.87,66.88 v 85.62 c 0,36.94 29.94,66.88 66.87,66.88 h 823.06 c 36.93,0 66.87,-29.94 66.87,-66.88 v -85.62 c 0,-36.94 -29.94,-66.88 -66.87,-66.88"
         style="fill:#f3f2f1;fill-opacity:1;fill-rule:nonzero;stroke:none"
         id="path46" /><path
         d="M 3897.63,1568.96 H 3095.8 c -36.94,0 -66.88,29.94 -66.88,66.88 v 85.62 c 0,36.94 29.94,66.88 66.88,66.88 h 801.83 c 36.93,0 66.87,-29.94 66.87,-66.88 v -85.62 c 0,-36.94 -29.94,-66.88 -66.87,-66.88"
         style="fill:#f3f2f1;fill-opacity:1;fill-rule:nonzero;stroke:none"
         id="path48" /><path
         d="M 3910.88,1119.29 H 2071.73 c -36.94,0 -66.88,29.95 -66.88,66.88 v 85.62 c 0,36.94 29.94,66.88 66.88,66.88 h 1839.15 c 36.93,0 66.87,-29.94 66.87,-66.88 v -85.62 c 0,-36.93 -29.94,-66.88 -66.87,-66.88"
         style="fill:#f3f2f1;fill-opacity:1;fill-rule:nonzero;stroke:none"
         id="path50" /><path
         d="m 2448.67,1876.61 c 0,-1.45 -92.47,-2.61 -206.52,-2.61 -114.09,0 -206.54,1.16 -206.54,2.61 0,1.43 92.45,2.6 206.54,2.6 114.05,0 206.52,-1.17 206.52,-2.6"
         style="fill:#17282f;fill-opacity:1;fill-rule:nonzero;stroke:none"
         id="path52" /><path
         d="m 3425.83,1876.61 c 0,-1.45 -72.81,-2.61 -162.62,-2.61 -89.83,0 -162.62,1.16 -162.62,2.61 0,1.43 72.79,2.6 162.62,2.6 89.81,0 162.62,-1.17 162.62,-2.6"
         style="fill:#17282f;fill-opacity:1;fill-rule:nonzero;stroke:none"
         id="path54" /><path
         d="m 2710.82,1429.22 c 0,-1.45 -150,-2.61 -334.99,-2.61 -185.06,0 -335.03,1.16 -335.03,2.61 0,1.43 149.97,2.59 335.03,2.59 184.99,0 334.99,-1.16 334.99,-2.59"
         style="fill:#17282f;fill-opacity:1;fill-rule:nonzero;stroke:none"
         id="path56" /><path
         d="M 3912.68,2046.56 H 2034.71 c -35.94,0 -65.09,29.14 -65.09,65.08 v 109.65 c 0,35.94 29.15,65.08 65.09,65.08 h 1877.97 c 35.94,0 65.07,-29.14 65.07,-65.08 v -109.65 c 0,-35.94 -29.13,-65.08 -65.07,-65.08"
         style="fill:#dadbd8;fill-opacity:1;fill-rule:nonzero;stroke:none"
         id="path58" /><path
         d="m 3401.43,2166.46 c 0,-1.43 -178.18,-2.6 -397.91,-2.6 -219.81,0 -397.94,1.17 -397.94,2.6 0,1.44 178.13,2.61 397.94,2.61 219.73,0 397.91,-1.17 397.91,-2.61"
         style="fill:#17282f;fill-opacity:1;fill-rule:nonzero;stroke:none"
         id="path60" /><path
         d="M 3912.68,3504.63 H 2034.71 c -35.94,0 -65.09,29.14 -65.09,65.08 v 109.65 c 0,35.94 29.15,65.09 65.09,65.09 h 1877.97 c 35.94,0 65.07,-29.15 65.07,-65.09 v -109.65 c 0,-35.94 -29.13,-65.08 -65.07,-65.08"
         style="fill:#dadbd8;fill-opacity:1;fill-rule:nonzero;stroke:none"
         id="path62" /><path
         d="m 3401.43,3624.54 c 0,-1.44 -178.18,-2.6 -397.91,-2.6 -219.81,0 -397.94,1.16 -397.94,2.6 0,1.44 178.13,2.6 397.94,2.6 219.73,0 397.91,-1.16 397.91,-2.6"
         style="fill:#17282f;fill-opacity:1;fill-rule:nonzero;stroke:none"
         id="path64" /><path
         d="m 4099.73,3446.56 c 0,-1.43 -502.24,-2.6 -1121.62,-2.6 -619.61,0 -1121.73,1.17 -1121.73,2.6 0,1.44 502.12,2.61 1121.73,2.61 619.38,0 1121.62,-1.17 1121.62,-2.61"
         style="fill:#e7e8e5;fill-opacity:1;fill-rule:nonzero;stroke:none"
         id="path66" /><path
         d="m 4099.73,2385.69 c 0,-1.44 -502.24,-2.61 -1121.62,-2.61 -619.61,0 -1121.73,1.17 -1121.73,2.61 0,1.43 502.12,2.6 1121.73,2.6 619.38,0 1121.62,-1.17 1121.62,-2.6"
         style="fill:#e7e8e5;fill-opacity:1;fill-rule:nonzero;stroke:none"
         id="path68" /><path
         d="m 2899.31,2986.77 h -823.06 c -36.93,0 -66.87,29.94 -66.87,66.88 v 85.62 c 0,36.93 29.94,66.88 66.87,66.88 h 823.06 c 36.93,0 66.87,-29.95 66.87,-66.88 v -85.62 c 0,-36.94 -29.94,-66.88 -66.87,-66.88"
         style="fill:#f3f2f1;fill-opacity:1;fill-rule:nonzero;stroke:none"
         id="path70" /><path
         d="M 3897.63,2986.77 H 3095.8 c -36.94,0 -66.88,29.94 -66.88,66.88 v 85.62 c 0,36.93 29.94,66.88 66.88,66.88 h 801.83 c 36.93,0 66.87,-29.95 66.87,-66.88 v -85.62 c 0,-36.94 -29.94,-66.88 -66.87,-66.88"
         style="fill:#f3f2f1;fill-opacity:1;fill-rule:nonzero;stroke:none"
         id="path72" /><path
         d="M 3910.88,2537.1 H 2071.73 c -36.94,0 -66.88,29.94 -66.88,66.87 v 85.63 c 0,36.93 29.94,66.87 66.88,66.87 h 1839.15 c 36.93,0 66.87,-29.94 66.87,-66.87 v -85.63 c 0,-36.93 -29.94,-66.87 -66.87,-66.87"
         style="fill:#f3f2f1;fill-opacity:1;fill-rule:nonzero;stroke:none"
         id="path74" /><path
         d="m 2448.67,3294.41 c 0,-1.44 -92.47,-2.6 -206.52,-2.6 -114.09,0 -206.54,1.16 -206.54,2.6 0,1.44 92.45,2.6 206.54,2.6 114.05,0 206.52,-1.16 206.52,-2.6"
         style="fill:#17282f;fill-opacity:1;fill-rule:nonzero;stroke:none"
         id="path76" /><path
         d="m 3425.83,3294.41 c 0,-1.44 -72.81,-2.6 -162.62,-2.6 -89.83,0 -162.62,1.16 -162.62,2.6 0,1.44 72.79,2.6 162.62,2.6 89.81,0 162.62,-1.16 162.62,-2.6"
         style="fill:#17282f;fill-opacity:1;fill-rule:nonzero;stroke:none"
         id="path78" /><path
         d="m 2710.82,2847.02 c 0,-1.44 -150,-2.61 -334.99,-2.61 -185.06,0 -335.03,1.17 -335.03,2.61 0,1.43 149.97,2.6 335.03,2.6 184.99,0 334.99,-1.17 334.99,-2.6"
         style="fill:#17282f;fill-opacity:1;fill-rule:nonzero;stroke:none"
         id="path80" /><path
         d="m 3908.54,985.969 c 0,-1.43 -146.31,-2.598 -326.75,-2.598 -180.51,0 -326.79,1.168 -326.79,2.598 0,1.441 146.28,2.609 326.79,2.609 180.44,0 326.75,-1.168 326.75,-2.609"
         style="fill:#17282f;fill-opacity:1;fill-rule:nonzero;stroke:none"
         id="path82" /><path
         d="m 2819.19,3073.39 c 0,0 -5.2,-1.87 -15.48,-3.88 -10.28,-1.87 -25.76,-3.9 -45.7,-2.57 -19.81,1.48 -44.31,6.1 -69.77,19.11 -6.28,3.4 -12.51,7.69 -17.75,13.43 -5.3,5.65 -9.22,13.15 -10.68,21.33 -1.44,8.1 -0.47,17.48 5.14,24.8 5.69,7.25 15.89,10.75 25.28,8.04 4.7,-1.35 8.91,-4.86 11.11,-9.38 2.26,-4.47 2.76,-9.75 1.88,-14.58 -1.73,-9.77 -7.18,-18.41 -13.82,-25.66 -13.04,-14.74 -30.27,-26.9 -50.18,-34.29 -19.84,-7.4 -42.45,-10.17 -64.8,-5.88 -11.13,2.24 -22.34,6.37 -31.68,13.93 -9.14,7.38 -16.71,18.95 -15.41,32.05 0.62,6.33 3.12,12.34 6.91,17.44 3.77,5.04 8.99,9.55 15.75,11 6.75,1.73 14.16,-1.16 18.71,-6.16 4.64,-5.12 6.6,-11.95 6.71,-18.47 0.16,-6.58 -1.41,-13.18 -4.61,-19.04 -3.31,-5.95 -8.17,-10.55 -13.58,-14.26 -10.93,-7.41 -23.62,-10.81 -35.79,-14.36 -24.29,-6.9 -50.84,-14.33 -77.84,-8.27 -13.17,3.12 -26.01,9.39 -35.8,19.42 -9.72,9.84 -16.36,23.76 -15.51,38.24 0.37,8.87 3.74,18.14 10.82,24.29 7.49,6.19 18.1,6.83 26.39,2.81 4.15,-2 7.99,-5.27 9.97,-9.7 2,-4.41 2.36,-9.33 1.2,-13.82 -2.36,-9.13 -9.04,-15.52 -15.62,-20.6 -27.38,-18.98 -58.58,-30.28 -90.01,-34.22 -15.58,-1.95 -32.05,-2.13 -46.87,4.11 -14.7,6.18 -26.46,19.49 -28.82,35.32 -2.51,15.91 8.1,32.6 23.83,35.97 7.87,1.61 16.48,-1.57 21.34,-7.66 5.07,-5.94 7.19,-13.53 7.5,-20.78 0.38,-7.31 -1.23,-14.62 -4.57,-21.08 -3.61,-6.36 -8.59,-11.44 -14.21,-15.53 -11.32,-8.11 -24.31,-12.09 -36.69,-15.37 -24.52,-6.52 -50.35,-11.07 -73.2,-2.65 -11.18,4.2 -20.92,11.28 -27.82,20.27 -6.83,8.98 -10.83,20 -9.86,30.83 1.04,10.71 6.11,20.36 13.36,27.16 7.2,6.81 17.47,10.33 26.69,7.98 l 1.07,-0.27 0.04,-1.08 c 0.69,-21.98 -8.57,-40.66 -19.61,-53.18 -11.01,-12.88 -24.11,-20.09 -35.04,-23.88 -11.11,-3.75 -20.28,-3.76 -26.26,-3.36 -5.97,0.84 -8.98,1.69 -8.98,1.69 -0.13,0.98 12.77,-4.39 34.73,3.14 10.62,3.94 23.28,11.19 33.82,23.89 10.6,12.33 19.29,30.54 18.42,51.56 l 1.11,-1.34 c -8.14,1.96 -17.21,-1.15 -23.83,-7.47 -6.61,-6.3 -11.26,-15.36 -12.11,-25.12 -1.54,-19.99 14.57,-39.7 35.61,-47.2 21.49,-7.81 46.46,-3.48 70.77,3.14 12.22,3.28 24.73,7.26 35.18,14.84 5.15,3.75 9.75,8.57 12.85,14.08 2.87,5.64 4.33,12.21 3.95,18.74 -0.27,6.48 -2.27,13.14 -6.44,17.96 -4.01,4.95 -10.7,7.3 -16.91,6.05 -12.75,-2.64 -22.3,-17.18 -19.94,-30.65 2.04,-13.73 12.65,-25.93 25.94,-31.44 13.53,-5.68 29.13,-5.61 44.33,-3.66 30.53,3.83 61.25,15.09 87.51,33.33 6.17,4.69 11.96,10.61 13.7,17.71 1.92,7.12 -1.48,14.64 -8.37,17.61 -6.58,3.24 -15.26,2.56 -20.76,-2.08 -5.7,-4.94 -8.7,-12.72 -9.02,-20.6 -0.76,-12.81 5.12,-25.27 14.03,-34.34 8.94,-9.19 20.92,-15.08 33.28,-18.02 25.19,-5.73 51.02,1.24 75.24,8.14 12.22,3.51 24.41,6.87 34.36,13.62 4.89,3.31 9.31,7.58 12.04,12.51 2.75,4.99 4.15,10.83 4.01,16.51 -0.06,5.66 -1.8,11.32 -5.37,15.25 -3.58,3.85 -8.99,6.01 -14.04,4.71 -10.31,-2.46 -17.81,-13.67 -18.91,-24.16 -1.21,-10.7 5.27,-21.22 13.6,-27.91 8.47,-6.93 19.05,-10.93 29.58,-13.07 21.4,-4.19 43.23,-1.64 62.43,5.43 19.27,7.05 36,18.74 48.68,32.91 6.4,6.87 11.46,15.01 13.02,23.62 1.78,8.44 -2.3,17.67 -10.28,19.81 -7.68,2.34 -16.72,-0.63 -21.43,-6.69 -4.86,-6.18 -5.91,-14.61 -4.64,-22.06 2.48,-15.53 14.61,-26.28 26.57,-32.78 24.76,-12.96 48.99,-17.89 68.52,-19.65 19.7,-1.61 35.09,0.07 45.37,1.6 5.13,0.86 9.05,1.56 11.66,2.15 2.61,0.54 3.97,0.78 4,0.69"
         style="fill:#f2575d;fill-opacity:1;fill-rule:nonzero;stroke:none"
         id="path84" /><path
         d="m 3797.52,3085.31 c 0,0 -3.99,-2.82 -12.57,-6.25 -8.51,-3.42 -21.75,-7.64 -39.37,-8.26 -17.46,-0.59 -39.63,2.43 -61.8,14.45 -10.86,6.01 -22.46,13.86 -30.09,26.43 -3.65,6.26 -6.23,13.71 -5.39,21.73 0.98,7.8 4.84,15.53 11.61,20.62 3.37,2.49 7.67,4.17 12.18,4.03 4.49,-0.08 8.84,-2.13 12.12,-5.17 6.44,-6.3 9.15,-15.63 8.11,-24.64 -1.24,-9.11 -6.25,-17.24 -12.55,-23.79 -6.37,-6.59 -13.89,-11.92 -21.89,-16.69 -16.06,-9.44 -34.78,-15.79 -54.62,-17.48 -19.67,-1.54 -41.03,0.6 -59.73,11.14 -9.24,5.17 -17.79,12.59 -23.16,22.4 -2.64,4.91 -4.66,10.11 -5.3,15.95 -0.51,5.76 0.45,11.55 2.46,16.91 4.03,10.59 12.16,20.28 23.82,24.03 5.77,1.83 12.58,1.32 17.97,-1.8 5.54,-2.85 9.54,-7.98 12.05,-13.45 4.86,-11.08 4.15,-24.28 -1.33,-35.02 -5.33,-10.86 -14.22,-19.35 -23.81,-26.2 -19.38,-13.65 -42.89,-21.76 -67.12,-23.21 -24.24,-1.38 -48.5,3.9 -69.44,14.93 -10.43,5.54 -20.21,12.33 -28.24,21.04 -7.95,8.6 -14.14,19.82 -14.02,32.12 0.4,12.26 7.7,23.9 19.26,28.51 5.76,2.32 12.92,1.42 17.96,-2.15 5.16,-3.55 8.32,-9.03 9.92,-14.59 3.47,-11.39 -0.37,-23.58 -6.75,-32.36 -6.35,-9.08 -14.65,-15.92 -23.01,-22.18 -33.98,-24.94 -76.64,-32.5 -112.97,-24.16 -18.07,4.15 -35.39,12.86 -45.82,27.44 -5.18,7.08 -8.47,15.75 -8.49,24.32 -0.23,8.54 2.01,16.82 6.03,23.92 4.11,7.02 10.58,12.84 18.46,14.72 7.83,1.96 16,-0.4 21.87,-4.88 11.69,-9.23 16.58,-23.95 14.75,-36.67 -1.92,-12.83 -9.49,-23 -17.66,-29.91 -8.34,-6.95 -17.57,-11.09 -26.13,-13.25 -17.23,-4.19 -31.06,-2.98 -40.17,-2.52 -4.37,0.39 -7.8,0.69 -10.42,0.92 -2.34,0.26 -3.54,0.44 -3.53,0.53 0,0.09 1.21,0.09 3.57,0 2.62,-0.1 6.06,-0.23 10.43,-0.4 9.09,-0.13 22.87,-0.96 39.61,3.43 8.27,2.25 17.12,6.4 25.03,13.18 7.76,6.74 14.75,16.5 16.38,28.43 1.61,11.64 -3.22,25.45 -13.83,33.61 -5.33,3.95 -12.34,5.86 -19.07,4.13 -6.72,-1.66 -12.4,-6.75 -16.11,-13.17 -7.39,-12.93 -7.69,-30.95 2.54,-44.05 9.67,-13.39 26.1,-21.68 43.5,-25.57 35.13,-7.88 76.47,-0.38 109.18,23.82 8.07,6.06 16.09,12.78 21.85,21.1 5.83,8.2 8.94,18.53 5.98,28.19 -1.37,4.74 -4.05,9.17 -7.96,11.83 -3.9,2.68 -8.92,3.33 -13.4,1.55 -9.09,-3.46 -15.74,-13.8 -15.9,-23.85 -0.11,-10.42 5.28,-20.57 12.72,-28.56 7.46,-8.09 16.86,-14.65 26.87,-19.95 20.08,-10.55 43.4,-15.63 66.71,-14.3 23.3,1.4 45.85,9.19 64.41,22.22 9.18,6.54 17.43,14.51 22.2,24.26 4.91,9.57 5.43,21.12 1.28,30.68 -3.93,9.58 -14.35,15.76 -23.92,12.49 -9.53,-2.96 -17.1,-11.59 -20.6,-20.97 -1.79,-4.72 -2.61,-9.76 -2.2,-14.66 0.5,-4.81 2.34,-9.73 4.68,-14.08 4.78,-8.81 12.58,-15.69 21.24,-20.57 17.46,-9.97 37.96,-12.18 56.97,-10.76 19.14,1.55 37.26,7.6 52.83,16.64 7.75,4.56 15.09,9.74 21.06,15.87 5.95,6.08 10.46,13.52 11.57,21.4 1,7.79 -1.47,16.15 -6.77,21.33 -5.32,5.35 -13.8,5.43 -19.48,0.97 -5.81,-4.25 -9.42,-11.22 -10.3,-18.06 -0.81,-6.85 1.43,-13.87 4.77,-19.65 6.97,-11.77 18.09,-19.59 28.64,-25.55 21.47,-11.97 43.15,-15.25 60.33,-14.97 17.35,0.29 30.5,4.14 39.05,7.21 8.62,3.09 12.78,5.61 12.95,5.27"
         style="fill:#f2575d;fill-opacity:1;fill-rule:nonzero;stroke:none"
         id="path86" /><path
         d="m 2867.87,2643.63 c 0.04,-0.08 -1.26,-0.74 -3.84,-1.94 -2.8,-1.27 -6.61,-3 -11.48,-5.21 -10.13,-4.48 -25.11,-11.04 -44.83,-18.46 -19.75,-7.26 -44.45,-15.37 -74.21,-19.74 -14.86,-2.19 -30.94,-3.29 -47.98,-2.91 -16.91,0.56 -35.3,1.25 -53.4,8.07 -17.92,6.42 -35.09,21.29 -40.56,42.25 -2.77,10.24 -1.98,22.18 3.94,31.89 5.56,9.58 15.46,17.72 27.64,18.62 12.32,0.96 23.75,-7.68 28.71,-18.53 5.32,-10.77 6.48,-23.77 2.52,-35.57 -3.82,-11.74 -11.65,-21.91 -20.94,-30.05 -9.32,-8.22 -20.03,-14.79 -31.42,-20.25 -22.59,-10.7 -49.85,-16.6 -75.92,-8.87 -25.95,7.56 -47.29,30.44 -52.74,58.13 -1.21,6.95 -1.32,14.13 -0.15,21.17 0.95,7.04 4.01,14.15 8.61,19.81 4.53,5.59 11,10.77 19.25,11.11 8.19,0.33 15.93,-5.42 18.48,-12.89 4.94,-14.87 -0.02,-30.19 -7.38,-42.51 -7.38,-12.43 -16.76,-23.84 -28.03,-33.21 -22.27,-19.01 -51.43,-29.56 -80.06,-28.45 -28.54,0.87 -56.37,11.69 -76.66,30.86 -9.87,9.67 -17.98,21.87 -20.31,35.77 -1.11,6.82 -1.14,14.13 1.34,20.83 2.41,6.64 6.54,12.46 11.72,17.04 5.14,4.6 11.61,7.87 18.63,8.77 7.04,1.13 14.46,-1.53 19.69,-6.15 10.41,-9.85 12.24,-24.96 8.94,-37.48 -3.52,-12.73 -11.84,-23.01 -20.74,-31.42 -9.05,-8.35 -18.78,-15.66 -29.08,-21.72 -20.58,-12.15 -43.07,-19.5 -65.31,-22.19 -22.23,-2.59 -44.31,-1.04 -64.17,5.75 -9.87,3.48 -19.11,8.68 -26.41,15.82 -7.4,6.99 -12.37,16.32 -14.3,25.83 -1.99,9.5 -1.39,19.5 2.6,28.08 3.83,8.56 11.95,15.27 21,16.37 8.9,1.35 17.85,-1.35 24.4,-6.7 6.61,-5.43 9.47,-14.57 7.75,-22.27 -1.48,-7.87 -6.34,-14.13 -11.54,-18.89 -5.27,-4.81 -11.15,-8.32 -16.93,-11.23 -11.59,-5.64 -22.67,-9.72 -32.85,-12.55 -20.39,-5.76 -36.92,-6.93 -47.99,-7.13 -11.11,-0.13 -16.9,0.72 -16.9,0.72 0.01,0.08 1.46,0.11 4.3,0.08 2.83,-0.01 7.05,-0.01 12.57,0.25 10.99,0.54 27.37,2.03 47.45,8.03 10.03,2.95 20.94,7.13 32.3,12.82 5.6,2.89 11.27,6.38 16.22,11 4.9,4.57 9.27,10.43 10.51,17.43 1.42,6.98 -1.08,14.56 -6.9,19.36 -5.81,4.67 -13.99,7.09 -21.89,5.8 -7.98,-1.08 -14.81,-6.78 -18.33,-14.57 -3.54,-7.75 -4.09,-17 -2.17,-25.82 3.39,-18.24 19.51,-32.38 38.44,-38.64 19.07,-6.42 40.72,-7.88 62.32,-5.25 21.64,2.71 43.52,9.95 63.49,21.84 9.99,5.92 19.46,13.08 28.19,21.18 8.57,8.14 16.23,17.82 19.34,29.28 2.98,11.11 0.99,24.68 -7.58,32.58 -8.66,8.26 -22.91,5.58 -31.77,-2.72 -4.56,-4.04 -8.2,-9.22 -10.28,-14.97 -2.12,-5.7 -2.1,-12.08 -1.09,-18.3 2.09,-12.49 9.56,-23.86 18.9,-32.97 19.12,-18.08 45.99,-28.58 73.25,-29.34 27.38,-1.03 55.15,9.01 76.55,27.25 10.81,8.99 19.82,19.95 26.9,31.85 3.56,6.04 6.36,12.08 7.66,18.74 1.4,6.52 1.56,13.43 -0.62,19.26 -1.98,5.85 -7.67,9.79 -13.49,9.62 -5.89,-0.16 -11.46,-4.24 -15.41,-9.17 -8.3,-10.02 -9.44,-24.21 -7.44,-36.84 4.94,-25.6 25.05,-47.3 49.14,-54.29 24.42,-7.32 50.55,-1.87 72.45,8.45 21.72,10.44 42.67,25.63 50.06,47.4 3.62,10.57 2.6,22.45 -2.17,32.15 -4.49,9.81 -14.19,16.93 -24.45,16.2 -10.24,-0.66 -19.27,-7.78 -24.31,-16.43 -5.34,-8.68 -6.11,-19.26 -3.63,-28.78 4.97,-19.4 20.84,-33.55 37.98,-39.8 17.29,-6.66 35.38,-7.54 52.17,-8.2 16.84,-0.5 32.76,0.45 47.49,2.48 29.49,4.06 54.13,11.83 73.91,18.77 19.77,7.1 34.87,13.35 45.12,17.52 4.96,2.01 8.83,3.57 11.69,4.73 2.64,1.04 4,1.53 4.04,1.45"
         style="fill:#f2575d;fill-opacity:1;fill-rule:nonzero;stroke:none"
         id="path88" /><path
         d="m 3816.22,443.41 c 0,0 -230.11,264.84 -316.94,529.692 -86.84,264.848 -45.59,234.458 -45.59,234.458 0,0 117.23,-257.279 206.23,-381.548 89.01,-124.262 247.48,-306.621 247.48,-306.621 l -91.18,-75.981"
         style="fill:#33535f;fill-opacity:1;fill-rule:nonzero;stroke:none"
         id="path90" /><path
         d="m 3862.08,1166.29 c -7.42,12.93 -27.18,6.22 -24.95,-8.53 14.02,-93.03 44.34,-311.338 43.16,-452.932 -1.55,-183.93 0.06,-255.039 0.06,-255.039 h 95.77 c 0,0 -17,380.25 -38.64,496.172 -15.18,81.289 -47.38,171.529 -75.4,220.329"
         style="fill:#33535f;fill-opacity:1;fill-rule:nonzero;stroke:none"
         id="path92" /><path
         d="m 3914.3,480.699 c 0,0 60.28,126.75 78.83,285.961 7.89,67.711 -6.19,159.211 -27.11,281.32 -10.15,59.15 -12.45,104.15 -12.11,135.36 0.24,23.58 31.36,31.29 42.9,10.72 11.56,-20.63 45.02,-91.09 53.51,-135.26 23.19,-120.57 49.46,-180.851 29.37,-295.23 -20.1,-114.379 -94.29,-290.59 -94.29,-290.59 l -71.1,7.719"
         style="fill:#33535f;fill-opacity:1;fill-rule:nonzero;stroke:none"
         id="path94" /><path
         d="m 4000.57,472.98 c 0,0 252.64,542.95 270.15,623.5 17.52,80.55 77.05,266.16 84.06,255.67 7.01,-10.51 17.51,-108.58 -28.02,-220.65 -45.53,-112.07 -239.92,-675.07 -239.92,-675.07 h -86.27 v 16.55"
         style="fill:#33535f;fill-opacity:1;fill-rule:nonzero;stroke:none"
         id="path96" /><path
         d="m 3886.63,497.27 c -0.11,-0.141 -2.55,1.531 -7.08,4.871 -4.48,3.39 -11.29,8.168 -19.57,14.937 -16.82,13.211 -40.42,33.313 -67.9,59.942 -55.16,52.96 -123.8,134.621 -183.3,235.25 -59.63,100.609 -99.74,199.01 -125.12,271.03 -12.7,36.06 -21.97,65.58 -27.99,86.09 -3.08,10.23 -5.21,18.25 -6.7,23.67 -1.46,5.44 -2.14,8.31 -1.96,8.37 0.18,0.05 1.2,-2.72 3,-8.05 1.9,-5.81 4.46,-13.59 7.67,-23.36 6.62,-20.31 16.43,-49.6 29.58,-85.42 26.25,-71.57 66.77,-169.381 126.16,-269.569 59.27,-100.222 127.07,-181.832 181.34,-235.301 27.04,-26.871 50.18,-47.351 66.55,-61.031 8.06,-7 14.65,-12.027 18.91,-15.699 4.31,-3.621 6.53,-5.578 6.41,-5.73"
         style="fill:#17282f;fill-opacity:1;fill-rule:nonzero;stroke:none"
         id="path98" /><path
         d="m 3914.28,757.738 c -0.37,-0.027 -1.16,5.66 -2.27,15.934 -1.21,11.25 -2.77,25.887 -4.66,43.519 -4,36.739 -10.24,87.399 -19.17,143.039 -8.96,55.67 -18.92,105.73 -26.63,141.87 -3.74,17.33 -6.84,31.74 -9.22,42.78 -2.17,10.11 -3.2,15.75 -2.84,15.84 0.36,0.09 2.08,-5.37 4.88,-15.33 2.83,-9.96 6.57,-24.46 10.9,-42.45 8.68,-35.98 19.25,-86.06 28.25,-141.85 8.94,-55.781 14.6,-106.641 17.63,-143.52 1.53,-18.449 2.52,-33.39 2.95,-43.73 0.46,-10.352 0.55,-16.07 0.18,-16.102"
         style="fill:#17282f;fill-opacity:1;fill-rule:nonzero;stroke:none"
         id="path100" /><path
         d="m 3973.46,1198.31 c 0.17,0.07 1.19,-2.31 2.98,-6.9 1.92,-5.1 4.43,-11.8 7.56,-20.16 3.35,-8.75 7.19,-19.54 10.85,-32.34 3.76,-12.74 8.63,-27.12 12.29,-43.46 1.99,-8.16 4.08,-16.67 6.25,-25.54 2.13,-8.89 3.62,-18.29 5.57,-27.95 4.12,-19.28 6.67,-40.18 9.73,-62.12 4.94,-44.012 7.64,-92.75 6.04,-143.891 -2.06,-51.129 -8.24,-99.558 -16.32,-143.117 -4.63,-21.66 -8.67,-42.332 -14.17,-61.273 -2.62,-9.489 -4.79,-18.758 -7.55,-27.469 -2.79,-8.692 -5.49,-17.039 -8.07,-25.02 -4.81,-16.05 -10.7,-30.039 -15.36,-42.48 -4.56,-12.5 -9.17,-22.988 -13.12,-31.469 -3.73,-8.109 -6.72,-14.609 -9,-19.582 -2.11,-4.437 -3.3,-6.73 -3.46,-6.66 -0.18,0.082 0.68,2.519 2.47,7.109 2.04,5.051 4.71,11.684 8.05,19.953 3.66,8.59 7.96,19.161 12.24,31.707 4.38,12.512 9.99,26.543 14.55,42.59 2.46,7.981 5.03,16.332 7.71,25.012 2.63,8.711 4.69,17.969 7.21,27.43 5.29,18.902 9.14,39.511 13.62,61.082 7.76,43.379 13.76,91.539 15.81,142.386 1.59,50.852 -0.94,99.313 -5.59,143.122 -2.91,21.84 -5.28,42.66 -9.2,61.88 -1.82,9.63 -3.22,19 -5.22,27.88 -2.05,8.86 -4.02,17.36 -5.9,25.5 -3.4,16.35 -8,30.73 -11.47,43.52 -3.37,12.84 -6.91,23.69 -9.94,32.51 -2.73,8.49 -4.93,15.3 -6.6,20.48 -1.45,4.7 -2.14,7.21 -1.96,7.27"
         style="fill:#17282f;fill-opacity:1;fill-rule:nonzero;stroke:none"
         id="path102" /><path
         d="m 4351.88,1341.23 c 0.09,-0.01 0.03,-0.84 -0.2,-2.43 -0.3,-1.91 -0.66,-4.23 -1.11,-7.05 -1.12,-6.19 -2.51,-15.36 -4.98,-27.04 -4.89,-23.35 -13.01,-56.97 -25.66,-97.74 -12.58,-40.79 -29.83,-88.61 -50.3,-141.15 -20.38,-52.57 -44.07,-109.84 -66.5,-170.8 -22.78,-60.86 -40.33,-120.27 -56.81,-174.168 -16.34,-53.961 -31.84,-102.383 -46.83,-142.352 -14.82,-40.039 -29.1,-71.559 -39.88,-92.852 -5.18,-10.757 -9.83,-18.777 -12.83,-24.296 -1.42,-2.493 -2.58,-4.532 -3.54,-6.211 -0.82,-1.379 -1.28,-2.071 -1.36,-2.02 -0.08,0.039 0.21,0.82 0.87,2.289 0.83,1.75 1.84,3.871 3.07,6.449 2.68,5.68 7.03,13.832 11.9,24.7 10.17,21.519 23.86,53.16 38.2,93.25 14.48,40.043 29.57,88.461 45.63,142.472 16.22,53.957 33.68,113.571 56.51,174.598 22.49,61.121 46.33,118.331 66.94,170.751 20.7,52.39 38.28,99.96 51.3,140.49 13.08,40.51 21.74,73.88 27.24,97.05 2.77,11.58 4.5,20.67 5.95,26.77 0.67,2.79 1.2,5.08 1.65,6.95 0.4,1.57 0.65,2.36 0.74,2.34"
         style="fill:#17282f;fill-opacity:1;fill-rule:nonzero;stroke:none"
         id="path104" /><path
         d="m 3572.81,1461.16 c -15.92,15.82 -42.4,-0.72 -35.81,-22.18 6.68,-21.76 16.8,-49.89 31.75,-81.64 34.73,-73.81 136.76,-338.65 184.52,-484.102 47.76,-145.449 115.05,-416.808 115.05,-416.808 l 101.99,16.55 c 0,0 -93.31,445.852 -184.48,606.49 -73.26,129.07 -146.51,315.62 -213.02,381.69"
         style="fill:#33535f;fill-opacity:1;fill-rule:nonzero;stroke:none"
         id="path106" /><path
         d="m 3781.18,782.27 c 0.35,0.121 2.2,-4.231 5.26,-12.219 3.01,-8 7.12,-19.68 11.75,-34.242 9.4,-29.09 20.89,-69.731 32.47,-114.868 11.55,-45.171 21.18,-86.261 27.88,-116.043 3.06,-14.089 5.63,-25.929 7.67,-35.328 1.71,-8.379 2.47,-13.05 2.11,-13.14 -0.36,-0.09 -1.82,4.422 -4.15,12.64 -2.48,9.301 -5.61,21.012 -9.34,34.93 -7.8,30.68 -18.05,71 -29.4,115.602 -11.56,45.089 -22.45,85.796 -30.89,115.097 -4.02,13.832 -7.41,25.442 -10.1,34.68 -2.43,8.18 -3.61,12.769 -3.26,12.891"
         style="fill:#17282f;fill-opacity:1;fill-rule:nonzero;stroke:none"
         id="path108" /><path
         d="m 3919.56,464.711 c -0.1,-0.012 -0.29,0.91 -0.57,2.719 -0.32,2.121 -0.7,4.769 -1.17,8.031 -1.06,7.051 -2.02,17.519 -4.18,30.879 -3.74,26.789 -10.42,65.41 -21.37,112.5 -10.89,47.109 -26.77,102.531 -47.74,162.941 -20.92,60.41 -47.17,125.699 -76.89,193.27 -60,134.969 -119.93,254.679 -159.33,343.209 -19.9,44.16 -35.32,80.21 -45.47,105.33 -5.17,12.52 -8.88,22.37 -11.46,29.01 -1.16,3.1 -2.09,5.6 -2.83,7.6 -0.62,1.73 -0.88,2.63 -0.8,2.66 0.08,0.04 0.53,-0.79 1.3,-2.45 0.88,-1.96 1.98,-4.39 3.33,-7.4 3,-6.92 7.14,-16.48 12.4,-28.61 10.74,-24.84 26.67,-60.62 47.01,-104.55 40.23,-88.05 100.69,-207.45 160.79,-342.631 29.77,-67.66 55.94,-133.16 76.65,-193.821 20.76,-60.66 36.32,-116.347 46.76,-163.707 10.51,-47.339 16.63,-86.152 19.74,-113.07 1.84,-13.43 2.45,-23.961 3.18,-31.051 0.25,-3.289 0.46,-5.949 0.62,-8.082 0.11,-1.84 0.12,-2.777 0.03,-2.777"
         style="fill:#17282f;fill-opacity:1;fill-rule:nonzero;stroke:none"
         id="path110" /><path
         d="m 3970.31,472.98 c -0.37,-0.05 -1.57,6.059 -3.43,17.141 -2.04,11.969 -4.71,27.77 -7.94,46.879 -7.04,39.512 -17.77,93.941 -33.2,153.172 -15.27,59.297 -32.48,112.039 -45.71,149.93 -6.5,18.257 -11.88,33.347 -15.96,44.789 -3.82,10.57 -5.76,16.468 -5.42,16.609 0.34,0.148 2.96,-5.512 7.39,-15.84 4.39,-10.351 10.53,-25.43 17.57,-44.269 14.18,-37.621 32.04,-90.371 47.36,-149.86 15.48,-59.429 25.65,-114.16 31.73,-153.922 2.91,-19.89 5.12,-36.007 6.26,-47.199 1.22,-11.18 1.72,-17.39 1.35,-17.43"
         style="fill:#17282f;fill-opacity:1;fill-rule:nonzero;stroke:none"
         id="path112" /><path
         d="m 3781.55,2.60938 h 398.09 v 485.012 h -398.09 z"
         style="fill:#f2575d;fill-opacity:1;fill-rule:nonzero;stroke:none"
         id="path114" /><path
         d="m 3781.55,2.60938 h 398.09 v 485.012 h -398.09 z"
         style="fill:#cc4341;fill-opacity:1;fill-rule:nonzero;stroke:none"
         id="path116" /><path
         d="M 4052.65,2.60156 H 3699.47 V 487.621 h 353.18 V 2.60156"
         style="fill:#f2575d;fill-opacity:1;fill-rule:nonzero;stroke:none"
         id="path118" /><path
         d="m 817.66,3059.1 -11.316,-911.16 c -1.93,-154.95 26.902,-382.96 272.026,-374.83 212.14,23.09 268.42,223.91 270.07,368.51 0.77,68.59 1.57,125.79 2.11,132.83 0,0 232.23,18.94 251.83,248.31 9.48,110.85 10.39,340.74 8.82,548.73 -1.69,223.37 -174.91,407.89 -397.7,424.16 l -22.15,1.61 C 951.48,3500.75 814.512,3298.98 817.66,3059.1"
         style="fill:#f8a58d;fill-opacity:1;fill-rule:nonzero;stroke:none"
         id="path120" /><path
         d="m 1350.55,2274.45 c 0,0 -145.32,2.09 -292.46,110.2 0,0 60.68,-173.01 291.27,-169.06 l 1.19,58.86"
         style="fill:#f68260;fill-opacity:1;fill-rule:nonzero;stroke:none"
         id="path122" /><path
         d="m 1219.05,2977.49 c -4.56,-4.64 -31.04,16.68 -69.48,17.71 -38.37,1.6 -67.12,-17.82 -71.16,-12.87 -1.98,2.2 2.76,10.68 15.29,19.47 12.34,8.77 33.2,17.03 57.13,16.21 23.93,-0.85 43.81,-10.46 55.13,-20.06 11.57,-9.64 15.32,-18.39 13.09,-20.46"
         style="fill:#17282f;fill-opacity:1;fill-rule:nonzero;stroke:none"
         id="path124" /><path
         d="m 1217.9,2898.01 c -0.62,-16.43 -15.03,-29.44 -32.19,-29.11 -17.13,0.33 -30.54,13.88 -29.92,30.3 0.61,16.41 15.03,29.45 32.16,29.12 17.15,-0.33 30.57,-13.9 29.95,-30.31"
         style="fill:#17282f;fill-opacity:1;fill-rule:nonzero;stroke:none"
         id="path126" /><path
         d="m 1315.31,2710.17 c -0.02,2.02 22.19,4.21 58.06,6.15 9.08,0.27 17.73,1.44 19.7,7.48 2.59,6.35 -0.47,16.34 -4.07,27.14 -6.88,22.42 -14.07,45.92 -21.63,70.55 -29.87,100.37 -50.78,182.63 -46.73,183.8 4.06,1.17 31.55,-79.24 61.42,-179.61 7.15,-24.74 13.99,-48.32 20.48,-70.87 2.66,-10.49 7.67,-22.53 2.09,-35.71 -2.92,-6.54 -9.89,-10.95 -15.77,-12.08 -5.91,-1.34 -10.99,-1.07 -15.46,-1.01 -35.9,0.69 -58.1,2.14 -58.09,4.16"
         style="fill:#17282f;fill-opacity:1;fill-rule:nonzero;stroke:none"
         id="path128" /><path
         d="m 1202.7,3121.98 c -3.71,-8.53 -34.48,-2.11 -71.31,-4 -36.88,-1.12 -67.13,-10.02 -71.4,-1.83 -1.88,3.93 3.85,11.78 16.37,19.38 12.42,7.59 31.83,14.25 53.93,15.18 22.1,0.87 41.9,-4.19 54.79,-10.75 13,-6.56 19.24,-13.93 17.62,-17.98"
         style="fill:#17282f;fill-opacity:1;fill-rule:nonzero;stroke:none"
         id="path130" /><path
         d="m 1567.67,3050.76 c -4.03,-6.95 -34.02,0.77 -70.35,1.89 -36.35,1.78 -66.51,-3.53 -70.35,3.73 -1.68,3.46 4.32,9.69 16.98,15.21 12.55,5.52 31.96,9.74 53.75,8.88 21.78,-0.89 41.05,-6.65 53.44,-13.16 12.5,-6.52 18.31,-13.23 16.53,-16.55"
         style="fill:#17282f;fill-opacity:1;fill-rule:nonzero;stroke:none"
         id="path132" /><path
         d="m 823.996,2887.74 c -3.797,1.98 -154.336,58.18 -160.781,-99.14 -6.445,-157.32 152.82,-131.34 153.281,-126.84 0.457,4.5 7.5,225.98 7.5,225.98"
         style="fill:#f8a58d;fill-opacity:1;fill-rule:nonzero;stroke:none"
         id="path134" /><path
         d="m 770.887,2723.33 c -0.676,0.52 -2.824,-1.81 -7.543,-3.74 -4.598,-1.89 -12.426,-3 -20.504,0.41 -16.363,6.79 -29.281,33.75 -28.883,62.13 0.184,14.33 3.75,27.85 9.277,38.92 5.278,11.32 13.047,19.05 21.485,20.19 8.398,1.59 14.121,-3.66 15.859,-8.17 1.934,-4.48 0.805,-7.58 1.625,-7.89 0.426,-0.41 3.485,2.5 2.481,9.05 -0.516,3.15 -2.211,6.94 -5.782,10.11 -3.652,3.22 -9.136,5.02 -14.992,4.63 -12.168,-0.34 -23.543,-11.06 -29.629,-23.22 -6.75,-12.2 -11.093,-27.37 -11.301,-43.46 -0.289,-31.75 14.727,-62.07 37.196,-69.58 10.953,-3.34 20.316,-0.38 25.234,3.14 5.035,3.68 6.008,7.17 5.477,7.48"
         style="fill:#f68260;fill-opacity:1;fill-rule:nonzero;stroke:none"
         id="path136" /><path
         d="m 1278.19,2601.24 c 1.72,3.98 -29.1,13.21 -50.77,42.12 -10.83,14.24 -17.08,29.75 -21.77,41.09 -4.58,11.42 -8.07,18.58 -9.77,18.06 -1.59,-0.5 -1.2,-8.23 1.33,-20.66 2.63,-12.28 7.98,-29.85 20.24,-46.02 12.08,-16.33 28.29,-26.08 40.19,-30.76 12.01,-4.87 20.14,-5.17 20.55,-3.83"
         style="fill:#17282f;fill-opacity:1;fill-rule:nonzero;stroke:none"
         id="path138" /><path
         d="m 1569.39,2963.02 c -4.56,-4.65 -31.04,16.67 -69.48,17.71 -38.37,1.6 -67.12,-17.83 -71.15,-12.88 -2,2.21 2.75,10.68 15.28,19.48 12.34,8.76 33.2,17.02 57.13,16.21 23.93,-0.85 43.82,-10.47 55.13,-20.07 11.56,-9.63 15.33,-18.38 13.09,-20.45"
         style="fill:#17282f;fill-opacity:1;fill-rule:nonzero;stroke:none"
         id="path140" /><path
         d="m 1563.09,2886.84 c -0.62,-16.42 -15.03,-29.43 -32.19,-29.1 -17.12,0.32 -30.54,13.87 -29.92,30.29 0.61,16.42 15.03,29.45 32.16,29.13 17.15,-0.33 30.57,-13.9 29.95,-30.32"
         style="fill:#17282f;fill-opacity:1;fill-rule:nonzero;stroke:none"
         id="path142" /><path
         d="m 1771.21,3376.08 c -29.53,51.63 -100.97,74.24 -154.82,48.99 14.15,72.22 -24.8,151.57 -90.59,184.55 -65.8,32.99 -152.68,16.72 -202.08,-37.84 -3.1,19.56 -16.89,36.3 -33.84,46.55 -16.94,10.25 -36.78,14.7 -56.47,16.84 -61.26,6.66 -124.66,-8.31 -176.47,-41.68 -27.15,-17.48 -50.89,-40.04 -70.237,-65.9 -90.976,10.71 -187.449,-22.59 -249.101,-90.88 -73.907,-81.85 -87.832,-271.58 -6.887,-435.46 l 19.055,-102.76 c 25.382,0.07 48.609,-1.74 64.253,-15.81 21.266,-19.12 30.774,-55.08 66.106,-41.43 17.98,6.95 34.387,44.68 40.41,62.99 39.934,121.58 53.195,251.8 38.766,378.94 25.14,26.8 55.495,48.71 88.855,64.13 l -2.72,-2.45 c 64.1,22.27 136.61,44.17 197.44,14.07 47.17,-23.34 74.9,-72.3 110.18,-111.36 66.85,-74.04 157.01,-114.27 256.68,-118.56 3.39,-64.59 -2.04,-155.88 1.35,-220.46 l 54.34,103.46 0.04,-0.51 c 4.45,7.56 8.13,15.2 11.68,22.85 l 1.22,2.32 v 0.29 l 0.04,0.08 c 9.94,8.07 17.47,22.86 34.26,42.09 32.45,37.17 41.45,93.21 22.26,138.66 49.07,33.61 65.81,106.66 36.28,158.29"
         style="fill:#17282f;fill-opacity:1;fill-rule:nonzero;stroke:none"
         id="path144" /><path
         d="m 1697.16,3073.16 -0.21,0.18 0.21,-0.18"
         style="fill:#17282f;fill-opacity:1;fill-rule:nonzero;stroke:none"
         id="path146" /><path
         d="m 1677.17,3373.71 c 0.16,0.04 0.55,-1.11 1.15,-3.38 0.65,-2.25 1.24,-5.69 1.45,-10.18 0.46,-8.87 -1,-22.5 -9.16,-36.87 -4.08,-7.11 -9.84,-14.29 -17.57,-20.34 -7.76,-5.94 -17.64,-10.6 -28.67,-12.23 -21.77,-3.58 -48.73,3.79 -65.59,24.68 l 3.9,3.36 c 7.45,-7.99 11.53,-19.46 11.09,-30.85 -0.41,-15.3 -7.07,-29.75 -17.59,-39.64 -10.7,-9.83 -24.34,-14.53 -37.2,-15.83 -26.15,-2.54 -48.84,7.23 -64.67,17.79 -16.09,10.72 -27.09,21.8 -34.57,29.38 -7.43,7.68 -11.25,12.18 -11.01,12.42 0.27,0.27 4.58,-3.77 12.42,-10.96 7.87,-7.11 19.19,-17.68 35.14,-27.73 15.72,-9.94 37.58,-18.78 62.18,-16.13 12.04,1.32 24.67,5.9 34.22,14.78 9.43,8.92 15.53,22.24 15.87,36.03 0.39,10.3 -3.23,20.25 -9.63,27.21 l 3.9,3.36 c 15.33,-19.22 40.5,-26.47 60.85,-23.38 20.93,2.81 36.09,16.54 43.99,29.82 8.17,13.46 10.13,26.47 10.25,35.1 0.07,8.74 -1.21,13.49 -0.75,13.59"
         style="fill:#33535f;fill-opacity:1;fill-rule:nonzero;stroke:none"
         id="path148" /><path
         d="m 1480.33,3546.12 c 0.09,0.15 1.25,-0.37 3.38,-1.51 2.1,-1.2 5.16,-3.06 8.77,-5.91 7.13,-5.66 17.24,-15.27 23.73,-30.82 6.57,-15.16 7.4,-37.74 -5.4,-56.67 -6.24,-9.28 -16.42,-17.18 -28.67,-19.68 -12.04,-2.53 -25.72,-0.6 -36.66,7.11 -3.43,2.47 -6.35,5.54 -8.72,8.68 l 4.5,2.55 c 5.02,-11.77 3.67,-24.87 -1.18,-35.35 -4.76,-10.64 -13.39,-18.88 -22.89,-23.45 -19.32,-9.28 -39.67,-6.26 -53.59,0.11 -14.21,6.48 -23.27,15.46 -28.87,21.78 -5.59,6.43 -7.88,10.55 -7.65,10.71 0.33,0.25 3.15,-3.47 9.07,-9.38 5.93,-5.8 15.14,-14.08 28.87,-19.83 13.38,-5.67 32.55,-7.94 50.07,0.82 8.62,4.31 16.16,11.68 20.4,21.31 4.31,9.49 5.35,21.11 1,31.21 l -8.32,19.31 12.82,-16.77 c 2.05,-2.68 4.54,-5.33 7.53,-7.47 9.48,-6.71 21.79,-8.57 32.57,-6.35 10.9,2.18 19.93,9.01 25.78,17.42 11.91,17.17 11.71,38.1 5.91,52.6 -5.7,14.89 -15.02,24.62 -21.6,30.6 -6.71,6.03 -11.11,8.57 -10.85,8.98"
         style="fill:#33535f;fill-opacity:1;fill-rule:nonzero;stroke:none"
         id="path150" /><path
         d="m 2815.32,2399.15 -362.96,-277.17 c -21.57,-16.46 -24.75,-47.72 -6.96,-68.19 16.38,-18.85 44.62,-21.6 64.34,-6.29 l 359.98,279.74 48.71,96.04 -103.11,-24.13"
         style="fill:#f2575d;fill-opacity:1;fill-rule:nonzero;stroke:none"
         id="path152" /><path
         d="m 2815.32,2399.15 56.47,13.22 v 0 l -56.47,-13.22"
         style="fill:#ffffff;fill-opacity:1;fill-rule:nonzero;stroke:none"
         id="path154" /><path
         d="m 2869.07,2327.23 c -4.05,0 -25.78,1.11 -23.55,25.11 0,0 -0.75,-0.08 -1.99,-0.08 -6.14,0 -24.21,1.95 -19.97,25.27 0,0 -18.88,1.69 -8.24,21.62 v 0 l 56.47,13.22 25.74,-29.97 -27.81,-55.16 c 0,0 -0.23,-0.01 -0.65,-0.01"
         style="fill:#f89ca4;fill-opacity:1;fill-rule:nonzero;stroke:none"
         id="path156" /><path
         d="m 2452.36,2121.98 59.56,-72.77 20,15.53 -57.12,74.38 -22.44,-17.14"
         style="fill:#17282f;fill-opacity:1;fill-rule:nonzero;stroke:none"
         id="path158" /><path
         d="m 2425.59,1427.14 -13.05,2.34 267.42,467.46 -42.27,134.76 c 0,0 -49.01,191.93 -8.17,240.93 0,0 89.32,105.13 118.3,103.68 28.98,-1.45 52.15,-7.24 57.95,-28.97 0,0 49.26,5.79 62.3,-10.15 13.03,-15.93 23.18,-34.77 23.18,-34.77 0,0 53.6,4.35 68.1,-42.01 0,0 50.7,-26.08 55.05,-63.75 4.34,-37.67 -10.14,-212.97 -26.08,-257.88 -15.94,-44.92 -75.34,-139.09 -92.72,-278.18 -17.39,-139.08 -78.67,-229.35 -133.13,-432.63 l -147.94,-58.5 -188.94,257.67"
         style="fill:#f8a58d;fill-opacity:1;fill-rule:nonzero;stroke:none"
         id="path160" /><path
         d="m 2803.22,2350.3 c 1.09,-1.52 -17.32,-13.69 -31.21,-36.15 -14.22,-22.25 -17.2,-44.12 -19.04,-43.8 -1.51,-0.18 -1.17,23.34 13.9,47.04 14.81,23.83 35.86,34.35 36.35,32.91"
         style="fill:#f68260;fill-opacity:1;fill-rule:nonzero;stroke:none"
         id="path162" /><path
         d="m 2888.36,2302.49 c 1,-1.56 -16.58,-12.16 -30.55,-32.35 -14.27,-19.98 -18.3,-40.09 -20.1,-39.69 -1.54,-0.07 -0.05,21.83 15.13,43.19 14.96,21.51 35.06,30.32 35.52,28.85"
         style="fill:#f68260;fill-opacity:1;fill-rule:nonzero;stroke:none"
         id="path164" /><path
         d="m 2956.49,2261.88 c 1.14,-1.41 -12.19,-13.05 -24.4,-30.72 -12.37,-17.55 -18.71,-34.06 -20.42,-33.49 -1.51,0.34 2.45,18.51 15.44,36.98 12.85,18.54 28.54,28.53 29.38,27.23"
         style="fill:#f68260;fill-opacity:1;fill-rule:nonzero;stroke:none"
         id="path166" /><path
         d="m 2705.37,2246.5 c -0.95,-1.48 -13,6.44 -29.68,5.07 -16.72,-0.9 -27.59,-10.38 -28.73,-9.04 -0.53,0.52 1.42,3.78 6.28,7.38 4.81,3.6 12.76,7.08 22.03,7.72 9.29,0.62 17.63,-1.75 22.88,-4.67 5.31,-2.91 7.68,-5.88 7.22,-6.46"
         style="fill:#f68260;fill-opacity:1;fill-rule:nonzero;stroke:none"
         id="path168" /><path
         d="m 2812,2179.82 c -1.69,-0.61 -6.7,15 -22.07,26.42 -15.09,11.8 -31.46,12.5 -31.32,14.29 -0.02,0.74 4.12,1.7 10.85,0.84 6.69,-0.83 15.85,-3.98 24.16,-10.29 8.28,-6.35 13.75,-14.34 16.32,-20.57 2.61,-6.27 2.78,-10.51 2.06,-10.69"
         style="fill:#f68260;fill-opacity:1;fill-rule:nonzero;stroke:none"
         id="path170" /><path
         d="m 2917.9,2157.2 c -1.3,-1.26 -12.93,11.93 -32.88,17.09 -19.83,5.61 -36.52,0.1 -37.01,1.85 -0.27,0.68 3.53,3.12 10.57,4.79 7,1.69 17.29,2.11 28.03,-0.78 10.73,-2.93 19.4,-8.48 24.58,-13.47 5.24,-4.99 7.3,-9.03 6.71,-9.48"
         style="fill:#f68260;fill-opacity:1;fill-rule:nonzero;stroke:none"
         id="path172" /><path
         d="m 219.918,1647.33 c 0,0 -163.8828,-930.842 -155.9727,-1017.869 7.9102,-87.039 51.4957,-225.5 150.3677,-249.242 98.871,-23.739 189.863,0 189.863,0 l -118.688,1143.321 -65.57,123.79"
         style="fill:#f2575d;fill-opacity:1;fill-rule:nonzero;stroke:none"
         id="path174" /><path
         d="m 699.793,2127.46 c 0,0 -196.141,-139.42 -239.492,-180.42 C 278.973,1775.53 241.016,1705.35 219.918,1647.33 198.82,1589.3 345.801,241.621 345.801,241.621 L 375.582,6.16016 1752.25,2.60938 V 1205.62 l -206.83,846.65 -127.27,36.22 -25.69,100.92 c 0,0 -158.14,116.76 -418.948,120.12 -80.239,1.04 -193.735,-30.49 -257.141,-79.68 l -16.578,-102.39"
         style="fill:#f2575d;fill-opacity:1;fill-rule:nonzero;stroke:none"
         id="path176" /><path
         d="m 1391.44,2048.79 c 0,0 141.48,6.36 153.98,3.48 43.6,-10.07 163.36,-119.84 299.75,-255.12 130.12,-129.07 386.14,-397.58 386.14,-397.58 0,0 46.03,46.46 98.51,-15.55 l 202.1,294 c 0,0 303.37,-37.25 351.08,-266.24 0,0 -92.98,-177.52 -169.14,-304.46 0,0 -281.95,-467.879 -504.65,-383.148 -203.43,77.387 -458.5,284.348 -494.42,328.558 l -299.5,213.72 c 0,0 -205.12,391.16 -114.49,586.75 90.64,195.59 90.64,195.59 90.64,195.59"
         style="fill:#f2575d;fill-opacity:1;fill-rule:nonzero;stroke:none"
         id="path178" /><path
         d="m 1418.15,2088.49 c -0.06,-0.19 -2.56,0.33 -7.26,1.49 -5.29,1.39 -12.06,3.18 -20.42,5.39 -17.76,4.51 -43.57,10.7 -75.79,16.79 -64.31,12.66 -154.26,24.62 -254.07,31.32 -99.872,6.09 -190.669,5.52 -255.895,-0.76 -32.645,-2.79 -58.871,-6.86 -76.875,-10.13 -8.485,-1.68 -15.348,-3.03 -20.711,-4.1 -4.754,-0.87 -7.285,-1.23 -7.336,-1.03 -0.055,0.2 2.367,0.97 7.039,2.22 5.316,1.35 12.117,3.08 20.527,5.22 17.938,4 44.204,8.74 76.934,12.1 65.422,7.4 156.547,8.65 256.707,2.55 100.09,-6.73 190.22,-19.4 254.53,-33.18 32.21,-6.64 57.95,-13.49 75.57,-18.73 8.26,-2.65 14.94,-4.81 20.16,-6.49 4.58,-1.55 6.95,-2.46 6.89,-2.66"
         style="fill:#17282f;fill-opacity:1;fill-rule:nonzero;stroke:none"
         id="path180" /><path
         d="m 881.93,2158.52 c -1.664,-0.22 -6.235,22.82 -10.219,51.46 -3.981,28.66 -5.859,52.07 -4.199,52.31 1.664,0.23 6.238,-22.81 10.218,-51.47 3.981,-28.64 5.86,-52.06 4.2,-52.3"
         style="fill:#17282f;fill-opacity:1;fill-rule:nonzero;stroke:none"
         id="path182" /><path
         d="m 933.336,2162.94 c -1.445,-0.55 -10.156,22.01 -12.113,51.49 -2.129,29.48 3.382,53.02 4.89,52.68 1.789,-0.26 -0.918,-23.6 1.168,-52.26 1.891,-28.66 7.793,-51.41 6.055,-51.91"
         style="fill:#17282f;fill-opacity:1;fill-rule:nonzero;stroke:none"
         id="path184" /><path
         d="m 1366.07,2101.32 c -72.58,8.58 -144.16,10.6 -215.01,10.6 -31.58,0 -63.02,-0.4 -94.32,-0.8 -31.3,-0.4 -62.467,-0.8 -93.525,-0.8 -86.418,0 -171.973,3.11 -257.059,18 0.313,0.05 0.637,0.11 0.973,0.17 5.363,1.07 12.226,2.42 20.711,4.1 5.062,0.92 10.773,1.9 17.098,2.9 13.535,2.03 27.117,3.83 40.765,5.4 6.067,0.65 12.406,1.27 19.012,1.83 34.359,3.31 75.816,5.03 121.957,5.03 41.445,0 86.678,-1.39 133.938,-4.27 54.8,-3.68 106.62,-8.94 152.86,-15.04 51.03,-7.46 101.89,-16.62 152.28,-27.05 0.11,-0.02 0.21,-0.05 0.32,-0.07"
         style="fill:#cc4341;fill-opacity:1;fill-rule:nonzero;stroke:none"
         id="path186" /><path
         d="m 1366.16,2101.31 c -0.03,0 -0.06,0 -0.09,0.01 -0.11,0.02 -0.21,0.05 -0.32,0.07 0.14,-0.03 0.28,-0.06 0.41,-0.08 m -660.004,27.01 c -0.609,0.1 -1.222,0.21 -1.836,0.32 13.473,2.53 27.02,4.81 40.618,6.85 -6.325,-1 -12.036,-1.98 -17.098,-2.9 -8.485,-1.68 -15.348,-3.03 -20.711,-4.1 -0.336,-0.06 -0.66,-0.12 -0.973,-0.17 m 507.314,0.12 c -46.24,6.1 -98.06,11.36 -152.86,15.04 -47.26,2.88 -92.493,4.27 -133.938,4.27 -46.141,0 -87.598,-1.72 -121.957,-5.03 -6.606,-0.56 -12.945,-1.18 -19.012,-1.83 51.531,5.93 103.836,8.64 156.555,8.64 89.762,0 180.752,-7.86 271.212,-21.09"
         style="fill:#0f191d;fill-opacity:1;fill-rule:nonzero;stroke:none"
         id="path188" /><path
         d="M 326.258,378.449 C 205.059,662.27 219.406,983.078 235.848,1291.26 l 90.41,-912.811"
         style="fill:#cc4341;fill-opacity:1;fill-rule:nonzero;stroke:none"
         id="path190" /><path
         d="m 219.918,1444.4 c 0.102,0.01 0.316,-1.2 0.641,-3.58 0.328,-2.71 0.746,-6.18 1.273,-10.55 1.023,-9.7 2.473,-23.31 4.305,-40.62 3.539,-35.73 8.586,-86.7 14.801,-149.51 12.308,-126.26 29.125,-300.691 49.175,-493.179 20.106,-192.551 40.172,-366.641 56.231,-492.461 7.906,-62.93 14.707,-113.801 19.48,-148.941 2.281,-17.2582 4.074,-30.8285 5.356,-40.4887 0.511,-4.3711 0.914,-7.8515 1.234,-10.5508 0.246,-2.3906 0.32,-3.6093 0.219,-3.6289 -0.102,-0.0195 -0.387,1.1797 -0.828,3.5313 -0.477,2.6875 -1.082,6.1289 -1.836,10.4687 -1.551,9.6289 -3.723,23.1289 -6.481,40.3284 -5.5,35.051 -12.949,85.851 -21.402,148.722 -17.156,125.719 -37.906,299.797 -58.02,492.391 -20.046,192.52 -36.187,367.048 -47.406,493.408 -5.41,62.88 -9.801,113.92 -12.879,149.69 -1.347,17.36 -2.414,31.01 -3.172,40.72 -0.277,4.4 -0.496,7.89 -0.671,10.62 -0.118,2.39 -0.129,3.62 -0.02,3.63"
         style="fill:#17282f;fill-opacity:1;fill-rule:nonzero;stroke:none"
         id="path192" /><path
         d="m 1151.96,1596.69 c 0,-0.22 -3.06,-0.37 -8.87,-0.48 -6.4,-0.04 -14.86,-0.1 -25.43,-0.17 -22.06,0.08 -54,-0.24 -93.44,-1.16 -78.865,-1.78 -187.782,-7.56 -307.314,-21.71 -119.551,-14.3 -226.797,-34.24 -303.879,-51.02 -38.55,-8.36 -69.672,-15.54 -91.097,-20.81 -10.293,-2.41 -18.528,-4.33 -24.75,-5.8 -5.676,-1.25 -8.684,-1.81 -8.742,-1.62 -0.055,0.21 2.851,1.17 8.429,2.82 6.156,1.72 14.297,4.03 24.477,6.9 21.265,5.97 52.261,13.79 90.746,22.7 76.945,17.89 184.305,38.54 304.098,52.87 119.777,14.18 228.968,19.29 307.962,19.97 39.5,0.37 71.47,0.04 93.55,-0.77 10.57,-0.41 19.02,-0.73 25.41,-0.97 5.81,-0.29 8.86,-0.55 8.85,-0.75"
         style="fill:#17282f;fill-opacity:1;fill-rule:nonzero;stroke:none"
         id="path194" /><path
         d="m 623.301,1295.29 c -1.672,0.06 1.492,128.96 7.066,287.87 5.582,158.97 11.465,287.75 13.141,287.68 1.672,-0.06 -1.485,-128.93 -7.067,-287.89 -5.574,-158.92 -11.461,-287.72 -13.14,-287.66"
         style="fill:#17282f;fill-opacity:1;fill-rule:nonzero;stroke:none"
         id="path196" /><path
         d="m 1326.88,1311.22 c -0.19,-0.1 -1.96,2.68 -5.17,8.08 -3.43,5.9 -8.03,13.8 -13.8,23.72 -12.3,21.14 -29.58,50.82 -50.8,87.26 -20.88,37.1 -45.85,81.84 -63.71,135.76 -8.69,26.97 -15.54,56.09 -18.99,86.8 -3.1,30.74 -2.99,62.78 -0.28,95.37 6,64.89 19.99,126.72 45.45,177.7 12.53,25.49 27.86,48.05 44.81,66.86 16.99,18.77 35.62,33.57 53.83,44.94 36.65,22.77 71.67,30.83 95.5,31.99 24.01,1.3 37.02,-2.06 37.02,-2.06 -0.06,-0.8 -13.21,1.71 -36.84,-0.3 -23.46,-1.85 -57.68,-10.45 -93.39,-33.27 -17.74,-11.41 -35.88,-26.11 -52.38,-44.67 -16.43,-18.57 -31.34,-40.81 -43.53,-65.97 -24.77,-50.27 -38.46,-111.35 -44.42,-175.79 -2.68,-32.22 -2.83,-63.84 0.14,-94.17 3.33,-30.28 9.96,-59.01 18.41,-85.7 17.34,-53.36 41.76,-98.09 62.13,-135.39 20.51,-36.84 37.22,-66.84 49.11,-88.19 5.36,-10.16 9.63,-18.26 12.81,-24.3 2.87,-5.59 4.28,-8.57 4.1,-8.67"
         style="fill:#17282f;fill-opacity:1;fill-rule:nonzero;stroke:none"
         id="path198" /><path
         d="m 677.707,1411.79 c -18.734,13.25 -34.363,30.75 -45.773,50.66 1.23,30.76 2.507,64.47 3.781,99.94 26.25,3.83 53.383,7.46 81.191,10.78 103.555,12.26 199.141,18.24 274.125,20.77 4.293,0.02 8.571,0.03 12.859,0.03 21.08,0 42.16,-0.25 63.24,-0.77 -126.857,-26.79 -254.892,-47.98 -383.61,-63.49 4.761,-39.25 2.785,-79.32 -5.813,-117.92"
         style="fill:#cc4341;fill-opacity:1;fill-rule:nonzero;stroke:none"
         id="path200" /><path
         d="m 635.715,1562.39 c 0.062,1.79 0.125,3.57 0.191,5.37 117.586,16.82 236.34,25.59 355.125,26.18 -74.984,-2.53 -170.57,-8.51 -274.125,-20.77 -27.808,-3.32 -54.941,-6.95 -81.191,-10.78"
         style="fill:#0f191d;fill-opacity:1;fill-rule:nonzero;stroke:none"
         id="path202" /><path
         d="m 554.934,1413.03 c -0.95,39.01 3.953,78.15 14.48,115.73 -85.141,-18.22 -171.742,-29.64 -258.695,-34.12 l -4.242,3.09 c 4.5,1.05 9.648,2.25 15.453,3.61 21.425,5.27 52.547,12.45 91.097,20.81 57.766,12.58 132.461,26.93 216.586,39.35 -1.074,-31.4 -2.05,-61.38 -2.902,-89.17 -7.109,14.67 -12,30.41 -14.27,46.55 -10.714,-39.07 -30.566,-75.6 -57.507,-105.85"
         style="fill:#cc4341;fill-opacity:1;fill-rule:nonzero;stroke:none"
         id="path204" /><path
         d="m 306.477,1497.73 -0.911,0.66 c 106.473,29.72 214.84,52.59 324.235,68.49 -0.063,-1.8 -0.125,-3.59 -0.188,-5.38 -84.125,-12.42 -158.82,-26.77 -216.586,-39.35 -38.55,-8.36 -69.672,-15.54 -91.097,-20.81 -5.805,-1.36 -10.953,-2.56 -15.453,-3.61"
         style="fill:#0f191d;fill-opacity:1;fill-rule:nonzero;stroke:none"
         id="path206" /><path
         d="m 631.934,1462.45 c -1.856,3.23 -3.594,6.53 -5.223,9.88 0.852,27.79 1.828,57.77 2.902,89.17 0.063,1.79 0.125,3.58 0.188,5.38 2.031,0.3 4.07,0.59 6.105,0.88 -0.066,-1.8 -0.129,-3.58 -0.191,-5.37 -1.274,-35.47 -2.551,-69.18 -3.781,-99.94"
         style="fill:#0f191d;fill-opacity:1;fill-rule:nonzero;stroke:none"
         id="path208" /><path
         d="m 1965.74,852.98 c -0.1,-0.148 -2.15,1.071 -5.94,3.532 -4.2,2.797 -9.66,6.449 -16.45,10.976 -14.23,9.614 -34.66,23.75 -59.78,41.383 -50.26,35.27 -119.14,84.777 -194.24,140.779 -75.12,56.03 -142.23,107.94 -190.36,146.04 -24.08,19.05 -43.45,34.6 -56.72,45.5 -6.28,5.2 -11.33,9.4 -15.21,12.63 -3.44,2.93 -5.19,4.54 -5.09,4.67 0.12,0.15 2.09,-1.19 5.74,-3.85 4.04,-3.03 9.29,-6.97 15.82,-11.86 14.11,-10.81 33.71,-25.81 57.72,-44.19 48.7,-37.35 116.12,-88.76 191.21,-144.76 75.07,-55.978 143.57,-105.932 193.26,-141.959 24.47,-17.769 44.43,-32.269 58.82,-42.723 6.56,-4.867 11.83,-8.769 15.88,-11.777 3.6,-2.73 5.44,-4.25 5.34,-4.391"
         style="fill:#17282f;fill-opacity:1;fill-rule:nonzero;stroke:none"
         id="path210" /><path
         d="m 2301.76,1159.85 c -0.92,0.03 -0.33,15.12 -2.09,39.3 -1.71,24.16 -6.59,57.43 -17.51,92.74 -11.03,35.29 -25.87,65.47 -38.15,86.34 -12.26,20.92 -21.28,33.01 -20.56,33.55 0.29,0.23 2.78,-2.61 7.05,-7.95 4.33,-5.3 10.07,-13.37 16.66,-23.69 13.21,-20.57 28.8,-50.93 39.97,-86.71 11.07,-35.79 15.44,-69.63 16.22,-94.08 0.42,-12.22 0.26,-22.14 -0.31,-28.95 -0.49,-6.82 -0.93,-10.57 -1.28,-10.55"
         style="fill:#17282f;fill-opacity:1;fill-rule:nonzero;stroke:none"
         id="path212" /><path
         d="m 2363.69,1182.47 c -0.83,0.15 1.08,11.83 2.52,30.79 1.48,18.95 1.94,45.27 -1.34,74.05 -3.35,28.79 -9.77,54.33 -15.51,72.44 -5.72,18.14 -10.23,29.08 -9.46,29.42 0.34,0.14 1.79,-2.43 4.16,-7.26 2.42,-4.8 5.45,-11.96 8.78,-20.98 6.7,-17.99 13.8,-43.79 17.2,-73.02 3.33,-29.22 2.28,-55.96 -0.16,-75.01 -1.2,-9.53 -2.53,-17.2 -3.79,-22.42 -1.21,-5.23 -2.05,-8.08 -2.4,-8.01"
         style="fill:#17282f;fill-opacity:1;fill-rule:nonzero;stroke:none"
         id="path214" /><path
         d="m 2833.34,1311.22 c -0.29,-0.07 0.15,1.93 -2.32,3.76 -1.16,0.84 -3.02,2.23 -4.06,4.4 -1.18,2.08 -1.92,4.67 -3.37,7.07 -2.66,5.01 -9.3,8.9 -14.14,16.29 -4.97,7.14 -8.65,16.31 -12.06,26.4 -6.12,20.3 -16.13,43.56 -34.32,64.75 -8.89,10.67 -19.5,20.79 -30.92,30.81 -11.45,10.01 -23.78,19.74 -37.31,28.49 -13.58,9.17 -26.15,18.33 -39.9,24.77 -13.71,6.72 -26.95,13.19 -39.6,19.38 -12.65,5.97 -24.38,12.15 -35.89,17.08 -11.44,4.87 -22.15,9.44 -32.02,13.64 -4.88,2.24 -9.56,3.76 -13.93,6.36 -4.24,2.54 -7.78,5.28 -11.37,7.28 -3.68,1.96 -7.14,3.8 -10.37,5.51 -3.27,1.74 -5.91,3.99 -8.29,5.5 -4.93,3.08 -9.28,4.77 -12.04,6.26 -2.82,1.43 -4.18,2.38 -4.1,2.53 0.09,0.17 1.61,-0.47 4.52,-1.57 2.89,-1.17 7.32,-2.54 12.66,-5.48 5.04,-3.56 11.17,-6.43 19.02,-10.19 3.86,-2 7.57,-4.7 11.62,-6.97 3.92,-2.21 8.96,-3.79 13.78,-5.87 9.91,-4 20.67,-8.36 32.17,-13.01 11.55,-4.74 23.56,-10.86 36.36,-16.76 12.7,-6.11 25.98,-12.49 39.74,-19.11 14.06,-6.51 27.25,-16.05 40.53,-25 13.7,-8.88 26.27,-18.83 37.79,-29 11.48,-10.19 22.22,-20.55 31.24,-31.58 18.44,-21.81 28.5,-46.3 34.13,-66.67 3.15,-10.09 6.49,-19.01 10.99,-25.94 4.17,-7.02 10.64,-11.12 13.48,-16.9 1.47,-2.79 2.03,-5.4 2.99,-7.37 0.85,-2.09 2.15,-3.18 3.37,-4.32 2.57,-2.43 1.67,-4.73 1.62,-4.54"
         style="fill:#17282f;fill-opacity:1;fill-rule:nonzero;stroke:none"
         id="path216" /><path
         d="m 1550.46,25.9102 c -1.44,0 -2.61,253.0118 -2.61,565.0508 0,312.16 1.17,565.119 2.61,565.119 1.44,0 2.6,-252.959 2.6,-565.119 0,-312.039 -1.16,-565.0508 -2.6,-565.0508"
         style="fill:#17282f;fill-opacity:1;fill-rule:nonzero;stroke:none"
         id="path218" /></g></g></svg>
