<?xml version="1.0" encoding="utf-8"?>
<!-- Generator: Adobe Illustrator 26.0.2, SVG Export Plug-In . SVG Version: 6.00 Build 0)  -->
<svg version="1.1" id="Capa_1" xmlns="http://www.w3.org/2000/svg" xmlns:xlink="http://www.w3.org/1999/xlink" x="0px" y="0px"
	 viewBox="0 0 2000 2001" style="enable-background:new 0 0 2000 2001;" xml:space="preserve">
<style type="text/css">
	.st0{fill:#FFFFFF;}
	.st1{fill:#D3E8EB;}
	.st2{fill:#FFB27D;}
	.st3{fill:#A9453D;}
	.st4{fill:#ED975D;}
	.st5{fill:#2A4E96;}
	.st6{fill:#E7F1FD;}
	.st7{fill:#1E3D70;}
	.st8{fill:#233862;}
	.st9{fill:#EE9849;}
	.st10{fill:#E58638;}
	.st11{fill:#2B478B;}
	.st12{fill:#ED985F;}
	.st13{fill:#2C3A64;}
	.st14{fill:#DBAF8F;}
	.st15{fill:#EFCBAB;}
	.st16{fill:#EBF3FA;}
	.st17{fill:#B5C1CF;}
	.st18{fill:#2E3552;}
	.st19{fill-rule:evenodd;clip-rule:evenodd;fill:#A0A19D;}
	.st20{filter:url(#Adobe_OpacityMaskFilter);}
	.st21{fill-rule:evenodd;clip-rule:evenodd;fill:#FFFFFF;}
	
		.st22{mask:url(#mask-2_00000109005132313053668310000000329084811937872516_);fill-rule:evenodd;clip-rule:evenodd;fill:url(#Fill-53_00000129188264933451066360000006098660711802078628_);}
	.st23{fill-rule:evenodd;clip-rule:evenodd;fill:#91928E;}
	.st24{fill-rule:evenodd;clip-rule:evenodd;fill:#5A5A57;}
	.st25{fill-rule:evenodd;clip-rule:evenodd;fill:#3A3B38;}
	.st26{fill-rule:evenodd;clip-rule:evenodd;fill:#F1F0ED;}
	.st27{fill-rule:evenodd;clip-rule:evenodd;fill:#484846;}
	.st28{fill-rule:evenodd;clip-rule:evenodd;fill:#DEDED9;}
</style>
<path class="st0" d="M236.4,1834.1c0,0-117.1-290.1-109.3-593.9S205.7,763.4,319.9,614s338.4-425.5,642.2-431.7
	s481.2,156.9,608.5,315.8s157.3,452.8,130.6,597c-26.7,144.2,95.9,536.4,95.9,536.4s-3.1,84.4-36.4,201.9L236.4,1834.1z"/>
<g>
	<g>
		<path class="st1" d="M237.9,1832.6c0,0-222.2-606.8-38-1001.8c539.7-1157.7,1627.6-573.7,1501.3,264.3
			c-54.8,363.5,184.2,375.8,59.5,738.2L237.9,1832.6z"/>
	</g>
	<g>
		<g>
			<path class="st2" d="M955.9,1806.6l0-9.6c0,0-44.4-49.3-58-74.4l-37.5-69.2l-49.1,12.1l62.3,88.3L955.9,1806.6z"/>
			<path class="st3" d="M682,536.1c8.6-35.3-3.9-51.7-15.1-60.4c-5.3-13-11.4-22.3-17.6-25.9c-11.3-6.4-24.9-7.1-34.4-6.6
				c2.4-2.5,7.3-3.4,7.3-3.4c-5.9-0.9-19,5-19,5c-81.9-31.5-94.7,89-93,117c1.7,28,1.5,61-41.1,83c-81.3,42.1,27,200.7,27,200.7
				c-2.1-22.6,102.3-142,156.8-177.8c13.3-19.5,18-54,18.3-56.7c-2.3,27.3-7,42.7-11.1,51.3C684.9,639.5,688.5,584.6,682,536.1z"/>
			<path class="st2" d="M649.6,669.5c0.3,0.1-26.3,13.9-46.3,8.5c-18.8-5.1-31.1-29.5-30.8-29.6c8-1.6,10.3-12.5,10.1-59.5l3.6,0.7
				l60.5,12c0,0-1.4,19-1.4,37C645.3,653.6,646.2,667.9,649.6,669.5z"/>
			<path class="st4" d="M646.7,601.5c0,0-1.4,19-1.4,37c-33.9-1-51.8-31.8-59.1-49L646.7,601.5z"/>
			<path class="st5" d="M888,1698.4l-32.1,1l-34.7,1.1c0,0-80.2-89.3-125.2-232.5c-1-3.3-2.2-6.7-3.3-10.1
				C668,1386.1,617,1296,590.1,1214.4c-4.3-13-8.1-25.2-11.6-36.8c-1.1-3.7-2.2-7.3-3.2-10.9c-19.8-68.9-25.6-114.1-30.9-162.4
				l194.2,1.6C738.7,1005.8,770,1335.8,888,1698.4z"/>
			<path class="st6" d="M711.5,894.2c-0.5,92.4,13.6,132.1,13.6,132.1s-83.2,42.3-182,11.2c-1.2-0.4-63.6-17.1-63.6-17.1
				c1.7-3.7,16.4-66,18-69.5c20.9-44.8,18.5-66.2,20.9-80c4.6-25.7,4.7-52.3,2.4-77.4c-6-66.5-24-121.6-24-121.6
				c26.9-6.1,52.2-16.9,80.2-27.4c6.4,8,26.2,16.4,43.3,16c19.7-0.4,26.1-8.9,25.1-18.1c21,11.7,37.7,22.7,37.7,22.7
				c17.8,31,54,61.1,56.6,108.6C740.3,785.4,711.5,891.6,711.5,894.2z"/>
			<path class="st2" d="M658,618.5c0,0-80.1,1.3-80.2-48.6c-0.1-49.9-10.4-83.4,40.7-86.3c51.2-3,61.1,16.1,65.2,32.7
				C687.8,533,678.9,616.9,658,618.5z"/>
			<path class="st3" d="M655.1,482.4c0,0-21.9,58.6-55.6,67.2c-33.7,8.7-48.3-0.4-48.3-0.4s5.3-30.1,10.6-65.9
				C561.8,483.3,638.5,454.5,655.1,482.4z"/>
			<path class="st3" d="M649.6,487.1c0,0,16.4,13.1,20.4,25.8c4,12.7,5.8,38.9,13.4,38c0,0,16.5-39.8-2-62.3
				C661.7,464.7,649.6,487.1,649.6,487.1z"/>
			<path class="st2" d="M598,1794.6c-2.7-15-7.9-40.9-7.9-40.9l1.2-92h-55.9l20.9,88.1c0.4,4.1,1.6,20-4.3,36.8
				c0,0-5.4,24.5,18.7,24.9C594.8,1811.8,600.7,1809.6,598,1794.6z"/>
			<path class="st7" d="M552,1786.5c0,0-4.5,29.3-1.8,41.5c0,0,7.1,0.5,24.6,0.5c16.6,0,25.5-0.5,25.5-0.5s0.5-31.5-3.9-42.1
				C596.4,1785.8,579.3,1811.5,552,1786.5z"/>
			<polygon class="st2" points="784.1,958.3 822,1073.7 800.4,1082.4 737.8,980.4 			"/>
			<path class="st7" d="M984.5,1828c0,0-48.4,0.9-56.5,0c-8.2-0.9-14.5-15.7-23.4-33.4c-3.6-7.3-11.8-11.2-20.1-13.4l0.4,46.9h-12.3
				l-12.7-49.5c-7.9-14.5-1.9-27.5,3.6-38.9c6.4,0,25,4.3,57.8,41.3c10.8,12.1,22.7,16.5,34.5,16.1c0.2,0.1,0.3,0.2,0.5,0.3
				C983.7,1809.5,984.5,1828,984.5,1828z"/>
			<path class="st5" d="M793.5,969.6c0,0-5.9-15.1-13.6-34.1c-7.8-19-27.3-204.2-40.3-231.8c-12.9-27.6-57.5-45.3-57.5-45.3
				l-36.8-15.9c0,0,46.4,114.5,47.7,137.7c1.4,23.2,5.5,379,5.5,379s-2.7,16.4,28.6,9.5c31.4-6.8,39.5-13.6,39.5-13.6
				s-11.4-83.3-18.2-165.2C771,988.5,793.5,969.6,793.5,969.6z"/>
			<path class="st7" d="M855.9,1699.4l-34.7,1.1c0,0-80.2-89.3-125.2-232.5c-1-3.3-2.2-6.7-3.3-10.1
				C668,1386.1,617,1296,590.1,1214.4c-4.3-13-8.1-25.2-11.6-36.8c-1.1-3.7-2.2-7.3-3.2-10.9l28.6-21.7c0,0,85.9,139.1,112.5,270
				C739.4,1528.6,831.9,1665.4,855.9,1699.4z"/>
			<path class="st5" d="M606.9,1427.1c0.5,63.6-2.7,210-11,270.5h-30.8c-17,0-25.5-0.2-25.5-0.2c-20.8-105.3-35.6-192.5-46.4-267.6
				c-8.8-61.6-16.7-114.5-22.7-159.9c-6.1-45.8-10.3-84.1-11.8-116.5c-0.2-5.1-0.4-10.1-0.5-14.9c-0.1-4.8-0.1-9.5-0.1-14.1
				l167.8-16.4C623.8,1219.6,606.6,1390.1,606.9,1427.1z"/>
			<path class="st7" d="M565.1,1697.7c-17,0-25.5-0.2-25.5-0.2c-20.8-105.3-35.6-192.5-46.4-267.6c-8.8-61.6-16.7-114.5-22.7-159.9
				c-6.1-45.8-10.3-84.1-11.8-116.5l61.6,36.2c0,0-39.3,13.9-24.3,118.9C511,1413.5,544.2,1682.8,565.1,1697.7z"/>
			<path class="st5" d="M573,1152.4c0,0-11.8,42.7-52.7,37.3c-40.9-5.5-99.1-30-99.1-30s17.5-55.2,39.2-127.8
				c26.3-87.8,58.9-201.1,74.2-272.5c4.3-20,7.3-36.7,8.3-48.7l33.9-65.8c0,0,50.6,113.6,53.3,142.2
				C633,815.6,573,1152.4,573,1152.4z"/>
			<path class="st2" d="M532.2,782.7L577,644.8c-0.1,0.1-56.6,16.8-85,31.1c0,0-17.7,22.9-28.7,75.7c0,0-11.6,126.7,14.3,173.1
				c0,0,81.8,16.4,212.7-28.6v-30c0,0-143.2,7.5-172.5,10.9L532.2,782.7z"/>
			<path class="st7" d="M571.2,847c-1.8,46.4-12.7,136.3-110,184.5c-0.3,0.1-0.5,0.3-0.8,0.4c26.3-87.8,58.9-201.1,74.2-272.5
				C552.5,786,572.2,821.4,571.2,847z"/>
			<path class="st5" d="M577,644.8c0,0-83,5.8-103,50.4c-20,44.5-26.4,192.7-0.9,236.3c0,0,35,10,97-1.6c0.8-0.1,1.5-0.3,2.3-0.4
				c0,0,19.8-48.4,2-57.9c0,0-52.3,2.7-46.8-14.5C533,839.7,577,644.8,577,644.8z"/>
			<g>
				<path class="st3" d="M785.1,884.6l-2.4,7.9l-136.2-42.4c0,0-1.8-2.1-0.9-4.8c1-3,3.4-3,3.4-3L785.1,884.6z"/>
				<polygon class="st3" points="795,892 785.1,884.6 782.7,892.4 				"/>
			</g>
			<path class="st2" d="M816.6,1070.6c0,0,34.6,19.1,39.1,33.7c4.5,14.6,1.4,45-4.1,44.6c-5.5-0.5-13.7-32.7-18.2-35
				c-4.5-2.3-10.9-9.1-10.9-4.1c0,5,4.5,14.1,2.3,15.5c-2.3,1.4-9.5-12.7-14.6-15.5c-5-2.7-7.1-25.2-12-31.3
				C793.4,1072.4,816.6,1070.6,816.6,1070.6z"/>
			<path class="st2" d="M690.3,866.1c0,0,30.9-19,43.9-16.1c13,2.9,46,26.9,30.1,32c-15.9,5.2-28.8-0.3-34.9,3.5
				c-6.1,3.8-10.6,10.6-39.1,10.6C661.8,896,690.3,866.1,690.3,866.1z"/>
		</g>
		<g>
			<g>
				<path class="st2" d="M1000.2,864.1c0,0-36.4-6.5-43.5-12c-7-5.5-2.5-8.3-0.3-17.6c4.3-18.1,1.6-8.4,8.9-9.2
					c7.3-0.8,1.7-5.4,1.6-9.1c0-3.7-1.6-7.5,5-6.8c6.6,0.7,22.5,21.7,35.8,29.7C1021.1,847,1000.2,864.1,1000.2,864.1z"/>
				<path class="st8" d="M1342.9,652.3c0,0,38.8,163.6-106.2,290.2c-45.3,39.5-242.6-76.9-242.6-76.9s0.4-19.5,19.1-27.7
					c0,0,155.5,23.6,173.9,25.2c16.4,1.4,49.5-132,89.6-176.6C1307.8,652,1342.9,652.3,1342.9,652.3z"/>
				<g>
					<path class="st8" d="M1623.7,1721.2c0,0,22.9,20.9,18.5,35.8c-4.5,14.9-25.2,24.8-28,42.9c-2.8,18.2-14,28.1-24,28.1
						c-10.1,0-48,0-48,0s-7.4-12.8,10.5-16.6c17.9-3.9,24.6-25.2,23.5-45c-1.1-19.8,1.7-46.2,1.7-46.2l38-8.8L1623.7,1721.2z"/>
					<path class="st8" d="M1343.3,1775.8c0,0,4.1,47.6-5.9,52.6l-128,0.1c0,0-0.8-15.3,19.9-18.6c20.7-3.3,57-15.4,63.2-42.4
						C1298.6,1740.5,1343.3,1775.8,1343.3,1775.8z"/>
					<path class="st9" d="M1233.7,1102.4c0,0,6.8,83.5,14.8,183.8c10.9,136.3,23.9,303.7,25.2,335.4c2.2,55.1,11.2,143.1,11.2,143.1
						s21.2,20.9,63.7,12.1c0,0,37.9-125.7,48.7-258.8c0.2-2.2,0.3-4.4,0.5-6.6c10.1-135.4,25.7-420.6,25.7-420.6L1233.7,1102.4z"/>
					<path class="st10" d="M1233.7,1102.4c0,0,6.8,83.5,14.8,183.8l148.8,231.8c0.2-2.2,0.3-4.4,0.5-6.6
						c10.1-135.4,25.7-420.6,25.7-420.6L1233.7,1102.4z"/>
					<path class="st9" d="M1264.7,1112.3c0,0,122.4,302.2,202.9,444.3c80.5,142,105.7,181.7,105.7,181.7s46.1-18.2,50.3-30.6
						c0,0-30.8-274.2-84.7-341c-30.5-37.8-66.3-151.1-67.9-190.8c-1.7-39.6-10.9-118.1-10.9-118.1L1264.7,1112.3z"/>
				</g>
				<path class="st2" d="M1425.8,646.5c0,0-82.8,40-130.6,25.1c0,0,11.8-14.8,32.3-25.9c-1.7-9.6-2.9-17.9-3.7-25
					c-2-16.3-2-25.5-2-25.5l32-25.1l30.3-24.1C1381.7,613.8,1425.8,646.5,1425.8,646.5z"/>
				<path class="st11" d="M1228.5,1109.3c1.5,1.3,3.1,2,5,2c18-0.4,70.3,9.6,114.6,5.1c37.5-3.6,70.5-14.5,106-30
					c4.8-2.2,15.6-8,15.4-13c-0.2-5.8-0.7-13.9-1.5-24.4c-1.5-20.7-3.6-50-4.2-84.8c-1.3-65.3,2.8-80.2,2.8-124.7
					c0.3-61.6-8.9-175-58.4-211.3c-3.3-2.5-23.9,7.4-43,16.6c-17.5,8.5-34.9,9.4-51.4,6.2l-16.5,14.5c-20,18.3-42.1,43.4-51.8,81.4
					c-8.1,32.2-12.9,90.4-15.4,150.9c-2.2,48.3-2.8,89.3-2.8,90.3C1226.3,1055,1227.2,1108.4,1228.5,1109.3z"/>
				<path class="st12" d="M1384.7,572c0,0-20.9,38.2-60.8,48.8c-2-16.3-2-25.5-2-25.5l32-25.1L1384.7,572z"/>
				<path class="st2" d="M1307.3,594.2c0,0,79,12.9,86.5-35.7c7.4-48.6,22.6-79.6-27.5-89.9c-50.1-10.3-62.8,6.8-69.3,22.4
					C1290.4,506.6,1286.9,589.6,1307.3,594.2z"/>
				<path class="st13" d="M1422.5,462.8c0.7-0.8,2.4-1.5,6.1-1.7c0,0-2.9-1.8-6.9-1.9c-0.8-5.1-3.5-14.2-12.3-16.4
					c0,0,4.7,2.5,5.4,8c-10.2-10.5-32.1-18.1-92.7-13.3c-79.8,6.3-53.5,57.4-43.2,63.5c10.3,6.1,36.3-10.6,55.6-9.1
					c19.3,1.5,22.9,29.4,29.4,33.2c6.5,3.8,4-2.9,12.8-6.9c8.8-4,9.7,10.6,7.1,20.2c-2.6,9.5,9.6,22.1,9.6,22.1s0,0,12.3-13.2
					c12.3-13.2,23.8-69.2,18.3-81.1C1423.5,464.9,1423,463.9,1422.5,462.8z"/>
				<path class="st8" d="M1463.8,964c-0.5-25.8-0.2-54.6,1.7-85.1c0.1-2,0.2-4.1,0.3-6.2c-7.5-37.2-18.9-70.2-35.6-71.3
					C1430.1,801.5,1380.3,879.8,1463.8,964z"/>
				<path class="st2" d="M1529.7,1099.1c0,0-4.2,40.4-8.7,48c-4.6,7.6-24,32-32.2,36.8c-8.3,4.8,5-32.2,3.4-39.4
					c-1.7-7.2-6.8,13.1-10.4,13.6c-3.6,0.5-2.7-17.8-2.8-24.5c-0.1-6.7,17.7-23.1,24-37.2
					C1509.2,1082.3,1529.7,1099.1,1529.7,1099.1z"/>
				<path class="st11" d="M1408.1,627.7c0,0,50,23.7,74,60.1c37.2,56.5,80.3,262.3,81.1,281.3c0.8,19.1-31.5,153.6-31.5,153.6
					s-32.7-2.2-41.2-18.7c0,0,6.5-138.2,2.4-147.1c-4.1-8.9-136.4-185.4-121.5-223.1C1386.3,696.2,1408.1,627.7,1408.1,627.7z"/>
			</g>
			<g>
				
					<rect x="956.3" y="739.2" transform="matrix(0.9733 0.2296 -0.2296 0.9733 223.5982 -215.7354)" class="st14" width="165.2" height="227.8"/>
				
					<rect x="952.2" y="738.2" transform="matrix(0.9733 0.2296 -0.2296 0.9733 223.2679 -214.8143)" class="st15" width="165.2" height="227.8"/>
				
					<rect x="963.5" y="753.8" transform="matrix(0.9733 0.2296 -0.2296 0.9733 223.2629 -214.8103)" class="st16" width="142.5" height="196.6"/>
				<g>
					<g>
						<path class="st17" d="M1106.4,798.6c-0.2,0-0.4,0-0.6-0.1l-106.7-25.2c-1.3-0.3-2.1-1.6-1.8-3c0.3-1.3,1.6-2.1,3-1.8
							l106.7,25.2c1.3,0.3,2.1,1.6,1.8,3C1108.5,797.9,1107.5,798.6,1106.4,798.6z"/>
					</g>
					<g>
						<path class="st17" d="M1102,813.7c-0.2,0-0.4,0-0.6-0.1l-106.7-25.2c-1.3-0.3-2.1-1.6-1.8-3c0.3-1.3,1.6-2.1,3-1.8l106.7,25.2
							c1.3,0.3,2.1,1.6,1.8,3C1104.1,812.9,1103.1,813.7,1102,813.7z"/>
					</g>
					<g>
						<path class="st17" d="M1097.3,828.7c-0.2,0-0.4,0-0.6-0.1l-106.7-25.2c-1.3-0.3-2.1-1.6-1.8-3c0.3-1.3,1.6-2.1,3-1.8
							l106.7,25.2c1.3,0.3,2.1,1.6,1.8,3C1099.5,828,1098.5,828.7,1097.3,828.7z"/>
					</g>
					<g>
						<path class="st17" d="M1092.9,843.8c-0.2,0-0.4,0-0.6-0.1l-106.7-25.2c-1.3-0.3-2.1-1.6-1.8-3c0.3-1.3,1.6-2.1,3-1.8
							l106.7,25.2c1.3,0.3,2.1,1.6,1.8,3C1095.1,843,1094.1,843.8,1092.9,843.8z"/>
					</g>
				</g>
				<path class="st9" d="M1083.4,769.5l-55.1-13c-1.6-0.4-2.7-2.1-2.3-3.7l4.3-18.4c0.4-1.6,2-2.7,3.7-2.3l55.1,13
					c1.6,0.4,2.7,2.1,2.3,3.7l-4.3,18.4C1086.7,768.8,1085,769.9,1083.4,769.5z"/>
			</g>
			<path class="st2" d="M969.6,834.4c1.9-6.6-5.4-25.6-9-27.9c-3.6-2.3-7.8,7.8-11.3,20.3c-3.5,12.5-1.7,23.4,1.1,23.9
				C953.3,851,967.9,840.4,969.6,834.4z"/>
		</g>
	</g>
	<path class="st18" d="M1870.6,1836.9H129.4c-2.6,0-4.6-2.1-4.6-4.6l0,0c0-2.6,2.1-4.6,4.6-4.6h1741.1c2.6,0,4.6,2.1,4.6,4.6l0,0
		C1875.2,1834.8,1873.1,1836.9,1870.6,1836.9z"/>
</g>
<desc>Created with Sketch.</desc>
<g id="Manager-giving-document-to-female-boss">
	<g id="Group" transform="translate(904.000000, 907.000000)">
		<path id="Fill-52" class="st19" d="M73.5,778.4c0,0,236.6,21.6,282,21.6s101.6-21.6,146.9-21.6s1468.3,0,1526.6,0
			s345.7-31.3,417-40c71.3-8.6,144.8-8.6,163.1-44.3c18.4-35.6,28.1-163.1,17.3-194.4c-10.8-31.3-25.9-24.9-41-79.9
			c-15.1-55.1-51.9-183.7-64.8-191.2s-146.9-16.2-280.9-63.7c-134-47.5-299.3-131.8-544.5-154.5s-465.7-9.7-645,56.2
			c-179.3,65.9-420.3,206.3-487.3,220.4c-67,14-282,46.4-397.6,105.9C49.7,452.2,30.3,498.6,16.2,561.3
			c-14,62.7-8.9,133.1-12.2,142.9s-4.9,19.4,0,29.2C8.9,743,26.8,774.2,73.5,778.4"/>
		<g id="Group-55" transform="translate(0.000000, 373.000000)">
			<g id="Clip-54">
			</g>
			<defs>
				<filter id="Adobe_OpacityMaskFilter" filterUnits="userSpaceOnUse" x="1" y="4" width="2630" height="423">
					<feColorMatrix  type="matrix" values="1 0 0 0 0  0 1 0 0 0  0 0 1 0 0  0 0 0 1 0"/>
				</filter>
			</defs>
			
				<mask maskUnits="userSpaceOnUse" x="1" y="4" width="2630" height="423" id="mask-2_00000109005132313053668310000000329084811937872516_">
				<g class="st20">
					<path id="path-1_00000092444384953246056150000014125420835189842875_" class="st21" d="M16.2,188.2
						c-14,62.7-8.9,133.2-12.2,142.9s-4.9,19.5,0,29.2c4.9,9.7,22.8,40.9,69.4,45.1c0,0,236.6,21.6,282,21.6s101.6-21.6,146.9-21.6
						s1468.3,0,1526.6,0s345.7-31.3,417-40c71.3-8.6,144.8-8.6,163.1-44.3c18.4-35.7,28.1-163.2,17.3-194.5
						c-10.8-31.3-25.9-24.9-41-80c-3.2-11.6-7.3-26.4-12-42.6L25.7,153.3C21.9,164.4,19,176,16.2,188.2"/>
				</g>
			</mask>
			
				<linearGradient id="Fill-53_00000106117584125682719560000014862649636259646393_" gradientUnits="userSpaceOnUse" x1="-863.5125" y1="261.615" x2="-863.4968" y2="261.5977" gradientTransform="matrix(2630 0 0 -423 2272361 110868)">
				<stop  offset="0" style="stop-color:#C1C1BD"/>
				<stop  offset="1" style="stop-color:#A1A19D"/>
			</linearGradient>
			
				<path id="Fill-53" style="mask:url(#mask-2_00000109005132313053668310000000329084811937872516_);fill-rule:evenodd;clip-rule:evenodd;fill:url(#Fill-53_00000106117584125682719560000014862649636259646393_);" d="
				M16.2,188.2c-14,62.7-8.9,133.2-12.2,142.9s-4.9,19.5,0,29.2c4.9,9.7,22.8,40.9,69.4,45.1c0,0,236.6,21.6,282,21.6
				s101.6-21.6,146.9-21.6s1468.3,0,1526.6,0s345.7-31.3,417-40c71.3-8.6,144.8-8.6,163.1-44.3c18.4-35.7,28.1-163.2,17.3-194.5
				c-10.8-31.3-25.9-24.9-41-80c-3.2-11.6-7.3-26.4-12-42.6L25.7,153.3C21.9,164.4,19,176,16.2,188.2"/>
		</g>
		<path id="Fill-56" class="st23" d="M2067.6,283c-6.4-10.4-12.9-20-19.8-30.2c-12.5-18.3-25.4-37.3-38.4-62.8l-5.8,2.9
			c13.2,25.8,26.2,45,38.8,63.5c6.9,10.1,13.4,19.6,19.7,29.9c18.8,30.7,22.6,61.5,10.5,84.3c-7.8,14.7-77.2,90.6-144.3,163.9
			c-48.9,53.5-95.1,104-117.2,130.5c-49.6,59.5-95.4,64.5-134.5,64.5h-253.8c-0.1-21.2-0.7-146.2,0-287.6
			c0.8-153.4,18.2-196.9,18.4-197.3l-6-2.5c-0.7,1.8-18.1,44.5-18.9,199.8c-0.7,141.4-0.1,266.3,0,287.7H798.5
			c-37.5,0-40.9-8.5-44.8-18.2c-2.9-7.3-13.3-42.8-24.9-194.3c-10.4-135.4,8.6-199.9,8.8-200.6l1.3-4.2h-4.4
			c-0.5,0-13.7,0.1-42.1,6.6c-26.4,6-63,11.4-102.4,16.2c10.3-14.5,31.4-44.7,34-52.6c0.6-1.9,0.4-3.9-0.8-5.7
			c-1.8-2.9-6.4-5.3-11.8-7.3c-3.2,1.4-6.2,2.7-9.2,3.9c9.2,2.5,15.3,5.2,15.5,7.1c-2.4,7.2-25.8,40.6-36.6,55.7
			c-28.3,3.4-57.6,6.6-85.6,9.6c-53.1,5.7-99,10.7-117.9,15.3c-22.3,5.5-82,25.3-134.6,42.9c-49.3,16.4-95.9,31.9-103.4,32.9
			c-7.8,1-20.1-5.4-30.2-11.9c-2,1.3-3.8,2.7-5.7,4c10.6,7.1,26,15.7,36.7,14.3c8.2-1.1,52.8-15.9,104.6-33.2
			c52.5-17.5,112-37.3,134.1-42.7c18.4-4.5,64.1-9.4,117.1-15.1c28.7-3.1,59-6.4,88-9.9l0.3,0.2l0.2-0.3c41.9-5.1,81-10.7,109-17.1
			c18.5-4.2,30.5-5.7,36.3-6.2c-4.1,16.7-16.9,80.2-7.8,198.5c11.3,148.3,21.5,186.7,25.4,196.2c5.4,13.5,11.8,22.3,50.8,22.3h878
			c29.3,0,83.8,0,139.5-66.8c22-26.3,68.1-76.8,117-130.2c67.4-73.6,137-149.8,145.2-165.3C2091.5,348.8,2087.6,315.7,2067.6,283"/>
		<path id="Fill-58" class="st24" d="M502.3,778.4c9.2,0,74.8,0,174.2,0c4.1-17.4,6.5-35.5,6.5-54.1c0-130-105.2-235.3-235-235.3
			S213,594.3,213,724.3c0,23.3,3.5,45.7,9.8,67c56.9,4.6,112.8,8.7,132.6,8.7C400.8,800,456.9,778.4,502.3,778.4"/>
		<path id="Fill-59" class="st25" d="M655,725c0,114.3-92.9,207-207.5,207C332.9,932,240,839.3,240,725s92.9-207,207.5-207
			C562.1,518,655,610.7,655,725"/>
		<path id="Fill-60" class="st26" d="M590,724.5c0,78.1-63.6,141.5-142,141.5c-78.4,0-142-63.3-142-141.5
			c0-78.2,63.6-141.5,142-141.5C526.4,583,590,646.3,590,724.5"/>
		<path id="Fill-63" class="st27" d="M1435.2,32.5c-64,2.8-138.4,0.8-255,26c-116.6,25.2-308.5,127.4-386.2,176.1S649,332,649,332
			s422.7-34.1,646.9-52c224.3-17.9,587-41.4,630.7-46.3c43.7-4.9,210.5-52,207.3-60.9C2130.7,164,1844.1,14.6,1435.2,32.5"/>
		<path id="Fill-64" class="st25" d="M1376.8,260.9c8-0.6,7.4-3.4,9.4-11.2c2-7.7,24-179.2,25.3-186.8c1.2-7.6,0.9-17.1-5-16.9v0
			c-1.3,0-2.5,0.1-3.9,0.1c-58,1.8-123.7,3.8-219.9,24.6c-118.2,25.6-311.6,130.9-381.7,175c-15.2,9.6-30.1,19.2-44.1,28.4
			c-23.4,15.4-18,37.9,9.7,35.7c141.8-11.5,378.9-30.6,528.1-42.5C1320.3,265.2,1348,263.1,1376.8,260.9"/>
		<path id="Fill-65" class="st28" d="M379.6,364c-73,10.6-168.8,36.5-224.9,60.1c-56,23.6-95.8,68.2-92.5,85.3
			c3.2,17,91.7-0.8,155-30.1C280.5,450.1,387.5,362.9,379.6,364"/>
		<path id="Fill-68" class="st27" d="M45,709c21.5,0,43.2-14.9,48.6-34.3l10.9-39.6c6.6-23.6-8.9-44.1-34.9-44.1H11.2
			C4,644.5,7.1,695.9,4.4,704.1c-0.5,1.6-0.9,3.3-1.4,4.9H45"/>
	</g>
</g>
</svg>
