<?xml version="1.0" encoding="utf-8"?>
<!-- Generator: Adobe Illustrator 26.1.0, SVG Export Plug-In . SVG Version: 6.00 Build 0)  -->
<svg version="1.1" xmlns="http://www.w3.org/2000/svg" xmlns:xlink="http://www.w3.org/1999/xlink" x="0px" y="0px"
	 viewBox="0 0 176.1 110.2" style="enable-background:new 0 0 176.1 110.2;" xml:space="preserve">
<style type="text/css">
	.st0{fill:#414042;}
	.st1{fill:#1C75BC;}
</style>
<g id="Layer_1">
</g>
<g id="Layer_2">
</g>
<g id="Layer_3">
</g>
<g id="_x3C_Layer_x3E_">
	<g>
		<g>
			<path class="st0" d="M113.7,53c0.1-0.1,0.1-0.3,0.2-0.4h-4.7c-2.1,3.1-4.9,5.9-8.3,7.9c-11.7,6.8-26.6,3.3-34-7.9h-8.7
				c-0.5,0.7-0.8,1.2-0.8,1.2l0.9,1.6l0,0l0,0l0,0l0,0l1,1.6c0,0,2.2,0.1,4.8-1.2c1,1.4,2.1,2.7,3.3,3.8c-1.6,2.4-1.7,4.6-1.7,4.6
				l1.5,1.1l0,0l0,0l0,0l0,0l1.5,1.1c0,0,2-0.7,3.9-2.8c1.5,0.9,3,1.7,4.6,2.3c-0.5,2.7,0.2,4.8,0.2,4.8l1.8,0.5l0,0l0,0l0,0l0,0
				l1.8,0.4c0,0,1.6-1.4,2.5-4c1.7,0.3,3.4,0.4,5.2,0.3c0.6,2.7,2,4.3,2,4.3l1.8-0.2l0,0l0,0l0,0l0,0l1.8-0.3c0,0,0.9-1.9,0.8-4.7
				c1.7-0.4,3.5-1.1,5.1-1.8c1.6,2.2,3.4,3.1,3.4,3.1l1.6-0.9l0,0l0,0l0,0l0,0l1.6-1c0,0,0.1-2.1-1.1-4.6c1.4-1.1,2.7-2.3,3.8-3.5
				c2.4,1.5,4.5,1.7,4.5,1.7l1.1-1.5l0,0l0,0l0,0l0,0l1.1-1.5C116.7,57,115.9,54.9,113.7,53z"/>
			<path class="st1" d="M117.3,42C117.3,42,117.3,42,117.3,42c0.1-1.5,0.2-3,0.1-4.4c0,0,0,0,0,0c3-0.5,4.8-2.1,4.8-2.1l-0.2-1.8
				l0,0l0,0l0,0l0,0l-0.3-1.8c0,0-2.2-1-5.2-0.7c0,0-0.1,0-0.1,0c-0.4-1.5-1-3.1-1.6-4.6c0.1-0.1,0.2-0.1,0.2-0.2
				c2.6-1.6,3.6-3.8,3.6-3.8l-0.9-1.6l0,0l0,0l0,0l0,0l-1-1.6c0,0-2.4-0.1-5.1,1.3c-0.1,0.1-0.2,0.1-0.3,0.2c-1-1.3-2-2.5-3.2-3.5
				c0.1-0.1,0.2-0.2,0.2-0.3c1.7-2.5,1.9-4.9,1.9-4.9l-1.5-1.1l0,0l0,0l0,0l0,0l-1.5-1.1c0,0-2.2,0.8-4.2,3.2
				c-0.1,0.1-0.2,0.2-0.3,0.3c-1.4-0.8-2.8-1.5-4.3-2c0-0.2,0.1-0.3,0.1-0.4c0.7-3-0.1-5.2-0.1-5.2l-1.8-0.5l0,0l0,0l0,0l0,0
				l-1.8-0.4c0,0-1.8,1.6-2.6,4.5c0,0.1-0.1,0.3-0.1,0.4c-1.5-0.2-3-0.3-4.5-0.3c0-0.3-0.1-0.6-0.1-0.9c-0.5-3-2.1-4.8-2.1-4.8
				l-1.8,0.2l0,0l0,0l0,0l0,0L81.7,4c0,0-1,2.2-0.7,5.2C81,9.4,81,9.7,81,10c-1.6,0.4-3.1,0.9-4.6,1.5c-0.1-0.2-0.2-0.3-0.3-0.5
				c-1.6-2.6-3.8-3.6-3.8-3.6l-1.6,0.9l0,0l0,0l0,0l0,0l-1.6,1c0,0-0.1,2.4,1.3,5.1c0.1,0.1,0.2,0.3,0.2,0.4c-1.3,0.9-2.5,2-3.6,3.1
				c-0.1-0.1-0.2-0.2-0.3-0.2c-2.5-1.7-4.9-1.9-4.9-1.9l-1.1,1.5l0,0l0,0l0,0l0,0l-1.1,1.5c0,0,0.8,2.2,3.2,4.2
				c0.1,0.1,0.2,0.1,0.2,0.2c-0.8,1.4-1.6,2.8-2.2,4.3c-0.1,0-0.1,0-0.2,0c-3-0.7-5.2,0.1-5.2,0.1l-0.5,1.8l0,0l0,0l0,0l0,0
				l-0.4,1.8c0,0,1.6,1.8,4.5,2.6c0,0,0,0,0.1,0c-0.3,1.6-0.4,3.3-0.4,4.9c-3,0.5-4.8,2.1-4.8,2.1l0.2,1.8l0,0l0,0l0,0l0,0l0.3,1.8
				c0,0,2.1,1,5,0.7c0.4,1.6,0.9,3.2,1.5,4.7h4.5c-6-11.9-1.8-26.5,9.8-33.3c12.1-7.1,27.6-3,34.7,9.1c4.5,7.7,4.5,16.8,0.8,24.2
				h4.5c0.2-0.5,0.4-1.1,0.6-1.6c2.9,0.6,5.1-0.1,5.1-0.1l0.5-1.8l0,0l0,0l0,0l0,0l0.4-1.8C121.8,44.6,120.2,42.8,117.3,42z"/>
			<g>
				<path class="st1" d="M110.6,50h-8.4L99,36.9L92,48.1c-0.9,1.4-2.2,2.2-3.8,2.2c-0.8,0-1.6-0.2-2.4-0.6c-0.8-0.4-1.4-0.9-1.7-1.5
					l-7-11.1L73.9,50h-8.4L71.9,28c0.3-0.9,0.8-1.6,1.6-2.2c0.8-0.6,1.7-0.9,2.8-0.9c1.6,0,3,1,4.2,2.9l7.5,12.3l7.6-12.3
					c1.2-1.9,2.6-2.9,4.2-2.9c1.1,0,2,0.3,2.8,0.9c0.8,0.6,1.3,1.4,1.6,2.2L110.6,50z"/>
			</g>
		</g>
		<g>
			<path class="st1" d="M33,92.9h-5.3l-2.1-8.3l-4.4,7.1c-0.6,0.9-1.4,1.4-2.4,1.4c-0.5,0-1-0.1-1.5-0.4c-0.5-0.3-0.9-0.6-1.1-1
				l-4.4-7.1l-2,8.3H4.3L8.4,79c0.2-0.6,0.5-1,1-1.4c0.5-0.4,1.1-0.6,1.8-0.6c1,0,1.9,0.6,2.7,1.8l4.8,7.8l4.8-7.8
				c0.7-1.2,1.6-1.8,2.7-1.8c0.7,0,1.3,0.2,1.8,0.6c0.5,0.4,0.8,0.9,1,1.4L33,92.9z"/>
			<path class="st1" d="M51,88.8l-3.1,4.1H34V77.2H51l-3.1,4.1h-9v1.7h11.4L47.1,87h-8.3v1.9H51z"/>
			<path class="st1" d="M71.6,88.8l-3.1,4.1h-7.9c-2.7,0-5-0.8-6.8-2.3c-1.8-1.5-2.7-3.4-2.7-5.7c0-2.3,0.9-4.2,2.7-5.6
				c1.8-1.4,4-2.1,6.8-2.1h11l-3.1,4.1h-7.9c-1.3,0-2.4,0.4-3.3,1.1C56.4,83,56,84,56,85.1c0,1.1,0.4,2,1.3,2.7c0.9,0.7,2,1,3.3,1
				H71.6z"/>
			<path class="st1" d="M91.9,92.9h-4.9V87h-9.3v5.9h-4.9V77.2h4.9V83h9.3v-5.8h4.9V92.9z"/>
			<path class="st1" d="M100.7,92.9l2.9-4.1h6.6l-4.1-5.7L99,92.9h-6l10.1-14c0.3-0.5,0.8-0.9,1.3-1.2c0.6-0.4,1.2-0.6,1.8-0.6
				c0.6,0,1.2,0.2,1.8,0.6c0.5,0.3,1,0.7,1.3,1.2l9.8,14H100.7z"/>
			<path class="st1" d="M139.1,90.9c0,1.4-0.6,2.1-1.9,2.1c-0.9,0-1.8-0.3-2.7-1l-9.2-7.7v8.6h-4.9V79.2c0-0.6,0.2-1.1,0.6-1.4
				c0.4-0.4,0.9-0.6,1.6-0.6c0.9,0,1.7,0.3,2.5,0.9l9.2,7.7v-8.6h4.9V90.9z"/>
			<path class="st1" d="M146.4,92.9h-4.9V77.2h4.9V92.9z"/>
			<path class="st1" d="M171.8,77.2l-7.8,8l7.4,7.7h-6.2l-5.3-5.6l-5.4,5.6h-6.2l7.4-7.7l-7.8-8h6.3l5.6,5.8l5.6-5.8H171.8z"/>
		</g>
		<g>
			<path class="st0" d="M34,101.9c0.6,0.5,0.9,1.1,0.9,1.8c0,0.5-0.2,0.9-0.5,1.4c-0.4,0.6-1.1,1-1.9,1.3c-0.7,0.3-1.6,0.4-2.5,0.4
				h-8.1v-6.1h8.4c0.3,0,0.5,0,0.7-0.1c0.3-0.1,0.4-0.3,0.4-0.5s-0.1-0.4-0.4-0.5c-0.2-0.1-0.5-0.1-0.7-0.1h-8.4l2-2.5H30
				c0.9,0,1.7,0.1,2.5,0.4c0.8,0.3,1.5,0.8,1.9,1.3c0.3,0.4,0.5,0.9,0.5,1.4C34.8,100.8,34.5,101.4,34,101.9z M30.3,103.2h-5.4v1
				h5.4c0.3,0,0.6,0,0.9-0.1c0.4-0.1,0.6-0.2,0.6-0.4c0-0.2-0.2-0.3-0.6-0.4C30.9,103.2,30.6,103.2,30.3,103.2z"/>
			<path class="st0" d="M54.6,101.8c0,1.4-0.6,2.6-1.7,3.6c-1.1,0.9-2.5,1.4-4.2,1.4h-2.9c-1.7,0-3.1-0.5-4.2-1.4
				c-1.1-0.9-1.7-2.1-1.7-3.6s0.6-2.6,1.7-3.5c1.1-0.9,2.5-1.3,4.2-1.3h2.9c1.7,0,3.1,0.4,4.2,1.3C54,99.2,54.6,100.4,54.6,101.8z
				 M48.7,99.5h-2.9c-0.8,0-1.5,0.2-2.1,0.7c-0.5,0.4-0.8,1-0.8,1.7c0,0.7,0.3,1.3,0.8,1.7c0.5,0.4,1.2,0.6,2.1,0.6h2.9
				c0.8,0,1.5-0.2,2.1-0.6c0.5-0.4,0.8-1,0.8-1.7c0-0.7-0.3-1.3-0.8-1.7C50.2,99.7,49.5,99.5,48.7,99.5z"/>
			<path class="st0" d="M72.1,97l-1.9,2.5h-6.9c-0.4,0-0.6,0.1-0.6,0.4c0,0.3,0.2,0.4,0.6,0.4h5c1.2,0,2.2,0.3,3,0.9
				c0.8,0.6,1.2,1.4,1.2,2.4c0,1-0.4,1.7-1.2,2.3c-0.8,0.6-1.8,0.9-2.9,0.9h-8.9l1.9-2.5h7c0.3,0,0.6-0.1,0.9-0.2
				c0.3-0.1,0.5-0.3,0.5-0.6c0-0.2-0.2-0.4-0.5-0.6c-0.2-0.1-0.5-0.1-0.9-0.1h-5c-1.1,0-2-0.3-2.8-0.8c-0.8-0.5-1.2-1.3-1.2-2.2
				c0-0.9,0.4-1.6,1.2-2.2c0.7-0.5,1.7-0.8,2.8-0.8H72.1z"/>
			<path class="st0" d="M89.8,97l-1.9,2.5h-6.9c-0.4,0-0.6,0.1-0.6,0.4c0,0.3,0.2,0.4,0.6,0.4h5c1.2,0,2.2,0.3,3,0.9
				c0.8,0.6,1.2,1.4,1.2,2.4c0,1-0.4,1.7-1.2,2.3c-0.8,0.6-1.8,0.9-2.9,0.9H77l1.9-2.5h7c0.3,0,0.6-0.1,0.9-0.2
				c0.3-0.1,0.5-0.3,0.5-0.6c0-0.2-0.2-0.4-0.5-0.6c-0.2-0.1-0.5-0.1-0.9-0.1h-5c-1.1,0-2-0.3-2.8-0.8c-0.8-0.5-1.2-1.3-1.2-2.2
				c0-0.9,0.4-1.6,1.2-2.2c0.7-0.5,1.7-0.8,2.8-0.8H89.8z"/>
			<path class="st0" d="M117.2,100.7c0,1.1-0.5,2-1.4,2.7c-0.9,0.6-2,1-3.4,1h-5.1v2.4h-3v-5h8.4c0.4,0,0.8-0.1,1-0.3
				s0.4-0.5,0.4-0.8c0-0.3-0.1-0.6-0.4-0.8c-0.3-0.2-0.6-0.3-1-0.3h-8.4l2-2.5h6.1c1.3,0,2.5,0.3,3.4,1
				C116.7,98.7,117.2,99.6,117.2,100.7z"/>
			<path class="st0" d="M136.4,101.8c0,1.4-0.6,2.6-1.7,3.6c-1.1,0.9-2.5,1.4-4.2,1.4h-2.9c-1.7,0-3.1-0.5-4.2-1.4
				c-1.1-0.9-1.7-2.1-1.7-3.6s0.6-2.6,1.7-3.5c1.1-0.9,2.5-1.3,4.2-1.3h2.9c1.7,0,3.1,0.4,4.2,1.3
				C135.9,99.2,136.4,100.4,136.4,101.8z M130.5,99.5h-2.9c-0.8,0-1.5,0.2-2.1,0.7c-0.5,0.4-0.8,1-0.8,1.7c0,0.7,0.3,1.3,0.8,1.7
				c0.5,0.4,1.2,0.6,2.1,0.6h2.9c0.8,0,1.5-0.2,2.1-0.6c0.5-0.4,0.8-1,0.8-1.7c0-0.7-0.3-1.3-0.8-1.7
				C132.1,99.7,131.4,99.5,130.5,99.5z"/>
			<path class="st0" d="M153.9,97l-1.9,2.5h-6.9c-0.4,0-0.6,0.1-0.6,0.4c0,0.3,0.2,0.4,0.6,0.4h5c1.2,0,2.2,0.3,3,0.9
				c0.8,0.6,1.2,1.4,1.2,2.4c0,1-0.4,1.7-1.2,2.3c-0.8,0.6-1.8,0.9-2.9,0.9h-8.9l1.9-2.5h7c0.3,0,0.6-0.1,0.9-0.2
				c0.3-0.1,0.5-0.3,0.5-0.6c0-0.2-0.2-0.4-0.5-0.6c-0.2-0.1-0.5-0.1-0.9-0.1h-5c-1.1,0-2-0.3-2.8-0.8c-0.8-0.5-1.2-1.3-1.2-2.2
				c0-0.9,0.4-1.6,1.2-2.2c0.7-0.5,1.7-0.8,2.8-0.8H153.9z"/>
		</g>
	</g>
</g>
<g id="Layer_5">
</g>
</svg>
