<?xml version="1.0" encoding="utf-8"?>
<!-- Generator: Adobe Illustrator 26.1.0, SVG Export Plug-In . SVG Version: 6.00 Build 0)  -->
<svg version="1.1" xmlns="http://www.w3.org/2000/svg" xmlns:xlink="http://www.w3.org/1999/xlink" x="0px" y="0px"
	 viewBox="0 0 77.5 75.3" style="enable-background:new 0 0 77.5 75.3;" xml:space="preserve">
<style type="text/css">
	.st0{fill:#414042;}
	.st1{fill:#1C75BC;}
</style>
<g id="Layer_1">
</g>
<g id="Layer_2">
</g>
<g id="Layer_3">
</g>
<g id="_x3C_Layer_x3E_">
	<g>
		<g>
			<path class="st0" d="M64.4,52.8c0.1-0.1,0.1-0.3,0.2-0.4h-4.7c-2.1,3.1-4.9,5.9-8.3,7.9c-11.7,6.8-26.6,3.3-34-7.9H8.9
				c-0.5,0.7-0.8,1.2-0.8,1.2L9,55.1l0,0l0,0l0,0l0,0l1,1.6c0,0,2.2,0.1,4.8-1.2c1,1.4,2.1,2.7,3.3,3.8c-1.6,2.4-1.7,4.6-1.7,4.6
				l1.5,1.1l0,0l0,0l0,0l0,0l1.5,1.1c0,0,2-0.7,3.9-2.8c1.5,0.9,3,1.7,4.6,2.3c-0.5,2.7,0.2,4.8,0.2,4.8L30,71l0,0l0,0l0,0l0,0
				l1.8,0.4c0,0,1.6-1.4,2.5-4c1.7,0.3,3.4,0.4,5.2,0.3c0.6,2.7,2,4.3,2,4.3l1.8-0.2l0,0l0,0l0,0l0,0l1.8-0.3c0,0,0.9-1.9,0.8-4.7
				c1.7-0.4,3.5-1.1,5.1-1.8c1.6,2.2,3.4,3.1,3.4,3.1l1.6-0.9l0,0l0,0l0,0l0,0l1.6-1c0,0,0.1-2.1-1.1-4.6c1.4-1.1,2.7-2.3,3.8-3.5
				c2.4,1.5,4.5,1.7,4.5,1.7l1.1-1.5l0,0l0,0l0,0l0,0l1.1-1.5C67.4,56.7,66.6,54.6,64.4,52.8z"/>
			<path class="st1" d="M68,41.7C68,41.7,68,41.7,68,41.7c0.1-1.5,0.2-3,0.1-4.4c0,0,0,0,0,0c3-0.5,4.8-2.1,4.8-2.1l-0.2-1.8l0,0
				l0,0l0,0l0,0l-0.3-1.8c0,0-2.2-1-5.2-0.7c0,0-0.1,0-0.1,0c-0.4-1.5-1-3.1-1.6-4.6c0.1-0.1,0.2-0.1,0.2-0.2
				c2.6-1.6,3.6-3.8,3.6-3.8l-0.9-1.6l0,0l0,0l0,0l0,0l-1-1.6c0,0-2.4-0.1-5.1,1.3c-0.1,0.1-0.2,0.1-0.3,0.2c-1-1.3-2-2.5-3.2-3.5
				c0.1-0.1,0.2-0.2,0.2-0.3c1.7-2.5,1.9-4.9,1.9-4.9l-1.5-1.1l0,0l0,0l0,0l0,0L58,9.4c0,0-2.2,0.8-4.2,3.2
				c-0.1,0.1-0.2,0.2-0.3,0.3c-1.4-0.8-2.8-1.5-4.3-2c0-0.2,0.1-0.3,0.1-0.4c0.7-3-0.1-5.2-0.1-5.2l-1.8-0.5l0,0l0,0l0,0l0,0
				l-1.8-0.4c0,0-1.8,1.6-2.6,4.5c0,0.1-0.1,0.3-0.1,0.4c-1.5-0.2-3-0.3-4.5-0.3c0-0.3-0.1-0.6-0.1-0.9c-0.5-3-2.1-4.8-2.1-4.8
				l-1.8,0.2l0,0l0,0l0,0l0,0l-1.8,0.3c0,0-1,2.2-0.7,5.2c0,0.3,0.1,0.5,0.1,0.8c-1.6,0.4-3.1,0.9-4.6,1.5c-0.1-0.2-0.2-0.3-0.3-0.5
				c-1.6-2.6-3.8-3.6-3.8-3.6l-1.6,0.9l0,0l0,0l0,0l0,0l-1.6,1c0,0-0.1,2.4,1.3,5.1c0.1,0.1,0.2,0.3,0.2,0.4c-1.3,0.9-2.5,2-3.6,3.1
				c-0.1-0.1-0.2-0.2-0.3-0.2c-2.5-1.7-4.9-1.9-4.9-1.9L11.4,17l0,0l0,0l0,0l0,0l-1.1,1.5c0,0,0.8,2.2,3.2,4.2
				c0.1,0.1,0.2,0.1,0.2,0.2c-0.8,1.4-1.6,2.8-2.2,4.3c-0.1,0-0.1,0-0.2,0c-3-0.7-5.2,0.1-5.2,0.1L5.5,29l0,0l0,0l0,0l0,0l-0.4,1.8
				c0,0,1.6,1.8,4.5,2.6c0,0,0,0,0.1,0c-0.3,1.6-0.4,3.3-0.4,4.9c-3,0.5-4.8,2.1-4.8,2.1l0.2,1.8l0,0l0,0l0,0l0,0L5,44.3
				c0,0,2.1,1,5,0.7c0.4,1.6,0.9,3.2,1.5,4.7h4.5c-6-11.9-1.8-26.5,9.8-33.3c12.1-7.1,27.6-3,34.7,9.1c4.5,7.7,4.5,16.8,0.8,24.2
				h4.5c0.2-0.5,0.4-1.1,0.6-1.6c2.9,0.6,5.1-0.1,5.1-0.1l0.5-1.8l0,0l0,0l0,0l0,0l0.4-1.8C72.5,44.4,70.9,42.6,68,41.7z"/>
			<g>
				<path class="st1" d="M61.3,49.7h-8.4l-3.3-13.1l-6.9,11.1C41.8,49.3,40.6,50,39,50c-0.8,0-1.6-0.2-2.4-0.6
					c-0.8-0.4-1.4-0.9-1.7-1.5l-7-11.1l-3.2,13.1h-8.4l6.4-21.9c0.3-0.9,0.8-1.6,1.6-2.2c0.8-0.6,1.7-0.9,2.8-0.9c1.6,0,3,1,4.2,2.9
					l7.5,12.3l7.6-12.3c1.2-1.9,2.6-2.9,4.2-2.9c1.1,0,2,0.3,2.8,0.9c0.8,0.6,1.3,1.4,1.6,2.2L61.3,49.7z"/>
			</g>
		</g>
	</g>
</g>
<g id="Layer_5">
</g>
</svg>
