<?xml version="1.0" encoding="utf-8"?>
<!-- Generator: Adobe Illustrator 26.1.0, SVG Export Plug-In . SVG Version: 6.00 Build 0)  -->
<svg version="1.1" id="Layer_1" xmlns="http://www.w3.org/2000/svg" xmlns:xlink="http://www.w3.org/1999/xlink" x="0px" y="0px"
	 viewBox="0 0 100 100" style="enable-background:new 0 0 100 100;" xml:space="preserve">
<style type="text/css">
	.st0{fill:#1C75BC;}
</style>
<path class="st0" d="M83.3,50c0,18.4-14.9,33.3-33.3,33.3c-18.4,0-33.3-14.9-33.3-33.3c0-18.4,14.9-33.3,33.3-33.3
	c9.3,0,17.7,3.9,23.7,10l-12,0v6.7h20c1.8,0,3.3-1.5,3.3-3.3V10h-6.7v11.9C71.1,14.6,61.1,10,50,10c-22.1,0-40,17.9-40,40
	c0,22.1,17.9,40,40,40c22.1,0,40-17.9,40-40H83.3z"/>
<g>
	<path class="st0" d="M47.6,61.3v-8.8c-2.8-0.8-4.8-2-6.1-3.6c-1.3-1.6-1.9-3.5-1.9-5.8c0-2.3,0.7-4.2,2.2-5.8
		c1.5-1.6,3.4-2.5,5.8-2.7v-2.1h3.1v2.1c2.2,0.3,4,1,5.3,2.3c1.3,1.3,2.2,2.9,2.5,5l-5.3,0.7c-0.3-1.7-1.2-2.8-2.5-3.4v8.2
		c3.4,0.9,5.7,2.1,6.9,3.5c1.2,1.5,1.8,3.3,1.8,5.6c0,2.5-0.8,4.7-2.3,6.4c-1.5,1.7-3.7,2.8-6.4,3.2v3.9h-3.1v-3.8
		c-2.4-0.3-4.4-1.2-5.9-2.7c-1.5-1.5-2.5-3.7-2.9-6.4l5.5-0.6c0.2,1.1,0.6,2.1,1.3,2.9C46.2,60.3,46.9,60.9,47.6,61.3z M47.6,39.2
		c-0.8,0.3-1.5,0.8-2,1.4c-0.5,0.7-0.7,1.4-0.7,2.2c0,0.7,0.2,1.4,0.7,2.1c0.4,0.6,1.1,1.2,2,1.5V39.2z M50.7,61.6
		c1.1-0.2,1.9-0.7,2.6-1.5c0.7-0.8,1-1.7,1-2.7c0-0.9-0.3-1.8-0.8-2.4c-0.6-0.7-1.5-1.2-2.7-1.6V61.6z"/>
</g>
</svg>
