<?xml version="1.0" encoding="utf-8"?>
<!-- Generator: Adobe Illustrator 26.0.2, SVG Export Plug-In . SVG Version: 6.00 Build 0)  -->
<svg version="1.1" id="Capa_1" xmlns="http://www.w3.org/2000/svg" xmlns:xlink="http://www.w3.org/1999/xlink" x="0px" y="0px"
	 viewBox="0 0 2000 2001" style="enable-background:new 0 0 2000 2001;" xml:space="preserve">
<style type="text/css">
	.st0{fill:url(#SVGID_1_);}
	.st1{fill:#91B3FA;}
	.st2{fill:#FFFFFF;}
	.st3{fill:#BDD0FB;}
	.st4{fill:#7D97F4;}
	.st5{opacity:0.2;fill:#FFFFFF;}
	.st6{opacity:0.68;}
	.st7{fill:url(#SVGID_00000023273103931583022070000003659606917666725769_);}
	.st8{fill:url(#SVGID_00000000211818056063795860000010908582730689701308_);}
	.st9{fill:url(#SVGID_00000068663722597034439730000013238663555460132781_);}
	.st10{fill:url(#SVGID_00000183214440463448712730000009562015570846967719_);}
	.st11{fill:url(#SVGID_00000112600774545404964110000011950067218388743836_);}
	.st12{fill:url(#SVGID_00000083793973051210254370000000771922698436087694_);}
	.st13{fill:url(#SVGID_00000178163873441942671870000000909986429684085926_);}
	.st14{fill:url(#SVGID_00000147212683028779301330000005720900660853317305_);}
	.st15{fill:url(#SVGID_00000158010434015347907920000009146663941529452451_);}
	.st16{fill:url(#SVGID_00000039109632388184778350000013483183944637095555_);}
	.st17{fill:url(#SVGID_00000039124302013793232700000016726981687620409515_);}
	.st18{fill:url(#SVGID_00000065783695556275148740000007301863489494628539_);}
	.st19{fill:url(#SVGID_00000059310674786281033310000010944682039974439051_);}
	.st20{fill:url(#SVGID_00000145053016114109280800000014260147375812469403_);}
	.st21{fill:url(#SVGID_00000168095667743769629050000014576869485976180352_);}
	.st22{fill:url(#SVGID_00000052073302193452622380000001433922798920029584_);}
	.st23{fill:url(#SVGID_00000182498677437616704230000010020551738375253145_);}
	.st24{fill:url(#SVGID_00000129903863418712714590000013884091816140307898_);}
	.st25{fill:url(#SVGID_00000129197485696035334420000009365413119267978148_);}
	.st26{fill:url(#SVGID_00000139252966629118923600000004709901621383813520_);}
	.st27{fill:url(#SVGID_00000018918156717956846020000006392649808960653442_);}
	.st28{fill:url(#SVGID_00000175324307368861799060000003112967682343149999_);}
	.st29{fill:url(#SVGID_00000084498349556902683530000015406649095298214587_);}
	.st30{fill:url(#SVGID_00000040557161621306031740000008869111575225236382_);}
	.st31{fill:url(#SVGID_00000140729327018763992290000006853908204174204299_);}
	.st32{fill:url(#SVGID_00000110438865609444582240000000692800798052853669_);}
	.st33{fill:url(#SVGID_00000090269395802218667050000013125541017271745195_);}
	.st34{fill:url(#SVGID_00000119835837646135756490000001723313667884589456_);}
	.st35{fill:url(#SVGID_00000050657936252447019110000004882209744369067166_);}
	.st36{fill:url(#SVGID_00000161610882158422121110000010078491007258971547_);}
	.st37{opacity:0.7;fill:#FFFFFF;}
	.st38{fill:url(#SVGID_00000054967084418054141960000011169324125417692299_);}
	.st39{fill:url(#SVGID_00000140719457964010603170000011705882695402542766_);}
	.st40{fill:url(#SVGID_00000095300996214332521740000016460023488508790919_);}
</style>
<g>
	<desc>Created with Sketch.</desc>
	<g>
		<linearGradient id="SVGID_1_" gradientUnits="userSpaceOnUse" x1="1978.1621" y1="2101.7336" x2="705.9932" y2="728.5988">
			<stop  offset="0" style="stop-color:#DAE3FE"/>
			<stop  offset="1" style="stop-color:#E9EFFD"/>
		</linearGradient>
		<path class="st0" d="M1800.9,1319.2c-174.8,408.6-636.2,584.1-997.8,554.2c-98.7-8.2-297.3-24.6-452.4-171.3
			c-297.8-281.6-252-870.3,33.1-1216.9c36.7-44.6,290.9-343.7,686.9-339.7c289.9,2.9,493.5,166.7,518.2,187.1
			c31.3,25.8,100.2,87,162.4,184.2C1897.3,745.2,1910.1,1063.9,1800.9,1319.2z"/>
		<g>
			<path class="st1" d="M401.6,145c-0.8-7.2,8.3-11.1,13-5.6c48.5,55.1,162.3,217.2,105.4,476.1c-71.4,324.8-14.3,451.2,63.9,532.5
				c0,0-113.7-45.5-175.8-174.2C255.9,657.8,415.1,272.9,401.6,145z"/>
			<path class="st2" d="M432.3,251.5c3.2,37.2,5.6,74.5,6.7,111.8c1.3,37.3,1.4,74.6,0.4,111.8c-1.2,37.2-3,74.5-6.5,111.6
				c-3.3,37.1-8.1,74-13.1,111.1c-4.8,37.1-9.8,74.4-11.1,112.3c-1.3,37.9,1.9,76.5,12.1,113.3c2.5,9.2,5.3,18.4,8.5,27.3
				c3.1,9,6.5,17.9,10.2,26.6c7.4,17.6,15.9,34.7,25.6,51c19.6,32.7,44.2,62.4,71.9,88.3c2.9,2.7,7.5,2.6,10.2-0.4
				c2.7-2.9,2.6-7.3-0.2-10.1l0,0c-6.6-6.5-13.1-13-19.2-19.8c-3.1-3.4-6.1-6.8-9.2-10.3c-2.9-3.5-6-7-8.8-10.6
				c-11.5-14.3-21.9-29.4-31.2-45.2c-18.7-31.5-32.7-65.9-42.5-101.1c-4.7-17.7-8.1-35.7-10.1-53.8c-2-18.2-2.6-36.5-2.1-55
				c0.9-36.8,5.6-73.8,10.2-110.9c4.5-37.1,8.7-74.4,11.5-111.8c1.4-18.7,2.5-37.4,3.2-56.2c0.4-9.4,0.7-18.7,0.9-28.1
				c0.2-9.4,0.3-18.8,0.3-28.1c0.1-37.5-1-75-3.2-112.4c-2.4-37.4-5.8-74.7-10.7-111.8c-0.1-1.1-1.1-1.8-2.2-1.7
				C433,249.6,432.3,250.5,432.3,251.5z"/>
		</g>
		<g>
			<g>
				<path class="st3" d="M353.4,1257.7c-5,12.4-21,15.6-30.5,6.3c-52.7-51.3-188.5-209.8-165.7-462.6
					c19.2-213.5,9.4-331.1,1.2-384.1c-1.7-11.2,11.9-18.1,19.9-10.1C267.2,495.5,533.7,809.8,353.4,1257.7z"/>
				<path class="st2" d="M335.4,1257.2c-0.3,0.2-0.6,0.3-0.9,0.4c-2.7,1-5.7-0.4-6.7-3c-1.1-3.1-114-308.5-100.6-606.5
					c0.1-2.9,2.6-5.1,5.4-5c2.9,0.1,5.1,2.6,5,5.4c-13.2,295.9,98.9,599.4,100,602.4C338.4,1253.3,337.5,1255.9,335.4,1257.2z"/>
			</g>
		</g>
		<g>
			
				<ellipse transform="matrix(4.385846e-02 -0.999 0.999 4.385846e-02 55.7805 1996.5342)" class="st4" cx="1070.9" cy="969.1" rx="748.2" ry="807.6"/>
			<ellipse class="st5" cx="1027.2" cy="915.1" rx="633.7" ry="598.7"/>
			<g class="st6">
				<path class="st2" d="M1277.3,972.7c-0.2,132-9.2,264.2-32.5,394.3c-5.9,32.5-12.7,64.8-20.8,96.9c-8.2,32-17.6,63.8-29.1,94.8
					c-11.6,31-25.1,61.5-43.4,89.4c-9.2,13.8-19.7,27.1-32.6,38c-6.5,5.4-13.5,10.2-21.3,13.7c-7.8,3.5-16.3,5.7-24.9,5.9
					c-8.6,0.3-17.2-1.4-25.2-4.6c-8-3.2-15.2-7.8-21.8-13c-13.2-10.6-23.9-23.7-33.3-37.4c-18.6-27.7-32.3-58.1-44.1-89
					c-11.7-31-21.2-62.7-29.4-94.7c-8.2-32-15.1-64.3-21-96.8c-11.8-65-19.9-130.6-25.4-196.4c-5.4-65.8-8.1-131.8-8.5-197.8
					c-0.2-33,0.7-66,1.9-99c1.2-33,3.1-65.9,5.5-98.9c4.9-65.8,12.2-131.5,23-196.6c5.4-32.6,11.8-65,19.4-97.1
					c7.6-32.1,16.5-64,27.6-95.2c5.5-15.6,11.6-31,18.5-46c6.9-15,14.6-29.8,23.7-43.7c9.1-13.9,19.5-27.1,32.6-37.7
					c6.5-5.2,13.7-9.8,21.5-12.9c7.8-3.1,16.3-4.7,24.8-4.4c8.5,0.2,16.8,2.3,24.5,5.7c7.7,3.4,14.8,8,21.3,13.3
					c13,10.6,23.7,23.5,33.3,37c19,27.3,33.2,57.4,45.6,88c12.3,30.7,22.4,62.2,31.3,94c8.8,31.8,16.3,64,22.7,96.4
					C1266.5,708.5,1276.9,840.8,1277.3,972.7z M1267.5,972.7c0.1-65.8-2.4-131.5-7.8-197.1c-5.4-65.5-13.5-130.9-25.7-195.5
					c-6.1-32.3-13.1-64.4-21.6-96.2c-8.4-31.7-18.2-63.2-30.1-93.8c-12-30.5-25.8-60.5-44.2-87.6c-9.2-13.5-19.7-26.2-32.2-36.6
					c-6.3-5.2-13-9.7-20.4-13c-7.3-3.3-15.2-5.5-23.3-5.7c-8-0.3-16.1,1.4-23.5,4.4c-7.5,3-14.3,7.5-20.6,12.6
					c-12.5,10.4-22.6,23.4-31.4,37.2c-8.8,13.8-16.3,28.4-22.9,43.4c-6.7,15-12.5,30.3-17.9,45.8c-10.6,31.1-19.1,62.9-26.4,94.9
					c-7.2,32.1-13.2,64.4-18.3,96.9c-10.1,65-16.6,130.5-20.8,196.1c-4.2,65.6-5.6,131.4-5.5,197.2c-0.2,65.8,2,131.5,6.9,197.1
					c4.9,65.6,12.5,131,23.8,195.7c5.7,32.4,12.3,64.6,20.2,96.4c7.9,31.9,17.1,63.4,28.5,94.2c11.4,30.7,24.7,60.9,42.7,88.1
					c9.1,13.5,19.4,26.3,31.9,36.4c6.2,5,13,9.4,20.4,12.4c7.3,3,15.2,4.6,23,4.4c7.9-0.2,15.6-2.3,22.8-5.6
					c7.2-3.3,13.9-7.9,20-13.1c12.2-10.5,22.3-23.4,31.2-37c17.7-27.4,30.8-57.7,42.1-88.4c11.2-30.8,20.3-62.4,28.1-94.3
					c7.8-31.9,14.4-64.1,20-96.5c11.2-64.8,18.7-130.2,23.6-195.7C1265.2,1104.3,1267.5,1038.5,1267.5,972.7z"/>
				<path class="st2" d="M1610.2,972.7c-0.5,85-11.4,170-34.1,252c-23.1,81.8-58,160.4-105.4,231c-23.7,35.3-50.5,68.5-80.5,98.6
					c-30,30.1-63.1,57.1-99.1,79.8c-36,22.6-74.9,40.6-115.6,52.9c-40.7,12.3-83.2,18.7-125.7,18.7c-42.5,0-85-6.4-125.7-18.6
					c-40.7-12.2-79.7-30.2-115.7-52.8c-36-22.6-69.2-49.6-99.2-79.7c-30-30.1-56.9-63.3-80.7-98.6
					c-47.5-70.6-82.4-149.3-105.7-231.1c-11.4-41-20-82.8-25.6-124.9c-5.6-42.2-8.4-84.7-8.6-127.2c0.2-42.5,3.1-85.1,8.7-127.2
					c5.7-42.2,14.2-83.9,25.7-124.9c23.3-81.8,58.3-160.4,105.8-231c23.8-35.2,50.6-68.4,80.7-98.5c30-30.1,63.2-57,99.2-79.6
					c36-22.5,75-40.4,115.6-52.6c40.6-12.3,83.1-18.7,125.5-18.7c42.5,0.1,84.9,6.5,125.5,18.8c40.7,12.2,79.5,30.2,115.5,52.7
					c36,22.6,69.1,49.6,99.1,79.6c30,30.1,56.8,63.2,80.5,98.5c47.4,70.5,82.4,149.2,105.6,230.9
					C1598.7,802.8,1609.7,887.8,1610.2,972.7z M1599,972.7c-0.1-84-10.6-168.1-32.8-249.2c-22.3-81-55.9-159.2-102.1-229.5
					c-23.1-35.1-49.3-68.2-78.7-98.3c-29.4-30-61.8-57.2-97.3-79.8c-35.5-22.5-73.9-40.5-114.2-52.8
					c-40.2-12.2-82.2-18.7-124.3-18.8c-42.1,0.2-84.1,6.6-124.3,18.9c-40.2,12.3-78.6,30.4-114.1,52.9
					c-35.5,22.6-67.9,49.8-97.2,79.9c-29.3,30.1-55.5,63.2-78.5,98.3c-46.1,70.3-79.6,148.4-101.8,229.4
					c-11.1,40.5-19.1,81.8-24.5,123.4c-5.4,41.6-8.1,83.6-8.2,125.6c0.1,42,2.8,84,8.3,125.6c5.4,41.6,13.5,82.9,24.6,123.4
					c22.2,80.9,55.8,159,101.9,229.2c23,35.1,49.2,68.2,78.5,98.2c29.3,30,61.7,57.2,97.2,79.7c35.5,22.4,73.8,40.4,114,52.7
					c40.1,12.3,82,18.8,124.1,19c42-0.2,83.9-6.6,124.1-18.9c40.2-12.2,78.5-30.2,114.1-52.6c35.5-22.5,67.9-49.7,97.3-79.7
					c29.4-30,55.6-63.1,78.7-98.2c46.2-70.2,79.9-148.4,102.2-229.3C1588.3,1140.8,1598.8,1056.8,1599,972.7z"/>
				<path class="st2" d="M395.6,682.7l168.3-1.4l168.3-0.8l336.7-0.6l336.7,0.7l168.3,0.8l168.3,1.5c0.3,0,0.5,0.2,0.5,0.5
					c0,0.3-0.2,0.5-0.5,0.5l-168.3,1.5l-168.3,0.8l-336.7,0.7l-336.7-0.6l-168.3-0.8l-168.3-1.4c-0.4,0-0.7-0.3-0.7-0.7
					C394.9,683,395.2,682.7,395.6,682.7z"/>
				<path class="st2" d="M590.9,400.8c39.8-0.6,79.7-0.9,119.5-1.4l119.5-0.8c39.8-0.3,79.7-0.3,119.5-0.4l119.5-0.2l239,0.7
					l119.5,0.8c39.8,0.5,79.7,0.8,119.5,1.5c0.3,0,0.5,0.2,0.5,0.5c0,0.3-0.2,0.5-0.5,0.5c-39.8,0.7-79.7,1-119.5,1.5l-119.5,0.8
					l-239,0.7l-119.5-0.2c-39.8-0.1-79.7-0.1-119.5-0.4l-119.5-0.8c-39.8-0.5-79.7-0.7-119.5-1.4c-0.4,0-0.7-0.3-0.7-0.7
					C590.2,401.1,590.5,400.8,590.9,400.8z"/>
				<path class="st2" d="M337.1,964.6l183-1.4l183-0.8l365.9-0.6l365.9,0.7l183,0.8l183,1.5c0.3,0,0.5,0.2,0.5,0.5
					c0,0.3-0.2,0.5-0.5,0.5l-183,1.5l-183,0.8l-365.9,0.7L703,968.2l-183-0.8l-183-1.4c-0.4,0-0.7-0.3-0.7-0.7
					C336.4,965,336.7,964.6,337.1,964.6z"/>
				<path class="st2" d="M395.6,1246.6l168.3-1.4l168.3-0.8l336.7-0.6l336.7,0.7l168.3,0.8l168.3,1.5c0.3,0,0.5,0.2,0.5,0.5
					c0,0.3-0.2,0.5-0.5,0.5l-168.3,1.5l-168.3,0.8l-336.7,0.7l-336.7-0.6l-168.3-0.8l-168.3-1.4c-0.4,0-0.7-0.3-0.7-0.7
					C394.9,1246.9,395.2,1246.6,395.6,1246.6z"/>
				<path class="st2" d="M1571,1531.8H615c-1.4,0-2.6-1.2-2.6-2.6c0-1.4,1.2-2.6,2.6-2.6H1571c1.4,0,2.6,1.2,2.6,2.6
					C1573.6,1530.7,1572.5,1531.8,1571,1531.8z"/>
			</g>
		</g>
		<g>
			<g>
				<path class="st2" d="M871.1,612.7c-1,0-2-0.5-2.6-1.4c-1-1.4-0.6-3.4,0.8-4.3c2.9-2,5.7-3.9,8.5-5.9c1.4-1,3.3-0.7,4.3,0.7
					c1,1.4,0.7,3.4-0.7,4.3c-2.8,2-5.7,4-8.6,6C872.3,612.5,871.7,612.7,871.1,612.7z"/>
				<path class="st2" d="M895.5,595.1c-0.9,0-1.9-0.4-2.5-1.2c-1-1.4-0.8-3.3,0.6-4.4c5.2-4,10.4-8,15.4-12.1
					c1.3-1.1,3.3-0.9,4.4,0.4c1.1,1.3,0.9,3.3-0.4,4.4c-5,4.1-10.3,8.2-15.6,12.2C896.9,594.9,896.2,595.1,895.5,595.1z
					 M926.1,570.2c-0.9,0-1.7-0.4-2.3-1.1c-1.1-1.3-1-3.3,0.3-4.4c4.9-4.3,9.8-8.8,14.4-13.2c1.2-1.2,3.2-1.1,4.4,0.1
					c1.2,1.2,1.1,3.2-0.1,4.4c-4.7,4.5-9.6,9-14.6,13.4C927.5,570,926.8,570.2,926.1,570.2z M954.6,543.1c-0.8,0-1.6-0.3-2.2-0.9
					c-1.2-1.2-1.3-3.2-0.1-4.4c4.6-4.7,9-9.6,13.2-14.4c1.1-1.3,3.1-1.4,4.4-0.3c1.3,1.1,1.4,3.1,0.3,4.4
					c-4.3,4.9-8.8,9.8-13.4,14.6C956.2,542.8,955.4,543.1,954.6,543.1z M980.5,513.5c-0.7,0-1.4-0.2-1.9-0.7c-1.3-1.1-1.6-3-0.5-4.4
					c4.1-5.1,8-10.3,11.8-15.6c1-1.4,3-1.7,4.4-0.7c1.4,1,1.7,3,0.7,4.4c-3.8,5.3-7.8,10.6-12,15.8
					C982.3,513.1,981.4,513.5,980.5,513.5z M1003.4,481.5c-0.6,0-1.2-0.2-1.7-0.5c-1.5-0.9-1.9-2.9-1-4.3c3.5-5.5,6.9-11.1,10-16.7
					c0.8-1.5,2.7-2,4.2-1.2c1.5,0.8,2,2.7,1.2,4.2c-3.2,5.7-6.6,11.5-10.2,17C1005.5,481,1004.5,481.5,1003.4,481.5z M1022.7,447.1
					c-0.5,0-0.9-0.1-1.4-0.3c-1.5-0.8-2.2-2.6-1.4-4.2c2.8-5.8,5.5-11.8,8-17.8c0.7-1.6,2.5-2.3,4.1-1.7c1.6,0.7,2.3,2.5,1.7,4.1
					c-2.5,6.1-5.3,12.2-8.2,18.1C1024.9,446.5,1023.8,447.1,1022.7,447.1z M1037.7,410.8c-0.3,0-0.7-0.1-1-0.2
					c-1.6-0.6-2.5-2.3-1.9-4c2.1-6.1,4.1-12.4,5.8-18.6c0.5-1.7,2.2-2.6,3.8-2.2c1.7,0.5,2.6,2.2,2.2,3.8c-1.8,6.4-3.8,12.7-5.9,19
					C1040.2,410,1039,410.8,1037.7,410.8z"/>
				<path class="st2" d="M1048.4,372.9c-0.2,0-0.4,0-0.7-0.1c-1.7-0.4-2.8-2-2.4-3.7c0.7-3.4,1.4-6.8,2-10.1
					c0.3-1.7,1.9-2.8,3.6-2.5c1.7,0.3,2.8,1.9,2.5,3.6c-0.6,3.4-1.3,6.9-2.1,10.3C1051.1,371.9,1049.8,372.9,1048.4,372.9z"/>
			</g>
			<g>
				<path class="st2" d="M1074.6,383.1c-0.8,0-1.6-0.3-2.2-0.9c-2.5-2.4-4.9-4.9-7.4-7.4c-1.2-1.2-1.2-3.2,0-4.4
					c1.2-1.2,3.2-1.2,4.4,0c2.4,2.5,4.9,4.9,7.3,7.3c1.2,1.2,1.2,3.2,0,4.4C1076.2,382.8,1075.4,383.1,1074.6,383.1z"/>
				<path class="st2" d="M1315,506.6c-0.1,0-0.2,0-0.3,0c-6.6-0.6-13.2-1.5-19.7-2.5c-1.7-0.3-2.9-1.9-2.6-3.6
					c0.3-1.7,1.9-2.9,3.6-2.6c6.4,1,12.9,1.8,19.3,2.4c1.7,0.2,3,1.7,2.8,3.4C1317.9,505.4,1316.5,506.6,1315,506.6z M1276.1,500.5
					c-0.2,0-0.4,0-0.7-0.1c-6.4-1.4-12.9-3-19.3-4.8c-1.7-0.5-2.6-2.2-2.2-3.8c0.5-1.7,2.2-2.6,3.9-2.2c6.3,1.8,12.6,3.4,18.9,4.7
					c1.7,0.4,2.7,2,2.4,3.7C1278.8,499.5,1277.5,500.5,1276.1,500.5z M1238.2,489.8c-0.3,0-0.7-0.1-1-0.2c-6.2-2.1-12.4-4.5-18.6-7
					c-1.6-0.7-2.4-2.5-1.7-4.1c0.7-1.6,2.5-2.4,4.1-1.7c6,2.5,12.2,4.8,18.3,6.9c1.6,0.6,2.5,2.3,1.9,4
					C1240.7,489,1239.5,489.8,1238.2,489.8z M1201.8,474.9c-0.4,0-0.9-0.1-1.3-0.3c-5.9-2.8-11.9-5.8-17.7-9
					c-1.5-0.8-2.1-2.7-1.3-4.2c0.8-1.5,2.7-2.1,4.2-1.3c5.7,3.1,11.6,6.1,17.4,8.8c1.6,0.7,2.2,2.6,1.5,4.2
					C1204,474.2,1202.9,474.9,1201.8,474.9z M1167.1,456.2c-0.6,0-1.1-0.1-1.6-0.4c-5.6-3.4-11.2-7-16.7-10.6
					c-1.4-1-1.8-2.9-0.9-4.3c1-1.4,2.9-1.8,4.3-0.9c5.4,3.6,11,7.2,16.5,10.5c1.5,0.9,1.9,2.8,1.1,4.3
					C1169.2,455.6,1168.2,456.2,1167.1,456.2z M1134.4,434.3c-0.6,0-1.3-0.2-1.8-0.6c-5.3-3.9-10.6-7.9-15.7-12
					c-1.3-1.1-1.6-3-0.5-4.4c1.1-1.3,3-1.6,4.4-0.5c5.1,4.1,10.4,8.1,15.5,11.9c1.4,1,1.7,3,0.7,4.4
					C1136.3,433.9,1135.3,434.3,1134.4,434.3z M1103.6,409.8c-0.7,0-1.4-0.2-2-0.8c-4.9-4.2-9.9-8.7-14.8-13.2
					c-1.3-1.2-1.3-3.1-0.2-4.4c1.2-1.3,3.1-1.3,4.4-0.2c4.8,4.5,9.8,8.8,14.6,13c1.3,1.1,1.5,3.1,0.3,4.4
					C1105.3,409.4,1104.5,409.8,1103.6,409.8z"/>
				<path class="st2" d="M1345,508.1C1345,508.1,1345,508.1,1345,508.1c-3.5,0-7-0.1-10.5-0.2c-1.7-0.1-3.1-1.5-3-3.2
					c0.1-1.7,1.4-3.1,3.2-3c3.4,0.1,6.9,0.2,10.3,0.2c1.7,0,3.1,1.4,3.1,3.1C1348.1,506.7,1346.7,508.1,1345,508.1z"/>
			</g>
			<g>
				<path class="st2" d="M1344.9,507.5c-1.2,0-2.3-0.7-2.8-1.8c-1.5-3.1-2.9-6.3-4.4-9.5c-0.7-1.6,0-3.4,1.5-4.1
					c1.6-0.7,3.4,0,4.1,1.5c1.4,3.2,2.9,6.3,4.4,9.4c0.7,1.6,0.1,3.4-1.5,4.2C1345.8,507.4,1345.3,507.5,1344.9,507.5z"/>
				<path class="st2" d="M1624.5,807.7c-0.4,0-0.8-0.1-1.2-0.2c-6.5-2.7-13-5.5-19.4-8.6c-1.6-0.7-2.2-2.6-1.5-4.2
					c0.7-1.6,2.6-2.2,4.2-1.5c6.2,3,12.7,5.8,19.1,8.4c1.6,0.7,2.4,2.5,1.7,4.1C1626.9,807,1625.7,807.7,1624.5,807.7z
					 M1586.5,789.8c-0.5,0-1-0.1-1.5-0.4c-6.1-3.3-12.3-6.8-18.4-10.5c-1.5-0.9-1.9-2.8-1.1-4.3c0.9-1.5,2.8-1.9,4.3-1.1
					c6,3.6,12,7.1,18.1,10.3c1.5,0.8,2.1,2.7,1.3,4.2C1588.7,789.2,1587.6,789.8,1586.5,789.8z M1550.6,768c-0.6,0-1.2-0.2-1.7-0.5
					c-5.8-3.9-11.6-8-17.2-12.3c-1.4-1-1.7-3-0.6-4.4c1-1.4,3-1.7,4.4-0.6c5.6,4.2,11.3,8.2,17,12.1c1.4,1,1.8,2.9,0.8,4.3
					C1552.6,767.5,1551.6,768,1550.6,768z M1517,742.9c-0.7,0-1.4-0.2-2-0.7c-5.4-4.4-10.8-9.1-16-13.8c-1.3-1.2-1.4-3.1-0.2-4.4
					c1.2-1.3,3.1-1.4,4.4-0.2c5.2,4.7,10.5,9.2,15.8,13.6c1.3,1.1,1.5,3.1,0.4,4.4C1518.8,742.5,1517.9,742.9,1517,742.9z
					 M1485.8,714.8c-0.8,0-1.6-0.3-2.2-0.9c-5-4.9-9.9-9.9-14.8-15.1c-1.2-1.3-1.1-3.2,0.1-4.4c1.3-1.2,3.2-1.1,4.4,0.1
					c4.8,5.1,9.7,10.1,14.6,14.9c1.2,1.2,1.3,3.2,0,4.4C1487.4,714.5,1486.6,714.8,1485.8,714.8z M1457,684.3
					c-0.9,0-1.7-0.4-2.4-1.1c-4.6-5.2-9.1-10.7-13.6-16.1c-1.1-1.3-0.9-3.3,0.5-4.4c1.3-1.1,3.3-0.9,4.4,0.5
					c4.4,5.4,8.9,10.8,13.5,16c1.1,1.3,1,3.3-0.3,4.4C1458.4,684,1457.7,684.3,1457,684.3z M1430.5,651.7c-0.9,0-1.9-0.4-2.5-1.2
					c-4.2-5.5-8.4-11.3-12.5-17c-1-1.4-0.7-3.4,0.7-4.3c1.4-1,3.4-0.7,4.3,0.7c4,5.7,8.2,11.4,12.3,16.9c1,1.4,0.8,3.3-0.6,4.4
					C1431.8,651.5,1431.1,651.7,1430.5,651.7z M1406.2,617.4c-1,0-2-0.5-2.6-1.4c-3.8-5.8-7.7-11.7-11.4-17.7
					c-0.9-1.5-0.5-3.4,1-4.3c1.5-0.9,3.4-0.5,4.3,1c3.7,6,7.5,11.9,11.3,17.6c1,1.4,0.6,3.4-0.9,4.3
					C1407.4,617.2,1406.8,617.4,1406.2,617.4z M1383.9,581.8c-1.1,0-2.1-0.6-2.7-1.5c-3.5-6-7-12.1-10.5-18.3
					c-0.8-1.5-0.3-3.4,1.2-4.2c1.5-0.8,3.4-0.3,4.2,1.2c3.4,6.1,6.9,12.2,10.4,18.2c0.9,1.5,0.4,3.4-1.1,4.3
					C1385,581.7,1384.5,581.8,1383.9,581.8z M1363.6,545.1c-1.1,0-2.2-0.6-2.8-1.7c-3.2-6.2-6.5-12.5-9.6-18.8
					c-0.8-1.5-0.1-3.4,1.4-4.2c1.5-0.8,3.4-0.1,4.2,1.4c3.1,6.2,6.3,12.5,9.5,18.6c0.8,1.5,0.2,3.4-1.3,4.2
					C1364.5,545,1364,545.1,1363.6,545.1z"/>
				<path class="st2" d="M1654,818.6c-0.3,0-0.6,0-1-0.2c-3.3-1.1-6.6-2.2-9.9-3.3c-1.6-0.6-2.5-2.4-1.9-4c0.6-1.6,2.4-2.5,4-1.9
					c3.2,1.1,6.5,2.2,9.8,3.3c1.6,0.5,2.5,2.3,2,3.9C1656.6,817.7,1655.4,818.6,1654,818.6z"/>
			</g>
			<path class="st2" d="M1033.9,200.8c-32.1,0-58.1,26-58.1,58.1c0,20.8,24.4,69.2,41.6,100.6c7.1,13.1,25.9,13.1,33,0
				c17.2-31.5,41.6-79.8,41.6-100.6C1091.9,226.8,1065.9,200.8,1033.9,200.8z M1033.9,290.1c-17.2,0-31.2-14-31.2-31.2
				c0-17.2,14-31.2,31.2-31.2s31.2,14,31.2,31.2C1065,276.1,1051.1,290.1,1033.9,290.1z"/>
			<path class="st2" d="M1354.9,310.1c-40.4,0-73.1,32.7-73.1,73.1c0,26.2,30.7,87.1,52.3,126.7c9,16.5,32.6,16.5,41.6,0
				c21.6-39.6,52.3-100.5,52.3-126.7C1428,342.8,1395.3,310.1,1354.9,310.1z M1354.9,422.5c-21.7,0-39.3-17.6-39.3-39.3
				c0-21.7,17.6-39.3,39.3-39.3c21.7,0,39.3,17.6,39.3,39.3C1394.1,404.9,1376.6,422.5,1354.9,422.5z"/>
			<path class="st2" d="M873,450.5c-33.3,0-60.2,27-60.2,60.2c0,21.6,25.3,71.7,43.1,104.3c7.4,13.6,26.9,13.6,34.3,0
				c17.8-32.6,43.1-82.8,43.1-104.3C933.3,477.5,906.3,450.5,873,450.5z M873,543.1c-17.9,0-32.3-14.5-32.3-32.3
				c0-17.9,14.5-32.3,32.3-32.3c17.9,0,32.3,14.5,32.3,32.3C905.4,528.6,890.9,543.1,873,543.1z"/>
			<path class="st2" d="M1679,691.7c-33.3,0-60.2,27-60.2,60.2c0,21.6,25.3,71.7,43.1,104.3c7.4,13.6,26.9,13.6,34.3,0
				c17.8-32.6,43.1-82.8,43.1-104.3C1739.2,718.6,1712.3,691.7,1679,691.7z M1679,784.2c-17.9,0-32.3-14.5-32.3-32.3
				c0-17.9,14.5-32.3,32.3-32.3c17.9,0,32.3,14.5,32.3,32.3C1711.3,769.8,1696.9,784.2,1679,784.2z"/>
		</g>
		<g>
			<g>
				
					<linearGradient id="SVGID_00000065043966688104470000000012226520347797851565_" gradientUnits="userSpaceOnUse" x1="892.5731" y1="1513.0544" x2="1164.5376" y2="1513.0544">
					<stop  offset="0" style="stop-color:#A22B25"/>
					<stop  offset="1" style="stop-color:#C0423C"/>
				</linearGradient>
				<path style="fill:url(#SVGID_00000065043966688104470000000012226520347797851565_);" d="M909.2,1521.8c0,0-14.1-37.1-30.6-33.7
					c-16.5,3.4-34.5,16-34.5,16l-26.4,35.8c0,0,74.2,29.2,100.4,12.5c0,0,75.8,13.1,171.6-2.6c-13.9-29.3-22.1-58.6-27-81.3
					C1014.2,1496,961.9,1516.5,909.2,1521.8z"/>
				
					<linearGradient id="SVGID_00000054242870906085458970000013995560847622335626_" gradientUnits="userSpaceOnUse" x1="1672.5679" y1="2020.3904" x2="1177.6248" y2="1371.5565">
					<stop  offset="0" style="stop-color:#FF928E"/>
					<stop  offset="1" style="stop-color:#FE7062"/>
				</linearGradient>
				<path style="fill:url(#SVGID_00000054242870906085458970000013995560847622335626_);" d="M1310.9,1252.7
					c0,0-108.6,136.8-248.2,215.8c4.9,22.7,13.1,52,27,81.3c72.4-11.9,156.3-40.3,227.3-103.3L1310.9,1252.7z"/>
			</g>
			
				<linearGradient id="SVGID_00000026145078173167245580000012533191233940760213_" gradientUnits="userSpaceOnUse" x1="625.3632" y1="1269.5685" x2="482.9008" y2="1414.9381">
				<stop  offset="0" style="stop-color:#4F52FF"/>
				<stop  offset="1" style="stop-color:#4042E2"/>
			</linearGradient>
			<path style="fill:url(#SVGID_00000026145078173167245580000012533191233940760213_);" d="M497.1,1270.8l6.7,181
				c19.1,6.6,37.4,11.7,54.7,15.5c10.9-35,34.8-77.9,54.3-109.8C541,1332.2,497.1,1270.8,497.1,1270.8z"/>
			
				<linearGradient id="SVGID_00000160882513075961003660000009818426975568196792_" gradientUnits="userSpaceOnUse" x1="986.4752" y1="1252.4943" x2="559.8134" y2="1464.7349">
				<stop  offset="0" style="stop-color:#FEBBBA"/>
				<stop  offset="1" style="stop-color:#FF928E"/>
			</linearGradient>
			<path style="fill:url(#SVGID_00000160882513075961003660000009818426975568196792_);" d="M856.2,1267.7
				c-98.7,106.5-178.5,112.8-243.3,89.9c-19.6,31.9-43.5,74.8-54.3,109.8c263.5,58.1,325.5-184.1,325.5-184.1L856.2,1267.7z"/>
			
				<linearGradient id="SVGID_00000009585917407325466850000003599230160912181670_" gradientUnits="userSpaceOnUse" x1="980.2292" y1="1199.2633" x2="917.3022" y2="1264.9872">
				<stop  offset="0" style="stop-color:#FEBBBA"/>
				<stop  offset="1" style="stop-color:#FF928E"/>
			</linearGradient>
			<path style="fill:url(#SVGID_00000009585917407325466850000003599230160912181670_);" d="M876.2,1256.4c0,0,11.4-12.2,32.4-8.4
				c21,3.8,39.8,11.1,52.9,0c13.1-11.1,17.7,3.8,17.7,3.8l-39.2,29.8L876.2,1256.4z"/>
			
				<linearGradient id="SVGID_00000015340479277825730370000002971869002253757843_" gradientUnits="userSpaceOnUse" x1="988.5033" y1="1249.9789" x2="561.8428" y2="1462.2189">
				<stop  offset="0" style="stop-color:#FEBBBA"/>
				<stop  offset="1" style="stop-color:#FF928E"/>
			</linearGradient>
			<path style="fill:url(#SVGID_00000015340479277825730370000002971869002253757843_);" d="M852.8,1277.3c0,0,7.8-32.6,31.3-28.1
				c23.5,4.5,76.7,33.4,90.5,28.1c13.7-5.3,31.3-18.1,40.3-13.6l-15.9,19.7c0,0,40.8-23.5,47.8-9.1l-67.9,38.2
				C978.9,1312.5,879.6,1302.6,852.8,1277.3z"/>
			
				<linearGradient id="SVGID_00000067930107969288957080000004208608741245791107_" gradientUnits="userSpaceOnUse" x1="653.5784" y1="1165.6173" x2="-105.2124" y2="2166.4365">
				<stop  offset="0" style="stop-color:#4F52FF"/>
				<stop  offset="1" style="stop-color:#4042E2"/>
			</linearGradient>
			<path style="fill:url(#SVGID_00000067930107969288957080000004208608741245791107_);" d="M155.5,1867.5
				c0,0-33.7-480.6,211.8-630.1c0,0,68.6-45.3,154.1,42.4c85.5,87.7,58,178.9-13.8,264.3c-71.8,85.4-144.8,238-127.4,323.4H155.5z"
				/>
			
				<linearGradient id="SVGID_00000109022265005429914290000003716916707396615846_" gradientUnits="userSpaceOnUse" x1="435.4669" y1="1318.7686" x2="492.1611" y2="1163.95">
				<stop  offset="0" style="stop-color:#FEBBBA"/>
				<stop  offset="1" style="stop-color:#FF928E"/>
			</linearGradient>
			<path style="fill:url(#SVGID_00000109022265005429914290000003716916707396615846_);" d="M491,1106.5
				c-0.1,5.7-81.8,121.8-81.8,121.8s14.7,28.9,84.7,52.3l60.5-124.3L491,1106.5z"/>
			
				<linearGradient id="SVGID_00000090274074230934866730000000989608108417832834_" gradientUnits="userSpaceOnUse" x1="709.2776" y1="1519.1372" x2="511.5747" y2="1664.5068">
				<stop  offset="0" style="stop-color:#FEBBBA"/>
				<stop  offset="1" style="stop-color:#FF928E"/>
			</linearGradient>
			<path style="fill:url(#SVGID_00000090274074230934866730000000989608108417832834_);" d="M458.9,1505c0,0,155.1,129.9,322.5,73.2
				c10.4-3.5,21.7-2.8,31.4,2.4l48.1,25.4c20.2,10.7,45.2,3.7,56.9-15.9c6.7-11.2,12.4-24,13.5-36.2l-94.2-38.1l6.9-11.5
				c0,0-46-3.9-58,29.1c0,0-87.6,36.4-235.3-126C550.8,1407.2,483.8,1464.2,458.9,1505z"/>
			
				<linearGradient id="SVGID_00000032635244789486017930000010336499330747192727_" gradientUnits="userSpaceOnUse" x1="740.0281" y1="863.6147" x2="636.0483" y2="1042.46">
				<stop  offset="0" style="stop-color:#4F52FF"/>
				<stop  offset="1" style="stop-color:#4042E2"/>
			</linearGradient>
			<path style="fill:url(#SVGID_00000032635244789486017930000010336499330747192727_);" d="M450.5,1504.4c-0.7,0-1.3-0.2-1.9-0.6
				c-65.5-44.2-96.3-115.7-96.6-116.4c-0.7-1.7,0.1-3.8,1.8-4.5c1.7-0.7,3.8,0.1,4.5,1.8c0.3,0.7,30.4,70.3,94.1,113.4
				c1.6,1.1,2,3.2,0.9,4.8C452.7,1503.9,451.6,1504.4,450.5,1504.4z"/>
			
				<linearGradient id="SVGID_00000051381790802038602330000018332412819573169025_" gradientUnits="userSpaceOnUse" x1="739.0207" y1="863.0278" x2="635.041" y2="1041.8732">
				<stop  offset="0" style="stop-color:#4F52FF"/>
				<stop  offset="1" style="stop-color:#4042E2"/>
			</linearGradient>
			<path style="fill:url(#SVGID_00000051381790802038602330000018332412819573169025_);" d="M547.8,1405.8c-1.1,0-2.2-0.6-2.9-1.6
				c-0.2-0.3-20.2-31.4-58.2-99.4c-11.6-20.7-26.8-33.8-45.1-39c-30.5-8.5-59.9,7.8-60.2,8c-1.6,0.9-3.7,0.4-4.7-1.3
				c-0.9-1.6-0.4-3.7,1.3-4.7c1.3-0.7,32.1-17.9,65.4-8.7c20.2,5.6,36.8,19.9,49.4,42.3c37.9,67.8,57.7,98.7,57.9,99.1
				c1,1.6,0.6,3.7-1,4.7C549,1405.6,548.4,1405.8,547.8,1405.8z"/>
			<g>
				
					<linearGradient id="SVGID_00000036213050215059144360000000892729046104496053_" gradientUnits="userSpaceOnUse" x1="561.4349" y1="1098.7429" x2="395.1954" y2="1225.9414">
					<stop  offset="0" style="stop-color:#FEBBBA"/>
					<stop  offset="1" style="stop-color:#FF928E"/>
				</linearGradient>
				<path style="fill:url(#SVGID_00000036213050215059144360000000892729046104496053_);" d="M555.3,1039.9c0,0,29.1,66.8,31,101.9
					c2,35.1,9.5,57.8-31,64.9c-40.5,7.1-74.7-13.1-93.2-48.1c0,0-29-53.8-22.5-75.9C446.2,1060.7,555.3,1039.9,555.3,1039.9z"/>
				
					<linearGradient id="SVGID_00000083088000404026263970000017080243712604804018_" gradientUnits="userSpaceOnUse" x1="444.4096" y1="998.0294" x2="599.2355" y2="1197.3674">
					<stop  offset="0" style="stop-color:#09005D"/>
					<stop  offset="1" style="stop-color:#1A0F91"/>
				</linearGradient>
				<path style="fill:url(#SVGID_00000083088000404026263970000017080243712604804018_);" d="M476,1133.5l2.3-1
					c2.9-1.3,4.2-4.8,2.7-7.6c-5.7-11-16.9-36.4-2.5-42.3c18.6-7.6,92.1-22.6,107.9-48.7c15.2-25.1,1.7-57.4-18.6-66.6
					c-1.4-0.6-3-0.1-3.7,1.2l-1.7,3.2c-1.2,2.2-4.4,1.9-5.1-0.5l0,0c-0.7-2.3-3.7-2.7-5-0.7c-4.9,7.8-18,20.5-53.2,26.9
					c-50,9.2-83.1,29.5-83.9,64c-0.1,2.2-2.4,3.4-4.3,2.3c-3.7-2.3-9.6-3.3-17.5,3.3c-13.7,11.5-8.1,41.5,22,66.2
					c1.4,1.2,1.4,3.4-0.1,4.4c-5.5,3.6-13.6,12,7.5,23.3c21.8,11.7,38.1,10.7,44.4,9.7c1.6-0.3,2.6-1.8,2.2-3.3l-6.7-30.4
					c-0.4-1.7,0.9-3.3,2.7-3.3H476z"/>
				
					<linearGradient id="SVGID_00000137824479185262162960000016564208542825232029_" gradientUnits="userSpaceOnUse" x1="540.8146" y1="1071.7939" x2="374.5755" y2="1198.9922">
					<stop  offset="0" style="stop-color:#FEBBBA"/>
					<stop  offset="1" style="stop-color:#FF928E"/>
				</linearGradient>
				<path style="fill:url(#SVGID_00000137824479185262162960000016564208542825232029_);" d="M477.3,1139.9c0,0-11.1-42.7-30.2-30.7
					c-19.1,12,9.9,47.8,25.3,49.4L477.3,1139.9z"/>
			</g>
			
				<linearGradient id="SVGID_00000115476844093615872240000010246858451917598353_" gradientUnits="userSpaceOnUse" x1="812.7784" y1="1581.8184" x2="879.7977" y2="1581.8184">
				<stop  offset="0" style="stop-color:#A22B25"/>
				<stop  offset="1" style="stop-color:#C0423C"/>
			</linearGradient>
			<path style="fill:url(#SVGID_00000115476844093615872240000010246858451917598353_);" d="M812.8,1580.6c0,0,39.4,38.5,47,32.9
				c2.7-2,9.5-9.2,16.2-17.3c4.7-5.7,5.2-13.7,1.1-19.9l-9.3-14.3c-8.9-13.7-27.8-16.5-40.1-5.8
				C821.5,1561.5,815.9,1569.3,812.8,1580.6z"/>
			
				<linearGradient id="SVGID_00000090995461467205183460000015220769746212806020_" gradientUnits="userSpaceOnUse" x1="1800.4783" y1="1922.8173" x2="1305.5364" y2="1273.9851">
				<stop  offset="0" style="stop-color:#FF928E"/>
				<stop  offset="1" style="stop-color:#FE7062"/>
			</linearGradient>
			<path style="fill:url(#SVGID_00000090995461467205183460000015220769746212806020_);" d="M1438.3,1867.5
				c0,0-4.8-180.2-105.5-359.1c-31.5-55.9-42.7-121-32.9-184.5l11-71.2c0,0,138.2-46.8,291.3-2c0,0,212.4,168.4,70.4,616.7H1438.3z"
				/>
			
				<linearGradient id="SVGID_00000019651019655064109170000007550994865974693027_" gradientUnits="userSpaceOnUse" x1="1426.2188" y1="1241.0348" x2="1382.6079" y2="1110.2018">
				<stop  offset="0" style="stop-color:#A22B25"/>
				<stop  offset="1" style="stop-color:#C0423C"/>
			</linearGradient>
			<path style="fill:url(#SVGID_00000019651019655064109170000007550994865974693027_);" d="M1334.4,1161.8l35.8,86.1
				c2.3,5.4,7.2,9.3,13,10.3c20.7,3.5,70.6,9.1,103.4-12.5c3.9-2.6,4.9-7.9,2.2-11.7l-66.2-95L1334.4,1161.8z"/>
			<g>
				<path class="st4" d="M1422.8,1566.3c-4.9,1.3-7.4,6.8-5,11.4l103.7,198.8c1.8,3.4,5.6,5,9.3,4l339.1-97.9
					c4.2-1.2,6.7-5.6,5.4-9.9l-58.4-202.2c-1.2-4.2-5.5-6.6-9.7-5.5L1422.8,1566.3z"/>
				<path class="st3" d="M1444.7,1542.9c-4.9,1.2-7.6,6.3-5.9,11l83,225.4c1.5,4.1,5.9,6.3,10.1,5.1l338-97.6
					c4.2-1.2,6.8-5.5,5.8-9.8l-46.8-216.9c-1-4.6-5.5-7.4-10.1-6.3L1444.7,1542.9z"/>
				
					<linearGradient id="SVGID_00000101072033814470274730000014080922813199651975_" gradientUnits="userSpaceOnUse" x1="1663.9779" y1="1575.6876" x2="1757.0144" y2="1992.8973">
					<stop  offset="0" style="stop-color:#4F52FF"/>
					<stop  offset="1" style="stop-color:#4042E2"/>
				</linearGradient>
				<path style="fill:url(#SVGID_00000101072033814470274730000014080922813199651975_);" d="M1474.1,1520.2
					c-5.9,0.9-9.8,6.7-8.5,12.5L1522,1776c1.3,5.7,7.2,9.2,12.9,7.6l332.9-96.1c5.4-1.5,8.5-7.1,7.1-12.5l-51.2-198.6
					c-1.3-5.1-6.3-8.4-11.5-7.6L1474.1,1520.2z"/>
			</g>
			
				<linearGradient id="SVGID_00000176729937967557631480000011351491939518131603_" gradientUnits="userSpaceOnUse" x1="1931.7148" y1="1822.7069" x2="1436.772" y2="1173.8734">
				<stop  offset="0" style="stop-color:#FF928E"/>
				<stop  offset="1" style="stop-color:#FE7062"/>
			</linearGradient>
			<path style="fill:url(#SVGID_00000176729937967557631480000011351491939518131603_);" d="M1743.6,1613
				c25.8-195.2-124.6-345.3-124.6-345.3l-89.5,104.3c67.9,84.7,100.2,162.3,115,223.2C1664.1,1589.6,1711.2,1580.6,1743.6,1613z"/>
			
				<linearGradient id="SVGID_00000053528891100334399740000004888555613637808514_" gradientUnits="userSpaceOnUse" x1="1805.9397" y1="1141.1161" x2="1540.8046" y2="1555.9739">
				<stop  offset="0" style="stop-color:#E1473D"/>
				<stop  offset="1" style="stop-color:#E9605A"/>
			</linearGradient>
			<path style="fill:url(#SVGID_00000053528891100334399740000004888555613637808514_);" d="M1644.5,1597.6c-1,0-2-0.7-2.2-1.7
				c-18.3-75.6-56.8-150.4-114.6-222.4c-0.8-1-0.6-2.4,0.4-3.2c1-0.8,2.4-0.6,3.2,0.4c58.1,72.5,97,147.9,115.4,224.1
				c0.3,1.2-0.5,2.5-1.7,2.8C1644.9,1597.6,1644.7,1597.6,1644.5,1597.6z"/>
			
				<linearGradient id="SVGID_00000068654741364702466010000009298443105219666837_" gradientUnits="userSpaceOnUse" x1="1666.6948" y1="1522.5681" x2="1722.8495" y2="992.2192">
				<stop  offset="0" style="stop-color:#A22B25"/>
				<stop  offset="1" style="stop-color:#C0423C"/>
			</linearGradient>
			<path style="fill:url(#SVGID_00000068654741364702466010000009298443105219666837_);" d="M1644.5,1595.3
				c13.7,56.7,12.3,98.9,10.2,119.1c-0.8,7.6-6.9,13.5-14.5,14.1c-8.7,0.6-20.5,1.4-31,2c-11.6,0.7-24.4-6.7-33-12.8
				c-4.4-3.1-10.1,1.7-7.6,6.5c6.4,12.6,22.7,23.7,33.9,30.3c4.1,2.4,3.3,8.5-1.2,9.8l-48,13.6c78.9,74.3,131-8.8,131-8.8
				c34.8-53.8,52.8-106.4,59.4-156.1C1711.2,1580.6,1664.1,1589.6,1644.5,1595.3z"/>
			<g>
				
					<linearGradient id="SVGID_00000090990877872237248450000017118933902035371961_" gradientUnits="userSpaceOnUse" x1="2998.6157" y1="4099.5659" x2="2841.8616" y2="4306.939" gradientTransform="matrix(-0.6854 -0.7281 -0.7281 0.6854 6432.043 426.5487)">
					<stop  offset="0" style="stop-color:#A22B25"/>
					<stop  offset="1" style="stop-color:#C0423C"/>
				</linearGradient>
				<path style="fill:url(#SVGID_00000090990877872237248450000017118933902035371961_);" d="M1371.5,1030.1
					c-1.5,1.4-63.5,123.2-63.5,123.2l70.3,33.9l75.9-106.7C1454.1,1080.5,1396.7,1006.4,1371.5,1030.1z"/>
				
					<linearGradient id="SVGID_00000015342102171616601230000016367909686313122207_" gradientUnits="userSpaceOnUse" x1="2878.8999" y1="4149.3667" x2="3066.145" y2="4149.3667" gradientTransform="matrix(-0.6854 -0.7281 -0.7281 0.6854 6432.043 426.5487)">
					<stop  offset="0" style="stop-color:#09005D"/>
					<stop  offset="1" style="stop-color:#1A0F91"/>
				</linearGradient>
				<path style="fill:url(#SVGID_00000015342102171616601230000016367909686313122207_);" d="M1422.2,1093.3l-35,58.4
					c-0.5,0.9-1.2,1.7-1.9,2.4c-4.2,3.9-18.4,15.2-29.5-0.2c-9.4-13.1-18.2-25-27.7-29.9c-5.5-2.9-12.3-0.6-15.1,5
					c-5.8,11.4-17,34.8-24,56.9c-1.8,5.5,1.1,11.5,6.5,13.7c14.2,5.8,42.4,16.2,67.3,19.6c4.1,0.6,8.2-1.2,10.6-4.5
					c10.7-14.7,41-55.8,51.3-66.1c9.6-9.6,27.3-6,35.3-3.7c3,0.9,6.3,0.5,9-1.2c8.1-4.9,22.2-17,9.3-37.6
					c-3.2-5.1-1.6-11.9,3.5-15.2c9-5.9,18.8-17.1,9.5-35.2c-9.5-18.3-26.4-19.9-37.9-18.5c-5.1,0.6-10.3-2-12.2-6.8
					c-0.9-2.1-2.6-3.9-5.8-4.6c-6-1.2-10-6.7-8.8-12.8c2-10.4,0.5-23.8-16-32.9c-30.3-16.7-56.9,10.5-63.6,33.4
					c-6.8,22.9,27.1,39.1,48.5,41.8c15.7,2,24.3,19.1,27.7,28C1424.3,1086.7,1424,1090.3,1422.2,1093.3z"/>
				
					<linearGradient id="SVGID_00000077302909022003006180000011982613227056067972_" gradientUnits="userSpaceOnUse" x1="2769.033" y1="4263.7891" x2="2894.7622" y2="4134.7944" gradientTransform="matrix(-0.6854 -0.7281 -0.7281 0.6854 6432.043 426.5487)">
					<stop  offset="0" style="stop-color:#A22B25"/>
					<stop  offset="1" style="stop-color:#C0423C"/>
				</linearGradient>
				<path style="fill:url(#SVGID_00000077302909022003006180000011982613227056067972_);" d="M1411.5,1170c0,0,13.5-39.4,30.7-38
					c17.3,1.4,30.8,18.6,9.5,38C1425.1,1194,1411.5,1170,1411.5,1170z"/>
			</g>
		</g>
		<g>
			
				<linearGradient id="SVGID_00000114790140759449815740000012785720333240954014_" gradientUnits="userSpaceOnUse" x1="957.4973" y1="1281.1755" x2="957.4973" y2="1141.8427">
				<stop  offset="0" style="stop-color:#4F52FF"/>
				<stop  offset="1" style="stop-color:#4042E2"/>
			</linearGradient>
			<path style="fill:url(#SVGID_00000114790140759449815740000012785720333240954014_);" d="M712.2,1056.1l5.2,161.4
				c0.9,28.1,24,50.5,52.3,50.7l386.4,2.3c18.9,0.1,35-13.6,37.8-32.2c6-40.8,13.7-113.7,5.1-182.1H712.2z"/>
			<path class="st2" d="M1148.1,1261.2c-0.6,0-1.1-0.5-1.2-1.1c0-0.6,0.5-1.2,1.1-1.2c2.2-0.1,4.5-0.4,6.6-0.9
				c0.6-0.1,1.2,0.2,1.4,0.9c0.1,0.6-0.2,1.2-0.9,1.4C1152.9,1260.8,1150.5,1261.1,1148.1,1261.2
				C1148.1,1261.2,1148.1,1261.2,1148.1,1261.2z M1131.9,1261.2C1131.9,1261.2,1131.9,1261.2,1131.9,1261.2l-6.9,0
				c-0.6,0-1.1-0.5-1.1-1.2c0-0.6,0.5-1.1,1.2-1.1c0,0,0,0,0,0l6.9,0c0.6,0,1.1,0.5,1.1,1.2
				C1133.1,1260.7,1132.6,1261.2,1131.9,1261.2z M1108.9,1261C1108.9,1261,1108.9,1261,1108.9,1261l-6.9,0c-0.6,0-1.1-0.5-1.1-1.2
				c0-0.6,0.5-1.1,1.2-1.1c0,0,0,0,0,0l6.9,0c0.6,0,1.1,0.5,1.1,1.2C1110,1260.5,1109.5,1261,1108.9,1261z M1085.8,1260.9
				C1085.8,1260.9,1085.8,1260.9,1085.8,1260.9l-6.9,0c-0.6,0-1.1-0.5-1.1-1.2c0-0.6,0.5-1.1,1.2-1.1c0,0,0,0,0,0l6.9,0
				c0.6,0,1.1,0.5,1.1,1.2C1087,1260.4,1086.5,1260.9,1085.8,1260.9z M1062.8,1260.8C1062.8,1260.8,1062.8,1260.8,1062.8,1260.8
				l-6.9,0c-0.6,0-1.1-0.5-1.1-1.2c0-0.6,0.6-1.2,1.2-1.1l6.9,0c0.6,0,1.1,0.5,1.1,1.2C1063.9,1260.2,1063.4,1260.8,1062.8,1260.8z
				 M1039.7,1260.6C1039.7,1260.6,1039.7,1260.6,1039.7,1260.6l-6.9,0c-0.6,0-1.1-0.5-1.1-1.2c0-0.6,0.5-1.1,1.2-1.1c0,0,0,0,0,0
				l6.9,0c0.6,0,1.1,0.5,1.1,1.2C1040.8,1260.1,1040.3,1260.6,1039.7,1260.6z M1016.6,1260.5
				C1016.6,1260.5,1016.6,1260.5,1016.6,1260.5l-6.9,0c-0.6,0-1.1-0.5-1.1-1.2c0-0.6,0.5-1.1,1.2-1.1c0,0,0,0,0,0l6.9,0
				c0.6,0,1.1,0.5,1.1,1.2C1017.8,1260,1017.3,1260.5,1016.6,1260.5z M993.6,1260.3C993.6,1260.3,993.6,1260.3,993.6,1260.3l-6.9,0
				c-0.6,0-1.1-0.5-1.1-1.2c0-0.6,0.5-1.1,1.2-1.1c0,0,0,0,0,0l6.9,0c0.6,0,1.1,0.5,1.1,1.2C994.7,1259.8,994.2,1260.3,993.6,1260.3
				z M970.5,1260.2C970.5,1260.2,970.5,1260.2,970.5,1260.2l-6.9,0c-0.6,0-1.1-0.5-1.1-1.2c0-0.6,0.5-1.1,1.2-1.1c0,0,0,0,0,0l6.9,0
				c0.6,0,1.1,0.5,1.1,1.2C971.7,1259.7,971.1,1260.2,970.5,1260.2z M947.4,1260.1C947.4,1260.1,947.4,1260.1,947.4,1260.1l-6.9,0
				c-0.6,0-1.1-0.5-1.1-1.2c0-0.6,0.5-1.1,1.2-1.1c0,0,0,0,0,0l6.9,0c0.6,0,1.1,0.5,1.1,1.2C948.6,1259.6,948.1,1260.1,947.4,1260.1
				z M924.4,1259.9C924.4,1259.9,924.4,1259.9,924.4,1259.9l-6.9,0c-0.6,0-1.1-0.5-1.1-1.2c0-0.6,0.5-1.1,1.2-1.1c0,0,0,0,0,0l6.9,0
				c0.6,0,1.1,0.5,1.1,1.2C925.5,1259.4,925,1259.9,924.4,1259.9z M901.3,1259.8C901.3,1259.8,901.3,1259.8,901.3,1259.8l-6.9,0
				c-0.6,0-1.1-0.5-1.1-1.2c0-0.6,0.5-1.1,1.2-1.1c0,0,0,0,0,0l6.9,0c0.6,0,1.1,0.5,1.1,1.2C902.5,1259.3,902,1259.8,901.3,1259.8z
				 M878.3,1259.7C878.3,1259.7,878.3,1259.7,878.3,1259.7l-6.9,0c-0.6,0-1.1-0.5-1.1-1.2c0-0.6,0.5-1.1,1.2-1.1c0,0,0,0,0,0l6.9,0
				c0.6,0,1.1,0.5,1.1,1.2C879.4,1259.2,878.9,1259.7,878.3,1259.7z M855.2,1259.5C855.2,1259.5,855.2,1259.5,855.2,1259.5l-6.9,0
				c-0.6,0-1.1-0.5-1.1-1.2c0-0.6,0.5-1.1,1.2-1.1c0,0,0,0,0,0l6.9,0c0.6,0,1.1,0.5,1.1,1.2C856.3,1259,855.8,1259.5,855.2,1259.5z
				 M832.1,1259.4C832.1,1259.4,832.1,1259.4,832.1,1259.4l-6.9,0c-0.6,0-1.1-0.5-1.1-1.2c0-0.6,0.6-1.1,1.2-1.1l6.9,0
				c0.6,0,1.1,0.5,1.1,1.2C833.3,1258.9,832.8,1259.4,832.1,1259.4z M809.1,1259.3C809.1,1259.3,809.1,1259.3,809.1,1259.3l-6.9,0
				c-0.6,0-1.1-0.5-1.1-1.2c0-0.6,0.5-1.1,1.2-1.1c0,0,0,0,0,0l6.9,0c0.6,0,1.1,0.5,1.1,1.2C810.2,1258.8,809.7,1259.3,809.1,1259.3
				z M786,1259.1C786,1259.1,786,1259.1,786,1259.1l-6.9,0c-0.6,0-1.1-0.5-1.1-1.2c0-0.6,0.5-1.1,1.2-1.1c0,0,0,0,0,0l6.9,0
				c0.6,0,1.1,0.5,1.1,1.2C787.2,1258.6,786.6,1259.1,786,1259.1z M763.2,1256.6c-0.1,0-0.2,0-0.4-0.1c-2.2-0.7-4.4-1.6-6.5-2.7
				c-0.6-0.3-0.8-1-0.5-1.5c0.3-0.6,1-0.8,1.5-0.5c2,1,4.1,1.9,6.2,2.6c0.6,0.2,0.9,0.9,0.7,1.5
				C764.2,1256.2,763.7,1256.6,763.2,1256.6z M1169.3,1253.3c-0.3,0-0.7-0.1-0.9-0.4c-0.4-0.5-0.3-1.2,0.2-1.6
				c1.7-1.4,3.4-3,4.8-4.7c0.4-0.5,1.1-0.5,1.6-0.1c0.5,0.4,0.5,1.1,0.1,1.6c-1.5,1.8-3.3,3.5-5.1,5
				C1169.8,1253.2,1169.6,1253.3,1169.3,1253.3z M743.7,1244.6c-0.3,0-0.6-0.1-0.8-0.3c-1.7-1.7-3.3-3.4-4.7-5.3
				c-0.4-0.5-0.3-1.2,0.2-1.6c0.5-0.4,1.2-0.3,1.6,0.2c1.4,1.8,2.9,3.5,4.5,5.1c0.5,0.4,0.5,1.2,0,1.6
				C744.3,1244.5,744,1244.6,743.7,1244.6z M1181.7,1234.3c-0.1,0-0.2,0-0.3,0c-0.6-0.2-1-0.8-0.8-1.4c0.3-1.2,0.6-2.4,0.7-3.6
				l0.4-3.1c0.1-0.6,0.7-1.1,1.3-1c0.6,0.1,1.1,0.7,1,1.3l-0.4,3.1c-0.2,1.3-0.5,2.6-0.8,3.9
				C1182.7,1234,1182.2,1234.3,1181.7,1234.3z M731.6,1225.2c-0.5,0-0.9-0.3-1.1-0.8c-0.8-2.2-1.4-4.5-1.8-6.8
				c-0.1-0.6,0.3-1.2,0.9-1.3c0.6-0.1,1.2,0.3,1.3,0.9c0.4,2.2,1,4.4,1.7,6.5c0.2,0.6-0.1,1.3-0.7,1.5
				C731.8,1225.2,731.7,1225.2,731.6,1225.2z M1185,1211.5c0,0-0.1,0-0.1,0c-0.6-0.1-1.1-0.7-1-1.3c0.3-2.2,0.6-4.5,0.8-6.9
				c0.1-0.6,0.7-1.1,1.3-1c0.6,0.1,1.1,0.6,1,1.3c-0.3,2.3-0.5,4.6-0.8,6.9C1186.1,1211.1,1185.6,1211.5,1185,1211.5z M728.7,1202.5
				c-0.6,0-1.1-0.5-1.2-1.1l-0.2-6.9c0-0.6,0.5-1.2,1.1-1.2c0.6,0,1.2,0.5,1.2,1.1l0.2,6.9C729.9,1201.9,729.4,1202.5,728.7,1202.5
				C728.7,1202.5,728.7,1202.5,728.7,1202.5z M1187.5,1188.6c0,0-0.1,0-0.1,0c-0.6-0.1-1.1-0.6-1-1.3c0.2-2.3,0.4-4.6,0.6-6.9
				c0.1-0.6,0.6-1.1,1.2-1c0.6,0.1,1.1,0.6,1,1.2c-0.2,2.3-0.4,4.6-0.6,6.9C1188.6,1188.1,1188.1,1188.6,1187.5,1188.6z M728,1179.4
				c-0.6,0-1.1-0.5-1.2-1.1l-0.2-6.9c0-0.6,0.5-1.2,1.1-1.2c0.6,0,1.2,0.5,1.2,1.1l0.2,6.9C729.1,1178.9,728.6,1179.4,728,1179.4
				C728,1179.4,728,1179.4,728,1179.4z M1189.4,1165.6C1189.4,1165.6,1189.4,1165.6,1189.4,1165.6c-0.7,0-1.2-0.6-1.2-1.2
				c0.2-2.3,0.3-4.6,0.4-6.9c0-0.6,0.6-1.1,1.2-1.1c0.6,0,1.1,0.6,1.1,1.2c-0.1,2.3-0.3,4.6-0.4,6.9
				C1190.5,1165.1,1190,1165.6,1189.4,1165.6z M727.2,1156.4c-0.6,0-1.1-0.5-1.2-1.1l-0.2-6.9c0-0.6,0.5-1.2,1.1-1.2
				c0.6,0,1.2,0.5,1.2,1.1l0.2,6.9C728.4,1155.8,727.9,1156.4,727.2,1156.4C727.3,1156.4,727.2,1156.4,727.2,1156.4z M1190.6,1142.5
				C1190.6,1142.5,1190.5,1142.5,1190.6,1142.5c-0.7,0-1.2-0.6-1.2-1.2c0.1-2.3,0.1-4.6,0.2-6.9c0-0.6,0.6-1.1,1.2-1.1
				c0.6,0,1.1,0.5,1.1,1.2c-0.1,2.3-0.1,4.6-0.2,6.9C1191.7,1142.1,1191.2,1142.5,1190.6,1142.5z M726.5,1133.3
				c-0.6,0-1.1-0.5-1.2-1.1l-0.2-6.9c0-0.6,0.5-1.2,1.1-1.2c0.6,0,1.2,0.5,1.2,1.1l0.2,6.9C727.7,1132.8,727.2,1133.3,726.5,1133.3
				C726.5,1133.3,726.5,1133.3,726.5,1133.3z M1191,1119.5c-0.6,0-1.2-0.5-1.2-1.2c0-2.3,0-4.6,0-6.9c0-0.6,0.5-1.2,1.1-1.2
				c0.6,0,1.2,0.5,1.2,1.1c0,2.3,0,4.6,0,6.9C1192.1,1119,1191.6,1119.5,1191,1119.5L1191,1119.5z M725.7,1110.3
				c-0.6,0-1.1-0.5-1.2-1.1l-0.2-6.9c0-0.6,0.5-1.2,1.1-1.2c0.5,0,1.2,0.5,1.2,1.1l0.2,6.9C726.9,1109.7,726.4,1110.3,725.7,1110.3
				C725.8,1110.3,725.8,1110.3,725.7,1110.3z M1190.5,1096.4c-0.6,0-1.1-0.5-1.2-1.1c-0.1-2.3-0.2-4.6-0.3-6.9
				c0-0.6,0.5-1.2,1.1-1.2c0.6-0.1,1.2,0.5,1.2,1.1c0.1,2.3,0.2,4.6,0.3,6.9C1191.6,1095.9,1191.2,1096.4,1190.5,1096.4
				C1190.5,1096.4,1190.5,1096.4,1190.5,1096.4z M725,1087.2c-0.6,0-1.1-0.5-1.2-1.1l-0.2-6.9c0-0.6,0.5-1.2,1.1-1.2
				c0.5-0.1,1.2,0.5,1.2,1.1l0.2,6.9C726.2,1086.7,725.7,1087.2,725,1087.2C725,1087.2,725,1087.2,725,1087.2z M1189,1073.4
				c-0.6,0-1.1-0.5-1.1-1.1c-0.2-2.3-0.4-4.6-0.7-6.9c-0.1-0.6,0.4-1.2,1-1.3c0.6-0.1,1.2,0.4,1.3,1c0.2,2.3,0.5,4.6,0.7,6.9
				c0.1,0.6-0.4,1.2-1,1.2C1189.1,1073.4,1189,1073.4,1189,1073.4z M724.3,1064.2c-0.6,0-1.1-0.5-1.2-1.1l-0.2-6.9
				c0-0.6,0.5-1.2,1.1-1.2c0.5,0,1.2,0.5,1.2,1.1l0.2,6.9C725.4,1063.6,724.9,1064.2,724.3,1064.2
				C724.3,1064.2,724.3,1064.2,724.3,1064.2z M1180.4,1057.3h-6.9c-0.6,0-1.2-0.5-1.2-1.2c0-0.6,0.5-1.2,1.2-1.2h6.9
				c0.6,0,1.2,0.5,1.2,1.2C1181.6,1056.7,1181.1,1057.3,1180.4,1057.3z M1157.4,1057.3h-6.9c-0.6,0-1.2-0.5-1.2-1.2
				c0-0.6,0.5-1.2,1.2-1.2h6.9c0.6,0,1.2,0.5,1.2,1.2C1158.5,1056.7,1158,1057.3,1157.4,1057.3z M1134.3,1057.3h-6.9
				c-0.6,0-1.2-0.5-1.2-1.2c0-0.6,0.5-1.2,1.2-1.2h6.9c0.6,0,1.2,0.5,1.2,1.2C1135.5,1056.7,1135,1057.3,1134.3,1057.3z
				 M1111.3,1057.3h-6.9c-0.6,0-1.2-0.5-1.2-1.2c0-0.6,0.5-1.2,1.2-1.2h6.9c0.6,0,1.2,0.5,1.2,1.2
				C1112.4,1056.7,1111.9,1057.3,1111.3,1057.3z M1088.2,1057.3h-6.9c-0.6,0-1.2-0.5-1.2-1.2c0-0.6,0.5-1.2,1.2-1.2h6.9
				c0.6,0,1.2,0.5,1.2,1.2C1089.3,1056.7,1088.8,1057.3,1088.2,1057.3z M1065.1,1057.3h-6.9c-0.6,0-1.2-0.5-1.2-1.2
				c0-0.6,0.5-1.2,1.2-1.2h6.9c0.6,0,1.2,0.5,1.2,1.2C1066.3,1056.7,1065.8,1057.3,1065.1,1057.3z M1042.1,1057.3h-6.9
				c-0.6,0-1.2-0.5-1.2-1.2c0-0.6,0.5-1.2,1.2-1.2h6.9c0.6,0,1.2,0.5,1.2,1.2C1043.2,1056.7,1042.7,1057.3,1042.1,1057.3z
				 M1019,1057.3h-6.9c-0.6,0-1.2-0.5-1.2-1.2c0-0.6,0.5-1.2,1.2-1.2h6.9c0.6,0,1.2,0.5,1.2,1.2
				C1020.2,1056.7,1019.6,1057.3,1019,1057.3z M995.9,1057.3H989c-0.6,0-1.2-0.5-1.2-1.2c0-0.6,0.5-1.2,1.2-1.2h6.9
				c0.6,0,1.2,0.5,1.2,1.2C997.1,1056.7,996.6,1057.3,995.9,1057.3z M972.9,1057.3H966c-0.6,0-1.2-0.5-1.2-1.2
				c0-0.6,0.5-1.2,1.2-1.2h6.9c0.6,0,1.2,0.5,1.2,1.2C974,1056.7,973.5,1057.3,972.9,1057.3z M949.8,1057.3h-6.9
				c-0.6,0-1.2-0.5-1.2-1.2c0-0.6,0.5-1.2,1.2-1.2h6.9c0.6,0,1.2,0.5,1.2,1.2C951,1056.7,950.4,1057.3,949.8,1057.3z M926.7,1057.3
				h-6.9c-0.6,0-1.2-0.5-1.2-1.2c0-0.6,0.5-1.2,1.2-1.2h6.9c0.6,0,1.2,0.5,1.2,1.2C927.9,1056.7,927.4,1057.3,926.7,1057.3z
				 M903.7,1057.3h-6.9c-0.6,0-1.2-0.5-1.2-1.2c0-0.6,0.5-1.2,1.2-1.2h6.9c0.6,0,1.2,0.5,1.2,1.2
				C904.8,1056.7,904.3,1057.3,903.7,1057.3z M880.6,1057.3h-6.9c-0.6,0-1.2-0.5-1.2-1.2c0-0.6,0.5-1.2,1.2-1.2h6.9
				c0.6,0,1.2,0.5,1.2,1.2C881.8,1056.7,881.3,1057.3,880.6,1057.3z M857.6,1057.3h-6.9c-0.6,0-1.2-0.5-1.2-1.2
				c0-0.6,0.5-1.2,1.2-1.2h6.9c0.6,0,1.2,0.5,1.2,1.2C858.7,1056.7,858.2,1057.3,857.6,1057.3z M834.5,1057.3h-6.9
				c-0.6,0-1.2-0.5-1.2-1.2c0-0.6,0.5-1.2,1.2-1.2h6.9c0.6,0,1.2,0.5,1.2,1.2C835.7,1056.7,835.1,1057.3,834.5,1057.3z
				 M811.4,1057.3h-6.9c-0.6,0-1.2-0.5-1.2-1.2c0-0.6,0.5-1.2,1.2-1.2h6.9c0.6,0,1.2,0.5,1.2,1.2
				C812.6,1056.7,812.1,1057.3,811.4,1057.3z M788.4,1057.3h-6.9c-0.6,0-1.2-0.5-1.2-1.2c0-0.6,0.5-1.2,1.2-1.2h6.9
				c0.6,0,1.2,0.5,1.2,1.2C789.5,1056.7,789,1057.3,788.4,1057.3z M765.3,1057.3h-6.9c-0.6,0-1.2-0.5-1.2-1.2c0-0.6,0.5-1.2,1.2-1.2
				h6.9c0.6,0,1.2,0.5,1.2,1.2C766.5,1056.7,765.9,1057.3,765.3,1057.3z M742.2,1057.3h-6.9c-0.6,0-1.2-0.5-1.2-1.2
				c0-0.6,0.5-1.2,1.2-1.2h6.9c0.6,0,1.2,0.5,1.2,1.2C743.4,1056.7,742.9,1057.3,742.2,1057.3z"/>
			
				<linearGradient id="SVGID_00000121989284636245699170000012943324845078184100_" gradientUnits="userSpaceOnUse" x1="860.1452" y1="971.2353" x2="857.3068" y2="902.4054">
				<stop  offset="0" style="stop-color:#4F52FF"/>
				<stop  offset="1" style="stop-color:#4042E2"/>
			</linearGradient>
			<path style="fill:url(#SVGID_00000121989284636245699170000012943324845078184100_);" d="M825.4,939l1.2-12.4
				c1.3-3,4-5.1,7.3-5.6c12-1.9,41.9-5.3,56.3,5.5l2.1,14.5L825.4,939z"/>
			
				<linearGradient id="SVGID_00000142142083332382537390000008917136046513543305_" gradientUnits="userSpaceOnUse" x1="856.5517" y1="867.8958" x2="870.7435" y2="1065.1613">
				<stop  offset="0" style="stop-color:#4F52FF"/>
				<stop  offset="1" style="stop-color:#4042E2"/>
			</linearGradient>
			<path style="fill:url(#SVGID_00000142142083332382537390000008917136046513543305_);" d="M863,927c-2.8,0.7-5.5,0.7-8.3,0
				c-3.4-0.8-5.7-3.8-5.7-7.3l0-39h19.8l0,38.9C868.8,923.1,866.4,926.2,863,927z"/>
			
				<linearGradient id="SVGID_00000040537383531119073050000015886522052863501219_" gradientUnits="userSpaceOnUse" x1="1051.9066" y1="963.3275" x2="1049.0682" y2="894.4976">
				<stop  offset="0" style="stop-color:#4F52FF"/>
				<stop  offset="1" style="stop-color:#4042E2"/>
			</linearGradient>
			<path style="fill:url(#SVGID_00000040537383531119073050000015886522052863501219_);" d="M1017.5,939l1.2-12.4
				c1.3-3,4-5.1,7.3-5.6c12-1.9,41.9-5.3,56.3,5.5l2.1,14.5L1017.5,939z"/>
			
				<linearGradient id="SVGID_00000037656423870619257750000013726286468855217794_" gradientUnits="userSpaceOnUse" x1="1047.7972" y1="854.1371" x2="1061.989" y2="1051.4023">
				<stop  offset="0" style="stop-color:#4F52FF"/>
				<stop  offset="1" style="stop-color:#4042E2"/>
			</linearGradient>
			<path style="fill:url(#SVGID_00000037656423870619257750000013726286468855217794_);" d="M1055.1,927c-2.8,0.7-5.5,0.7-8.3,0
				c-3.4-0.8-5.7-3.8-5.7-7.3l0-43.1h19.8l0,43C1060.9,923.1,1058.5,926.2,1055.1,927z"/>
			
				<linearGradient id="SVGID_00000001628082025849936800000007920596169455488923_" gradientUnits="userSpaceOnUse" x1="969.0259" y1="758.075" x2="949.8669" y2="898.5742">
				<stop  offset="0" style="stop-color:#4F52FF"/>
				<stop  offset="1" style="stop-color:#4042E2"/>
			</linearGradient>
			<path style="fill:url(#SVGID_00000001628082025849936800000007920596169455488923_);" d="M847,890.3l213.3-7.1
				c4.9-0.2,9-3.7,9.8-8.4c1.2-6.7,2.2-16.7,0.7-27c-1.7-11.8-11.9-20.5-23.8-20.8c-39.8-0.9-141.1-0.9-196.9,21.2
				c-5.9,2.3-10.3,7.4-11.8,13.5c-1.4,5.9-2.4,13.7-0.5,21.7C838.7,887.5,842.6,890.4,847,890.3z"/>
			<path class="st37" d="M843.3,880.6c-1.2,0-2.2-0.9-2.3-2.1c0-0.3-0.8-8.6,1.3-16.6c1.7-6.3,6.7-11.4,13-13.3
				c11.9-3.5,34.8-9.5,53.5-10c1.3,0,2.3,1,2.4,2.2c0,1.3-1,2.3-2.2,2.4c-18.2,0.5-40.6,6.4-52.3,9.8c-4.8,1.4-8.6,5.3-9.9,10
				c-1.9,7.1-1.2,14.8-1.2,14.9c0.1,1.3-0.8,2.4-2.1,2.5C843.4,880.6,843.3,880.6,843.3,880.6z"/>
			
				<linearGradient id="SVGID_00000165216352758821332060000017400936649888091525_" gradientUnits="userSpaceOnUse" x1="974.8045" y1="867.4941" x2="904.5553" y2="1523.1538">
				<stop  offset="0" style="stop-color:#4F52FF"/>
				<stop  offset="1" style="stop-color:#4042E2"/>
			</linearGradient>
			<path style="fill:url(#SVGID_00000165216352758821332060000017400936649888091525_);" d="M726.5,934.1c68.9-0.9,367-4,453.6,6.4
				c7.5,0.9,13.5,6.4,15.2,13.7c5.1,23.1,15.4,76.9,14.2,130.1c-0.2,7.2-5.5,13.4-12.6,14.7l-197.6,37.4h-70.2l-210.6-41.9
				c-7.4-1.5-12.9-7.8-13.3-15.3c-1.4-26.8-3.5-89.7,3.7-130.1C710.3,940.5,717.7,934.2,726.5,934.1z"/>
			<path class="st2" d="M930.6,1120.6c-0.1,0-0.1,0-0.2,0l-6.8-1.3c-0.6-0.1-1-0.7-0.9-1.4c0.1-0.6,0.7-1,1.4-0.9l6.7,1.3
				c0.1,0,0.1,0,0.2,0h6.9c0.6,0,1.2,0.5,1.2,1.2s-0.5,1.2-1.2,1.2h-6.9c-0.1,0-0.1,0-0.2,0C930.7,1120.6,930.6,1120.6,930.6,1120.6
				z M983.9,1120.6H977c-0.6,0-1.2-0.5-1.2-1.2s0.5-1.2,1.2-1.2h6.9c0.6,0,1.2,0.5,1.2,1.2S984.6,1120.6,983.9,1120.6z
				 M960.9,1120.6H954c-0.6,0-1.2-0.5-1.2-1.2s0.5-1.2,1.2-1.2h6.9c0.6,0,1.2,0.5,1.2,1.2S961.5,1120.6,960.9,1120.6z M1000,1120.1
				c-0.5,0-1-0.4-1.1-0.9c-0.1-0.6,0.3-1.2,0.9-1.3l6.8-1.3c0.6-0.1,1.2,0.3,1.3,0.9c0.1,0.6-0.3,1.2-0.9,1.3l-6.8,1.3
				C1000.2,1120.1,1000.1,1120.1,1000,1120.1z M908,1116.1c-0.1,0-0.1,0-0.2,0l-6.8-1.3c-0.6-0.1-1-0.7-0.9-1.4
				c0.1-0.6,0.7-1,1.4-0.9l6.8,1.3c0.6,0.1,1,0.7,0.9,1.4C909,1115.7,908.5,1116.1,908,1116.1z M1022.7,1115.8c-0.5,0-1-0.4-1.1-0.9
				c-0.1-0.6,0.3-1.2,0.9-1.3l6.8-1.3c0.6-0.1,1.2,0.3,1.3,0.9c0.1,0.6-0.3,1.2-0.9,1.3l-6.8,1.3
				C1022.8,1115.8,1022.8,1115.8,1022.7,1115.8z M885.3,1111.6c-0.1,0-0.1,0-0.2,0l-6.8-1.3c-0.6-0.1-1-0.7-0.9-1.4
				c0.1-0.6,0.7-1,1.4-0.9l6.8,1.3c0.6,0.1,1,0.7,0.9,1.4C886.4,1111.2,885.9,1111.6,885.3,1111.6z M1045.4,1111.5
				c-0.5,0-1-0.4-1.1-0.9c-0.1-0.6,0.3-1.2,0.9-1.3l6.8-1.3c0.6-0.1,1.2,0.3,1.3,0.9c0.1,0.6-0.3,1.2-0.9,1.3l-6.8,1.3
				C1045.5,1111.5,1045.4,1111.5,1045.4,1111.5z M1068,1107.2c-0.5,0-1-0.4-1.1-0.9c-0.1-0.6,0.3-1.2,0.9-1.3l6.8-1.3
				c0.6-0.1,1.2,0.3,1.3,0.9c0.1,0.6-0.3,1.2-0.9,1.3l-6.8,1.3C1068.2,1107.2,1068.1,1107.2,1068,1107.2z M862.7,1107.1
				c-0.1,0-0.1,0-0.2,0l-6.8-1.3c-0.6-0.1-1-0.7-0.9-1.4c0.1-0.6,0.7-1,1.4-0.9l6.8,1.3c0.6,0.1,1,0.7,0.9,1.4
				C863.7,1106.7,863.3,1107.1,862.7,1107.1z M1090.7,1102.9c-0.5,0-1-0.4-1.1-0.9c-0.1-0.6,0.3-1.2,0.9-1.3l6.8-1.3
				c0.6-0.1,1.2,0.3,1.3,0.9c0.1,0.6-0.3,1.2-0.9,1.3l-6.8,1.3C1090.8,1102.9,1090.7,1102.9,1090.7,1102.9z M840.1,1102.6
				c-0.1,0-0.1,0-0.2,0l-6.8-1.3c-0.6-0.1-1-0.7-0.9-1.4c0.1-0.6,0.7-1,1.4-0.9l6.8,1.3c0.6,0.1,1,0.7,0.9,1.4
				C841.1,1102.2,840.6,1102.6,840.1,1102.6z M1113.3,1098.6c-0.5,0-1-0.4-1.1-0.9c-0.1-0.6,0.3-1.2,0.9-1.3l6.8-1.3
				c0.6-0.1,1.2,0.3,1.3,0.9c0.1,0.6-0.3,1.2-0.9,1.3l-6.8,1.3C1113.5,1098.6,1113.4,1098.6,1113.3,1098.6z M817.5,1098.1
				c-0.1,0-0.1,0-0.2,0l-6.8-1.3c-0.6-0.1-1-0.7-0.9-1.4c0.1-0.6,0.7-1,1.4-0.9l6.8,1.3c0.6,0.1,1,0.7,0.9,1.4
				C818.5,1097.7,818,1098.1,817.5,1098.1z M1136,1094.4c-0.5,0-1-0.4-1.1-0.9c-0.1-0.6,0.3-1.2,0.9-1.3l6.8-1.3
				c0.6-0.1,1.2,0.3,1.3,0.9c0.1,0.6-0.3,1.2-0.9,1.3l-6.8,1.3C1136.1,1094.3,1136.1,1094.4,1136,1094.4z M794.9,1093.6
				c-0.1,0-0.1,0-0.2,0l-6.8-1.3c-0.6-0.1-1-0.7-0.9-1.4c0.1-0.6,0.7-1,1.4-0.9l6.8,1.3c0.6,0.1,1,0.7,0.9,1.4
				C795.9,1093.2,795.4,1093.6,794.9,1093.6z M1158.7,1090.1c-0.5,0-1-0.4-1.1-0.9c-0.1-0.6,0.3-1.2,0.9-1.3l6.8-1.3
				c0.6-0.1,1.2,0.3,1.3,0.9c0.1,0.6-0.3,1.2-0.9,1.3l-6.8,1.3C1158.8,1090.1,1158.7,1090.1,1158.7,1090.1z M772.2,1089.1
				c-0.1,0-0.1,0-0.2,0l-6.8-1.3c-0.6-0.1-1-0.7-0.9-1.4c0.1-0.6,0.7-1,1.4-0.9l6.8,1.3c0.6,0.1,1,0.7,0.9,1.4
				C773.3,1088.7,772.8,1089.1,772.2,1089.1z M1181.3,1085.8c-0.5,0-1-0.4-1.1-0.9c-0.1-0.6,0.3-1.2,0.9-1.3l6.8-1.3
				c0.6-0.1,1.2,0.3,1.3,0.9c0.1,0.6-0.3,1.2-0.9,1.3l-6.8,1.3C1181.5,1085.8,1181.4,1085.8,1181.3,1085.8z M749.6,1084.6
				c-0.1,0-0.1,0-0.2,0l-6.8-1.3c-0.6-0.1-1-0.7-0.9-1.4c0.1-0.6,0.7-1,1.4-0.9l6.8,1.3c0.6,0.1,1,0.7,0.9,1.4
				C750.6,1084.2,750.2,1084.6,749.6,1084.6z M727,1080.1c-0.1,0-0.1,0-0.2,0l-5.9-1.2l-0.1-2.7c0-0.6,0.5-1.2,1.1-1.2
				c0.6-0.1,1.2,0.5,1.2,1.1l0,0.9l4.1,0.8c0.6,0.1,1,0.7,0.9,1.4C728,1079.7,727.5,1080.1,727,1080.1z M1192.4,1071.9
				c-0.6,0-1.1-0.5-1.2-1.1c0-2.3-0.1-4.6-0.1-6.9c0-0.6,0.5-1.2,1.1-1.2c0.6,0,1.2,0.5,1.2,1.1c0.1,2.3,0.1,4.6,0.1,6.9
				C1193.6,1071.4,1193.1,1071.9,1192.4,1071.9C1192.4,1071.9,1192.4,1071.9,1192.4,1071.9z M721.3,1061.1c-0.6,0-1.1-0.5-1.2-1.1
				c-0.1-2.2-0.1-4.5-0.2-6.9c0-0.6,0.5-1.2,1.1-1.2c0.6,0.1,1.2,0.5,1.2,1.1c0.1,2.4,0.1,4.7,0.2,6.9
				C722.4,1060.6,721.9,1061.1,721.3,1061.1C721.3,1061.1,721.3,1061.1,721.3,1061.1z M1191.5,1048.8c-0.6,0-1.1-0.5-1.1-1.1
				c-0.1-2.3-0.3-4.6-0.5-6.9c0-0.6,0.4-1.2,1.1-1.2c0.6-0.1,1.2,0.4,1.2,1.1c0.2,2.3,0.3,4.6,0.5,6.9
				C1192.7,1048.3,1192.2,1048.8,1191.5,1048.8C1191.6,1048.8,1191.5,1048.8,1191.5,1048.8z M720.7,1038.1c-0.6,0-1.1-0.5-1.2-1.1
				c0-2.3,0-4.6-0.1-6.9c0-0.6,0.5-1.2,1.1-1.2h0c0.6,0,1.2,0.5,1.2,1.1c0,2.3,0,4.6,0.1,6.9
				C721.9,1037.5,721.4,1038.1,720.7,1038.1C720.7,1038.1,720.7,1038.1,720.7,1038.1z M1189.5,1025.9c-0.6,0-1.1-0.4-1.1-1
				c-0.3-2.3-0.5-4.6-0.8-6.9c-0.1-0.6,0.4-1.2,1-1.3c0.6-0.1,1.2,0.4,1.3,1c0.3,2.3,0.5,4.6,0.8,6.9c0.1,0.6-0.4,1.2-1,1.3
				C1189.6,1025.9,1189.6,1025.9,1189.5,1025.9z M720.8,1015C720.8,1015,720.7,1015,720.8,1015c-0.7,0-1.2-0.5-1.2-1.2
				c0-2.3,0.1-4.6,0.1-6.9c0-0.6,0.5-1.1,1.2-1.1c0.6,0,1.1,0.5,1.1,1.2c-0.1,2.3-0.1,4.6-0.1,6.9
				C721.9,1014.5,721.4,1015,720.8,1015z M1186.6,1003c-0.6,0-1.1-0.4-1.1-1c-0.3-2.3-0.7-4.6-1-6.8c-0.1-0.6,0.3-1.2,1-1.3
				c0.6-0.1,1.2,0.3,1.3,1c0.4,2.2,0.7,4.5,1,6.9c0.1,0.6-0.3,1.2-1,1.3C1186.7,1003,1186.6,1003,1186.6,1003z M721.5,991.9
				C721.5,991.9,721.5,991.9,721.5,991.9c-0.7,0-1.2-0.6-1.2-1.2c0.1-2.3,0.3-4.6,0.4-6.9c0-0.6,0.6-1.1,1.2-1.1
				c0.6,0,1.1,0.6,1.1,1.2c-0.2,2.3-0.3,4.6-0.4,6.9C722.6,991.5,722.1,991.9,721.5,991.9z M1182.8,980.2c-0.5,0-1-0.4-1.1-0.9
				c-0.4-2.4-0.9-4.6-1.3-6.8c-0.1-0.6,0.3-1.2,0.9-1.4c0.6-0.1,1.2,0.3,1.4,0.9c0.4,2.2,0.9,4.4,1.3,6.8c0.1,0.6-0.3,1.2-0.9,1.3
				C1183,980.2,1182.9,980.2,1182.8,980.2z M723.3,969c0,0-0.1,0-0.1,0c-0.6-0.1-1.1-0.6-1-1.3c0.3-2.3,0.5-4.7,0.8-6.9
				c0.1-0.6,0.7-1.1,1.3-1c0.6,0.1,1.1,0.7,1,1.3c-0.3,2.2-0.6,4.5-0.8,6.8C724.4,968.5,723.9,969,723.3,969z M1177.3,958.5
				c0,0-0.1,0-0.1,0c-2.1-0.3-4.4-0.5-6.9-0.7c-0.6-0.1-1.1-0.6-1-1.3c0.1-0.6,0.6-1.1,1.3-1c2.5,0.2,4.8,0.5,6.9,0.7
				c0.6,0.1,1.1,0.6,1,1.3C1178.4,958.1,1177.9,958.5,1177.3,958.5z M1154.3,956.4C1154.3,956.4,1154.3,956.4,1154.3,956.4
				c-2.3-0.2-4.6-0.3-7-0.5c-0.6,0-1.1-0.6-1.1-1.2c0-0.6,0.6-1.1,1.2-1.1c2.4,0.2,4.7,0.3,6.9,0.5c0.6,0,1.1,0.6,1.1,1.2
				C1155.4,956,1154.9,956.4,1154.3,956.4z M1131.3,955.1C1131.3,955.1,1131.3,955.1,1131.3,955.1c-2.3-0.1-4.6-0.2-7-0.3
				c-0.6,0-1.1-0.6-1.1-1.2c0-0.6,0.6-1.1,1.2-1.1c2.4,0.1,4.7,0.2,6.9,0.3c0.6,0,1.1,0.6,1.1,1.2
				C1132.4,954.6,1131.9,955.1,1131.3,955.1z M1108.2,954.1C1108.2,954.1,1108.2,954.1,1108.2,954.1l-7-0.2c-0.6,0-1.1-0.6-1.1-1.2
				c0-0.6,0.6-1.1,1.2-1.1l6.9,0.2c0.6,0,1.1,0.6,1.1,1.2C1109.4,953.6,1108.9,954.1,1108.2,954.1z M1085.2,953.3
				C1085.2,953.3,1085.2,953.3,1085.2,953.3l-6.9-0.2c-0.6,0-1.1-0.5-1.1-1.2c0-0.6,0.5-1.1,1.2-1.1l6.9,0.2c0.6,0,1.1,0.6,1.1,1.2
				C1086.3,952.8,1085.8,953.3,1085.2,953.3z M1062.1,952.7C1062.1,952.7,1062.1,952.7,1062.1,952.7l-6.9-0.2
				c-0.6,0-1.1-0.5-1.1-1.2c0-0.6,0.5-1.1,1.2-1.1c0,0,0,0,0,0l6.9,0.2c0.6,0,1.1,0.5,1.1,1.2
				C1063.3,952.2,1062.8,952.7,1062.1,952.7z M1039.1,952.2C1039.1,952.2,1039.1,952.2,1039.1,952.2l-6.9-0.1
				c-0.6,0-1.1-0.5-1.1-1.2c0-0.6,0.5-1.1,1.2-1.1c0,0,0,0,0,0l6.9,0.1c0.6,0,1.1,0.5,1.1,1.2
				C1040.2,951.7,1039.7,952.2,1039.1,952.2z M732.3,952.2c-0.6,0-1.1-0.5-1.2-1.1c0-0.6,0.5-1.2,1.1-1.2l6.9-0.1c0,0,0,0,0,0
				c0.6,0,1.1,0.5,1.2,1.1c0,0.6-0.5,1.2-1.1,1.2L732.3,952.2C732.3,952.2,732.3,952.2,732.3,952.2z M755.4,952
				c-0.6,0-1.1-0.5-1.2-1.1c0-0.6,0.5-1.2,1.1-1.2l6.9-0.1c0,0,0,0,0,0c0.6,0,1.1,0.5,1.2,1.1c0,0.6-0.5,1.2-1.1,1.2L755.4,952
				C755.4,952,755.4,952,755.4,952z M1016,951.9C1016,951.9,1016,951.9,1016,951.9l-6.9-0.1c-0.6,0-1.1-0.5-1.1-1.2
				c0-0.6,0.5-1.1,1.2-1.1c0,0,0,0,0,0l6.9,0.1c0.6,0,1.1,0.5,1.1,1.2C1017.2,951.4,1016.6,951.9,1016,951.9z M778.4,951.7
				c-0.6,0-1.1-0.5-1.2-1.1c0-0.6,0.5-1.2,1.1-1.2l6.9-0.1c0,0,0,0,0,0c0.6,0,1.1,0.5,1.2,1.1c0,0.6-0.5,1.2-1.1,1.2L778.4,951.7
				C778.4,951.7,778.4,951.7,778.4,951.7z M993,951.6C993,951.6,992.9,951.6,993,951.6l-6.9-0.1c-0.6,0-1.1-0.5-1.1-1.2
				c0-0.6,0.5-1.1,1.2-1.1c0,0,0,0,0,0l6.9,0.1c0.6,0,1.1,0.5,1.1,1.2C994.1,951.1,993.6,951.6,993,951.6z M801.5,951.6
				c-0.6,0-1.1-0.5-1.2-1.1c0-0.6,0.5-1.2,1.1-1.2l6.9,0c0,0,0,0,0,0c0.6,0,1.1,0.5,1.2,1.1c0,0.6-0.5,1.2-1.1,1.2L801.5,951.6
				C801.5,951.6,801.5,951.6,801.5,951.6z M969.9,951.4C969.9,951.4,969.9,951.4,969.9,951.4l-6.9,0c-0.6,0-1.1-0.5-1.1-1.2
				c0-0.6,0.5-1.1,1.2-1.1c0,0,0,0,0,0l6.9,0c0.6,0,1.1,0.5,1.1,1.2C971,950.9,970.5,951.4,969.9,951.4z M824.6,951.4
				c-0.6,0-1.1-0.5-1.2-1.1c0-0.6,0.5-1.2,1.1-1.2l6.9,0c0,0,0,0,0,0c0.6,0,1.1,0.5,1.2,1.1c0,0.6-0.5,1.2-1.1,1.2L824.6,951.4
				C824.6,951.4,824.6,951.4,824.6,951.4z M847.6,951.3c-0.6,0-1.2-0.5-1.2-1.1c0-0.6,0.5-1.2,1.1-1.2l6.9,0h0
				c0.6,0,1.2,0.5,1.2,1.1c0,0.6-0.5,1.2-1.1,1.2L847.6,951.3L847.6,951.3z M946.8,951.3L946.8,951.3l-6.9,0c-0.6,0-1.2-0.5-1.1-1.2
				c0-0.6,0.5-1.1,1.2-1.1h0l6.9,0c0.6,0,1.2,0.5,1.1,1.2C948,950.8,947.5,951.3,946.8,951.3z M870.7,951.2c-0.6,0-1.2-0.5-1.2-1.1
				c0-0.6,0.5-1.2,1.1-1.2l6.9,0c0.6,0,1.2,0.5,1.2,1.2c0,0.6-0.5,1.2-1.2,1.2L870.7,951.2L870.7,951.2z M923.8,951.2
				C923.8,951.2,923.8,951.2,923.8,951.2l-6.9,0c-0.6,0-1.2-0.5-1.2-1.2c0-0.6,0.5-1.2,1.2-1.2h0l6.9,0c0.6,0,1.2,0.5,1.2,1.2
				C924.9,950.7,924.4,951.2,923.8,951.2z M893.8,951.2c-0.6,0-1.2-0.5-1.2-1.2c0-0.6,0.5-1.2,1.2-1.2h6.9c0.6,0,1.2,0.5,1.2,1.2
				c0,0.6-0.5,1.2-1.1,1.2H893.8L893.8,951.2z"/>
			
				<linearGradient id="SVGID_00000134251870167283033500000000968799517217427605_" gradientUnits="userSpaceOnUse" x1="1017.7134" y1="1012.7451" x2="1400.3594" y2="320.2404">
				<stop  offset="0" style="stop-color:#09005D"/>
				<stop  offset="1" style="stop-color:#1A0F91"/>
			</linearGradient>
			<path style="fill:url(#SVGID_00000134251870167283033500000000968799517217427605_);" d="M992.5,1165.9H931
				c-8.1,0-14.8-6-15.8-14l-7.1-59.2c-1.1-9.4,6.3-17.7,15.8-17.7h73.9c9.3,0,16.7,8,15.9,17.2l-5.3,59.2
				C1007.6,1159.6,1000.7,1165.9,992.5,1165.9z"/>
			
				<linearGradient id="SVGID_00000026850341088938817740000013979545469950778554_" gradientUnits="userSpaceOnUse" x1="962.2584" y1="973.9157" x2="962.2584" y2="1023.826">
				<stop  offset="0" style="stop-color:#4F52FF"/>
				<stop  offset="1" style="stop-color:#4042E2"/>
			</linearGradient>
			<path style="fill:url(#SVGID_00000026850341088938817740000013979545469950778554_);" d="M987.6,1158.1h-49.3
				c-6.5,0-11.9-4.8-12.7-11.2l-5.7-47.4c-0.9-7.6,5-14.2,12.7-14.2h59.2c7.5,0,13.4,6.4,12.7,13.8l-4.2,47.4
				C999.7,1153.1,994.2,1158.1,987.6,1158.1z"/>
		</g>
	</g>
</g>
</svg>
