<?xml version="1.0" encoding="utf-8"?>
<!-- Generator: Adobe Illustrator 26.1.0, SVG Export Plug-In . SVG Version: 6.00 Build 0)  -->
<svg version="1.1" id="Capa_1" xmlns="http://www.w3.org/2000/svg" xmlns:xlink="http://www.w3.org/1999/xlink" x="0px" y="0px"
	 viewBox="0 0 24 24" style="enable-background:new 0 0 24 24;" xml:space="preserve">
<style type="text/css">
	.st0{fill-rule:evenodd;clip-rule:evenodd;fill:#B5B5B5;}
</style>
<path class="st0" d="M11,2c-0.6,0-1,0.4-1,1v1h4V3c0-0.6-0.4-1-1-1H11z M16,4V3c0-1.7-1.3-3-3-3h-2C9.3,0,8,1.3,8,3v1H3
	C2.4,4,2,4.4,2,5s0.4,1,1,1h0.1l1.7,15.3C5,22.9,6.3,24,7.8,24h8.4c1.5,0,2.8-1.1,3-2.7L20.9,6H21c0.6,0,1-0.4,1-1s-0.4-1-1-1H16z
	 M18.9,6H5.1l1.7,15.1c0.1,0.5,0.5,0.9,1,0.9h8.4c0.5,0,0.9-0.4,1-0.9L18.9,6z M10,9c0.6,0,1,0.4,1,1v8c0,0.6-0.4,1-1,1s-1-0.4-1-1
	v-8C9,9.4,9.4,9,10,9z M14,9c0.6,0,1,0.4,1,1v8c0,0.6-0.4,1-1,1s-1-0.4-1-1v-8C13,9.4,13.4,9,14,9z"/>
</svg>
